  0
SECTION
  2
HEADER
  9
$ACADVER
  1
AC1027
  9
$ACADMAINTVER
 70
     8
  9
$DWGCODEPAGE
  3
ANSI_1252
  9
$REQUIREDVERSIONS
160
                 0
  9
$INSBASE
 10
0.0
 20
0.0
 30
0.0
  9
$EXTMIN
 10
1.000000000000000E+20
 20
1.000000000000000E+20
 30
1.000000000000000E+20
  9
$EXTMAX
 10
-1.000000000000000E+20
 20
-1.000000000000000E+20
 30
-1.000000000000000E+20
  9
$LIMMIN
 10
0.0
 20
0.0
  9
$LIMMAX
 10
12.0
 20
9.0
  9
$ORTHOMODE
 70
     0
  9
$REGENMODE
 70
     1
  9
$FILLMODE
 70
     1
  9
$QTEXTMODE
 70
     0
  9
$MIRRTEXT
 70
     1
  9
$LTSCALE
 40
1.0
  9
$ATTMODE
 70
     1
  9
$TEXTSIZE
 40
0.2
  9
$TRACEWID
 40
0.05
  9
$TEXTSTYLE
  7
Standard
  9
$CLAYER
  8
0
  9
$CELTYPE
  6
ByLayer
  9
$CECOLOR
 62
   178
  9
$CELTSCALE
 40
1.0
  9
$DISPSILH
 70
     0
  9
$DIMSCALE
 40
1.0
  9
$DIMASZ
 40
0.18
  9
$DIMEXO
 40
0.0625
  9
$DIMDLI
 40
0.38
  9
$DIMRND
 40
0.0
  9
$DIMDLE
 40
0.0
  9
$DIMEXE
 40
0.18
  9
$DIMTP
 40
0.0
  9
$DIMTM
 40
0.0
  9
$DIMTXT
 40
1.0
  9
$DIMCEN
 40
0.09
  9
$DIMTSZ
 40
0.0
  9
$DIMTOL
 70
     0
  9
$DIMLIM
 70
     0
  9
$DIMTIH
 70
     1
  9
$DIMTOH
 70
     1
  9
$DIMSE1
 70
     0
  9
$DIMSE2
 70
     0
  9
$DIMTAD
 70
     0
  9
$DIMZIN
 70
     0
  9
$DIMBLK
  1

  9
$DIMASO
 70
     1
  9
$DIMSHO
 70
     1
  9
$DIMPOST
  1

  9
$DIMAPOST
  1

  9
$DIMALT
 70
     0
  9
$DIMALTD
 70
     2
  9
$DIMALTF
 40
25.4
  9
$DIMLFAC
 40
1.0
  9
$DIMTOFL
 70
     0
  9
$DIMTVP
 40
0.0
  9
$DIMTIX
 70
     0
  9
$DIMSOXD
 70
     0
  9
$DIMSAH
 70
     0
  9
$DIMBLK1
  1

  9
$DIMBLK2
  1

  9
$DIMSTYLE
  2
Standard
  9
$DIMCLRD
 70
   178
  9
$DIMCLRE
 70
   178
  9
$DIMCLRT
 70
   178
  9
$DIMTFAC
 40
1.0
  9
$DIMGAP
 40
0.09
  9
$DIMJUST
 70
     0
  9
$DIMSD1
 70
     0
  9
$DIMSD2
 70
     0
  9
$DIMTOLJ
 70
     1
  9
$DIMTZIN
 70
     0
  9
$DIMALTZ
 70
     0
  9
$DIMALTTZ
 70
     0
  9
$DIMUPT
 70
     0
  9
$DIMDEC
 70
     2
  9
$DIMTDEC
 70
     4
  9
$DIMALTU
 70
     2
  9
$DIMALTTD
 70
     2
  9
$DIMTXSTY
  7
Standard
  9
$DIMAUNIT
 70
     0
  9
$DIMADEC
 70
     0
  9
$DIMALTRND
 40
0.0
  9
$DIMAZIN
 70
     0
  9
$DIMDSEP
 70
    46
  9
$DIMATFIT
 70
     3
  9
$DIMFRAC
 70
     0
  9
$DIMLDRBLK
  1

  9
$DIMLUNIT
 70
     2
  9
$DIMLWD
 70
    -2
  9
$DIMLWE
 70
    -2
  9
$DIMTMOVE
 70
     0
  9
$DIMFXL
 40
1.0
  9
$DIMFXLON
 70
     0
  9
$DIMJOGANG
 40
0.7853981633974483
  9
$DIMTFILL
 70
     0
  9
$DIMTFILLCLR
 70
     0
  9
$DIMARCSYM
 70
     0
  9
$DIMLTYPE
  6

  9
$DIMLTEX1
  6

  9
$DIMLTEX2
  6

  9
$DIMTXTDIRECTION
 70
     0
  9
$LUNITS
 70
     2
  9
$LUPREC
 70
     4
  9
$SKETCHINC
 40
0.1
  9
$FILLETRAD
 40
0.5
  9
$AUNITS
 70
     0
  9
$AUPREC
 70
     0
  9
$MENU
  1
.
  9
$ELEVATION
 40
0.0
  9
$PELEVATION
 40
0.0
  9
$THICKNESS
 40
0.0
  9
$LIMCHECK
 70
     0
  9
$CHAMFERA
 40
0.0
  9
$CHAMFERB
 40
0.0
  9
$CHAMFERC
 40
0.0
  9
$CHAMFERD
 40
0.0
  9
$SKPOLY
 70
     0
  9
$TDCREATE
 40
2457224.664004629
  9
$TDUCREATE
 40
2457224.955671296
  9
$TDUPDATE
 40
2457224.664004629
  9
$TDUUPDATE
 40
2457224.955671296
  9
$TDINDWG
 40
0.0000000116
  9
$TDUSRTIMER
 40
0.0000000116
  9
$USRTIMER
 70
     1
  9
$ANGBASE
 50
0.0
  9
$ANGDIR
 70
     0
  9
$PDMODE
 70
     0
  9
$PDSIZE
 40
0.0
  9
$PLINEWID
 40
0.0
  9
$SPLFRAME
 70
     0
  9
$SPLINETYPE
 70
     6
  9
$SPLINESEGS
 70
     8
  9
$HANDSEED
  5
376
  9
$SURFTAB1
 70
     6
  9
$SURFTAB2
 70
     6
  9
$SURFTYPE
 70
     6
  9
$SURFU
 70
     6
  9
$SURFV
 70
     6
  9
$UCSBASE
  2

  9
$UCSNAME
  2

  9
$UCSORG
 10
0.0
 20
0.0
 30
0.0
  9
$UCSXDIR
 10
1.0
 20
0.0
 30
0.0
  9
$UCSYDIR
 10
0.0
 20
1.0
 30
0.0
  9
$UCSORTHOREF
  2

  9
$UCSORTHOVIEW
 70
     0
  9
$UCSORGTOP
 10
0.0
 20
0.0
 30
0.0
  9
$UCSORGBOTTOM
 10
0.0
 20
0.0
 30
0.0
  9
$UCSORGLEFT
 10
0.0
 20
0.0
 30
0.0
  9
$UCSORGRIGHT
 10
0.0
 20
0.0
 30
0.0
  9
$UCSORGFRONT
 10
0.0
 20
0.0
 30
0.0
  9
$UCSORGBACK
 10
0.0
 20
0.0
 30
0.0
  9
$PUCSBASE
  2

  9
$PUCSNAME
  2

  9
$PUCSORG
 10
0.0
 20
0.0
 30
0.0
  9
$PUCSXDIR
 10
1.0
 20
0.0
 30
0.0
  9
$PUCSYDIR
 10
0.0
 20
1.0
 30
0.0
  9
$PUCSORTHOREF
  2

  9
$PUCSORTHOVIEW
 70
     0
  9
$PUCSORGTOP
 10
0.0
 20
0.0
 30
0.0
  9
$PUCSORGBOTTOM
 10
0.0
 20
0.0
 30
0.0
  9
$PUCSORGLEFT
 10
0.0
 20
0.0
 30
0.0
  9
$PUCSORGRIGHT
 10
0.0
 20
0.0
 30
0.0
  9
$PUCSORGFRONT
 10
0.0
 20
0.0
 30
0.0
  9
$PUCSORGBACK
 10
0.0
 20
0.0
 30
0.0
  9
$USERI1
 70
     0
  9
$USERI2
 70
     0
  9
$USERI3
 70
     0
  9
$USERI4
 70
     0
  9
$USERI5
 70
     0
  9
$USERR1
 40
0.0
  9
$USERR2
 40
0.0
  9
$USERR3
 40
0.0
  9
$USERR4
 40
0.0
  9
$USERR5
 40
0.0
  9
$WORLDVIEW
 70
     1
  9
$SHADEDGE
 70
     3
  9
$SHADEDIF
 70
    70
  9
$TILEMODE
 70
     1
  9
$MAXACTVP
 70
     2
  9
$PINSBASE
 10
0.0
 20
0.0
 30
0.0
  9
$PLIMCHECK
 70
     0
  9
$PEXTMIN
 10
1.000000000000000E+20
 20
1.000000000000000E+20
 30
1.000000000000000E+20
  9
$PEXTMAX
 10
-1.000000000000000E+20
 20
-1.000000000000000E+20
 30
-1.000000000000000E+20
  9
$PLIMMIN
 10
0.0
 20
0.0
  9
$PLIMMAX
 10
12.0
 20
9.0
  9
$UNITMODE
 70
     0
  9
$VISRETAIN
 70
     1
  9
$PLINEGEN
 70
     0
  9
$PSLTSCALE
 70
     1
  9
$TREEDEPTH
 70
  3020
  9
$CMLSTYLE
  2
Standard
  9
$CMLJUST
 70
     0
  9
$CMLSCALE
 40
1.0
  9
$PROXYGRAPHICS
 70
     1
  9
$MEASUREMENT
 70
     0
  9
$CELWEIGHT
370
    -1
  9
$ENDCAPS
280
     0
  9
$JOINSTYLE
280
     0
  9
$LWDISPLAY
290
     0
  9
$INSUNITS
 70
     1
  9
$HYPERLINKBASE
  1

  9
$STYLESHEET
  1

  9
$XEDIT
290
     1
  9
$CEPSNTYPE
380
     0
  9
$PSTYLEMODE
290
     1
  9
$FINGERPRINTGUID
  2
{2D68C8B3-0D0C-4604-094B-56036145DE95}
  9
$VERSIONGUID
  2
{FAEB1C32-E019-11D5-929B-00C0DF256EC4}
  9
$EXTNAMES
290
     1
  9
$PSVPSCALE
 40
0.0
  9
$OLESTARTUP
290
     0
  9
$SORTENTS
280
   127
  9
$INDEXCTL
280
     0
  9
$HIDETEXT
280
     1
  9
$XCLIPFRAME
280
     2
  9
$HALOGAP
280
     0
  9
$OBSCOLOR
 70
   257
  9
$OBSLTYPE
280
     0
  9
$INTERSECTIONDISPLAY
280
     0
  9
$INTERSECTIONCOLOR
 70
   257
  9
$DIMASSOC
280
     2
  9
$PROJECTNAME
  1

  9
$CAMERADISPLAY
290
     0
  9
$LENSLENGTH
 40
50.0
  9
$CAMERAHEIGHT
 40
0.0
  9
$STEPSPERSEC
 40
2.0
  9
$STEPSIZE
 40
6.0
  9
$3DDWFPREC
 40
2.0
  9
$PSOLWIDTH
 40
0.25
  9
$PSOLHEIGHT
 40
4.0
  9
$LOFTANG1
 40
1.570796326794897
  9
$LOFTANG2
 40
1.570796326794897
  9
$LOFTMAG1
 40
0.0
  9
$LOFTMAG2
 40
0.0
  9
$LOFTPARAM
 70
     7
  9
$LOFTNORMALS
280
     1
  9
$LATITUDE
 40
37.795
  9
$LONGITUDE
 40
-122.394
  9
$NORTHDIRECTION
 40
0.0
  9
$TIMEZONE
 70
 -8000
  9
$LIGHTGLYPHDISPLAY
280
     1
  9
$TILEMODELIGHTSYNCH
280
     1
  9
$CMATERIAL
347
214
  9
$SOLIDHIST
280
     0
  9
$SHOWHIST
280
     1
  9
$DWFFRAME
280
     2
  9
$DGNFRAME
280
     2
  9
$REALWORLDSCALE
290
     1
  9
$INTERFERECOLOR
 62
   256
  9
$CSHADOW
280
     0
  9
$SHADOWPLANELOCATION
 40
0.0
  0
ENDSEC
  0
SECTION
  2
CLASSES
  0
CLASS
  1
ACDBDICTIONARYWDFLT
  2
AcDbDictionaryWithDefault
  3
ObjectDBX Classes
 90
        0
 91
        4
280
     0
281
     0
  0
CLASS
  1
VISUALSTYLE
  2
AcDbVisualStyle
  3
ObjectDBX Classes
 90
     4095
 91
        4
280
     0
281
     0
  0
CLASS
  1
MATERIAL
  2
AcDbMaterial
  3
ObjectDBX Classes
 90
     1153
 91
        4
280
     0
281
     0
  0
CLASS
  1
SCALE
  2
AcDbScale
  3
ObjectDBX Classes
 90
     1153
 91
        4
280
     0
281
     0
  0
CLASS
  1
TABLESTYLE
  2
AcDbTableStyle
  3
ObjectDBX Classes
 90
     4095
 91
        4
280
     0
281
     0
  0
CLASS
  1
MLEADERSTYLE
  2
AcDbMLeaderStyle
  3
ACDB_MLEADERSTYLE_CLASS
 90
     4095
 91
        4
280
     0
281
     0
  0
CLASS
  1
SUN
  2
AcDbSun
  3
SCENEOE
 90
     1153
 91
        4
280
     0
281
     0
  0
CLASS
  1
DICTIONARYVAR
  2
AcDbDictionaryVar
  3
ObjectDBX Classes
 90
        0
 91
        4
280
     0
281
     0
  0
CLASS
  1
CELLSTYLEMAP
  2
AcDbCellStyleMap
  3
ObjectDBX Classes
 90
     1152
 91
        4
280
     0
281
     0
  0
ENDSEC
  0
SECTION
  2
TABLES
  0
TABLE
  2
VPORT
  5
1D9
330
0
100
AcDbSymbolTable
 70
     1
  0
VPORT
  5
1F9
330
1D9
100
AcDbSymbolTableRecord
100
AcDbViewportTableRecord
  2
*Active
 70
     0
 10
0.0
 20
0.0
 11
1.0
 21
1.0
 12
10.42990654205607
 22
4.5
 13
0.0
 23
0.0
 14
0.5
 24
0.5
 15
0.5
 25
0.5
 16
0.0
 26
0.0
 36
1.0
 17
0.0
 27
0.0
 37
0.0
 40
9.0
 41
1.972972972850329
 42
50.0
 43
0.0
 44
0.0
 50
0.0
 51
0.0
 71
     0
 72
   100
 73
     1
 74
     3
 75
     0
 76
     0
 77
     0
 78
     0
281
     0
 65
     1
110
0.0
120
0.0
130
0.0
111
1.0
121
0.0
131
0.0
112
0.0
122
1.0
132
0.0
 79
     0
146
0.0
 60
     3
 61
     5
292
     1
282
     1
141
0.0
142
0.0
 63
   250
361
23D
  0
ENDTAB
  0
TABLE
  2
LTYPE
  5
1D6
330
0
100
AcDbSymbolTable
 70
    48
  0
LTYPE
  5
1E4
330
1D6
100
AcDbSymbolTableRecord
100
AcDbLinetypeTableRecord
  2
ByBlock
 70
     0
  3

 72
    65
 73
     0
 40
0.0
  0
LTYPE
  5
1E5
330
1D6
100
AcDbSymbolTableRecord
100
AcDbLinetypeTableRecord
  2
ByLayer
 70
     0
  3

 72
    65
 73
     0
 40
0.0
  0
LTYPE
  5
1E6
330
1D6
100
AcDbSymbolTableRecord
100
AcDbLinetypeTableRecord
  2
Continuous
 70
     0
  3
Solid line
 72
    65
 73
     0
 40
0.0
  0
LTYPE
  5
276
330
1D6
100
AcDbSymbolTableRecord
100
AcDbLinetypeTableRecord
  2
ACAD_ISO02W100
 70
     0
  3
ISO dash __ __ __ __ __ __ __ __ __ __ __ __ __
 72
    65
 73
     2
 40
15.0
 49
12.0
 74
     0
 49
-3.0
 74
     0
  0
LTYPE
  5
277
330
1D6
100
AcDbSymbolTableRecord
100
AcDbLinetypeTableRecord
  2
ACAD_ISO03W100
 70
     0
  3
ISO dash space __    __    __    __    __    __
 72
    65
 73
     2
 40
30.0
 49
12.0
 74
     0
 49
-18.0
 74
     0
  0
LTYPE
  5
278
330
1D6
100
AcDbSymbolTableRecord
100
AcDbLinetypeTableRecord
  2
ACAD_ISO04W100
 70
     0
  3
ISO long-dash dot ____ . ____ . ____ . ____ . _
 72
    65
 73
     4
 40
30.0
 49
24.0
 74
     0
 49
-3.0
 74
     0
 49
0.0
 74
     0
 49
-3.0
 74
     0
  0
LTYPE
  5
279
330
1D6
100
AcDbSymbolTableRecord
100
AcDbLinetypeTableRecord
  2
ACAD_ISO05W100
 70
     0
  3
ISO long-dash double-dot ____ .. ____ .. ____ . 
 72
    65
 73
     6
 40
33.0
 49
24.0
 74
     0
 49
-3.0
 74
     0
 49
0.0
 74
     0
 49
-3.0
 74
     0
 49
0.0
 74
     0
 49
-3.0
 74
     0
  0
LTYPE
  5
27A
330
1D6
100
AcDbSymbolTableRecord
100
AcDbLinetypeTableRecord
  2
ACAD_ISO06W100
 70
     0
  3
ISO long-dash triple-dot ____ ... ____ ... ____
 72
    65
 73
     8
 40
36.0
 49
24.0
 74
     0
 49
-3.0
 74
     0
 49
0.0
 74
     0
 49
-3.0
 74
     0
 49
0.0
 74
     0
 49
-3.0
 74
     0
 49
0.0
 74
     0
 49
-3.0
 74
     0
  0
LTYPE
  5
27B
330
1D6
100
AcDbSymbolTableRecord
100
AcDbLinetypeTableRecord
  2
ACAD_ISO07W100
 70
     0
  3
ISO dot . . . . . . . . . . . . . . . . . . . . 
 72
    65
 73
     2
 40
3.0
 49
0.0
 74
     0
 49
-3.0
 74
     0
  0
LTYPE
  5
27C
330
1D6
100
AcDbSymbolTableRecord
100
AcDbLinetypeTableRecord
  2
ACAD_ISO08W100
 70
     0
  3
ISO long-dash short-dash ____ __ ____ __ ____ _
 72
    65
 73
     4
 40
36.0
 49
24.0
 74
     0
 49
-3.0
 74
     0
 49
6.0
 74
     0
 49
-3.0
 74
     0
  0
LTYPE
  5
27D
330
1D6
100
AcDbSymbolTableRecord
100
AcDbLinetypeTableRecord
  2
ACAD_ISO09W100
 70
     0
  3
ISO long-dash double-short-dash ____ __ __ ____
 72
    65
 73
     6
 40
45.0
 49
24.0
 74
     0
 49
-3.0
 74
     0
 49
6.0
 74
     0
 49
-3.0
 74
     0
 49
6.0
 74
     0
 49
-3.0
 74
     0
  0
LTYPE
  5
27E
330
1D6
100
AcDbSymbolTableRecord
100
AcDbLinetypeTableRecord
  2
ACAD_ISO10W100
 70
     0
  3
ISO dash dot __ . __ . __ . __ . __ . __ . __ . 
 72
    65
 73
     4
 40
18.0
 49
12.0
 74
     0
 49
-3.0
 74
     0
 49
0.0
 74
     0
 49
-3.0
 74
     0
  0
LTYPE
  5
27F
330
1D6
100
AcDbSymbolTableRecord
100
AcDbLinetypeTableRecord
  2
ACAD_ISO11W100
 70
     0
  3
ISO double-dash dot __ __ . __ __ . __ __ . __ _
 72
    65
 73
     6
 40
33.0
 49
12.0
 74
     0
 49
-3.0
 74
     0
 49
12.0
 74
     0
 49
-3.0
 74
     0
 49
0.0
 74
     0
 49
-3.0
 74
     0
  0
LTYPE
  5
280
330
1D6
100
AcDbSymbolTableRecord
100
AcDbLinetypeTableRecord
  2
ACAD_ISO12W100
 70
     0
  3
ISO dash double-dot __ . . __ . . __ . . __ . . 
 72
    65
 73
     6
 40
21.0
 49
12.0
 74
     0
 49
-3.0
 74
     0
 49
0.0
 74
     0
 49
-3.0
 74
     0
 49
0.0
 74
     0
 49
-3.0
 74
     0
  0
LTYPE
  5
281
330
1D6
100
AcDbSymbolTableRecord
100
AcDbLinetypeTableRecord
  2
ACAD_ISO13W100
 70
     0
  3
ISO double-dash double-dot __ __ . . __ __ . . _
 72
    65
 73
     8
 40
36.0
 49
12.0
 74
     0
 49
-3.0
 74
     0
 49
12.0
 74
     0
 49
-3.0
 74
     0
 49
0.0
 74
     0
 49
-3.0
 74
     0
 49
0.0
 74
     0
 49
-3.0
 74
     0
  0
LTYPE
  5
282
330
1D6
100
AcDbSymbolTableRecord
100
AcDbLinetypeTableRecord
  2
ACAD_ISO14W100
 70
     0
  3
ISO dash triple-dot __ . . . __ . . . __ . . . _
 72
    65
 73
     8
 40
24.0
 49
12.0
 74
     0
 49
-3.0
 74
     0
 49
0.0
 74
     0
 49
-3.0
 74
     0
 49
0.0
 74
     0
 49
-3.0
 74
     0
 49
0.0
 74
     0
 49
-3.0
 74
     0
  0
LTYPE
  5
283
330
1D6
100
AcDbSymbolTableRecord
100
AcDbLinetypeTableRecord
  2
ACAD_ISO15W100
 70
     0
  3
ISO double-dash triple-dot __ __ . . . __ __ . .
 72
    65
 73
    10
 40
39.0
 49
12.0
 74
     0
 49
-3.0
 74
     0
 49
12.0
 74
     0
 49
-3.0
 74
     0
 49
0.0
 74
     0
 49
-3.0
 74
     0
 49
0.0
 74
     0
 49
-3.0
 74
     0
 49
0.0
 74
     0
 49
-3.0
 74
     0
  0
LTYPE
  5
286
330
1D6
100
AcDbSymbolTableRecord
100
AcDbLinetypeTableRecord
  2
BATTING
 70
     0
  3
Batting SSSSSSSSSSSSSSSSSSSSSSSSSSSSSSSSSSSSSSSSSSSSSSS
 72
    65
 73
     4
 40
0.4001
 49
0.0001
 74
     0
 49
-0.1
 74
     2
 75
     0
340
284
 46
0.1
 50
0.0
 44
-0.1
 45
0.0
  9
BAT
 49
-0.2
 74
     2
 75
     0
340
285
 46
0.1
 50
180.0
 44
0.1
 45
0.0
  9
BAT
 49
-0.1
 74
     0
  0
LTYPE
  5
287
330
1D6
100
AcDbSymbolTableRecord
100
AcDbLinetypeTableRecord
  2
BORDER
 70
     0
  3
Border __ __ . __ __ . __ __ . __ __ . __ __ .
 72
    65
 73
     6
 40
1.75
 49
0.5
 74
     0
 49
-0.25
 74
     0
 49
0.5
 74
     0
 49
-0.25
 74
     0
 49
0.0
 74
     0
 49
-0.25
 74
     0
  0
LTYPE
  5
288
330
1D6
100
AcDbSymbolTableRecord
100
AcDbLinetypeTableRecord
  2
BORDER2
 70
     0
  3
Border (.5x) __.__.__.__.__.__.__.__.__.__.__.
 72
    65
 73
     6
 40
0.875
 49
0.25
 74
     0
 49
-0.125
 74
     0
 49
0.25
 74
     0
 49
-0.125
 74
     0
 49
0.0
 74
     0
 49
-0.125
 74
     0
  0
LTYPE
  5
289
330
1D6
100
AcDbSymbolTableRecord
100
AcDbLinetypeTableRecord
  2
BORDERX2
 70
     0
  3
Border (2x) ____  ____  .  ____  ____  .  ___
 72
    65
 73
     6
 40
3.5
 49
1.0
 74
     0
 49
-0.5
 74
     0
 49
1.0
 74
     0
 49
-0.5
 74
     0
 49
0.0
 74
     0
 49
-0.5
 74
     0
  0
LTYPE
  5
28A
330
1D6
100
AcDbSymbolTableRecord
100
AcDbLinetypeTableRecord
  2
CENTER
 70
     0
  3
Center ____ _ ____ _ ____ _ ____ _ ____ _ ____
 72
    65
 73
     4
 40
2.0
 49
1.25
 74
     0
 49
-0.25
 74
     0
 49
0.25
 74
     0
 49
-0.25
 74
     0
  0
LTYPE
  5
28B
330
1D6
100
AcDbSymbolTableRecord
100
AcDbLinetypeTableRecord
  2
CENTER2
 70
     0
  3
Center (.5x) ___ _ ___ _ ___ _ ___ _ ___ _ ___
 72
    65
 73
     4
 40
1.125
 49
0.75
 74
     0
 49
-0.125
 74
     0
 49
0.125
 74
     0
 49
-0.125
 74
     0
  0
LTYPE
  5
28C
330
1D6
100
AcDbSymbolTableRecord
100
AcDbLinetypeTableRecord
  2
CENTERX2
 70
     0
  3
Center (2x) ________  __  ________  __  _____
 72
    65
 73
     4
 40
4.0
 49
2.5
 74
     0
 49
-0.5
 74
     0
 49
0.5
 74
     0
 49
-0.5
 74
     0
  0
LTYPE
  5
28D
330
1D6
100
AcDbSymbolTableRecord
100
AcDbLinetypeTableRecord
  2
DASHDOT
 70
     0
  3
Dash dot __ . __ . __ . __ . __ . __ . __ . __
 72
    65
 73
     4
 40
1.0
 49
0.5
 74
     0
 49
-0.25
 74
     0
 49
0.0
 74
     0
 49
-0.25
 74
     0
  0
LTYPE
  5
28E
330
1D6
100
AcDbSymbolTableRecord
100
AcDbLinetypeTableRecord
  2
DASHDOT2
 70
     0
  3
Dash dot (.5x) _._._._._._._._._._._._._._._.
 72
    65
 73
     4
 40
0.5
 49
0.25
 74
     0
 49
-0.125
 74
     0
 49
0.0
 74
     0
 49
-0.125
 74
     0
  0
LTYPE
  5
28F
330
1D6
100
AcDbSymbolTableRecord
100
AcDbLinetypeTableRecord
  2
DASHDOTX2
 70
     0
  3
Dash dot (2x) ____  .  ____  .  ____  .  ___
 72
    65
 73
     4
 40
2.0
 49
1.0
 74
     0
 49
-0.5
 74
     0
 49
0.0
 74
     0
 49
-0.5
 74
     0
  0
LTYPE
  5
290
330
1D6
100
AcDbSymbolTableRecord
100
AcDbLinetypeTableRecord
  2
DASHED
 70
     0
  3
Dashed __ __ __ __ __ __ __ __ __ __ __ __ __ _
 72
    65
 73
     2
 40
0.75
 49
0.5
 74
     0
 49
-0.25
 74
     0
  0
LTYPE
  5
291
330
1D6
100
AcDbSymbolTableRecord
100
AcDbLinetypeTableRecord
  2
DASHED2
 70
     0
  3
Dashed (.5x) _ _ _ _ _ _ _ _ _ _ _ _ _ _ _ _ _ 
 72
    65
 73
     2
 40
0.375
 49
0.25
 74
     0
 49
-0.125
 74
     0
  0
LTYPE
  5
292
330
1D6
100
AcDbSymbolTableRecord
100
AcDbLinetypeTableRecord
  2
DASHEDX2
 70
     0
  3
Dashed (2x) ____  ____  ____  ____  ____  ___
 72
    65
 73
     2
 40
1.5
 49
1.0
 74
     0
 49
-0.5
 74
     0
  0
LTYPE
  5
293
330
1D6
100
AcDbSymbolTableRecord
100
AcDbLinetypeTableRecord
  2
DIVIDE
 70
     0
  3
Divide ____ . . ____ . . ____ . . ____ . . ____
 72
    65
 73
     6
 40
1.25
 49
0.5
 74
     0
 49
-0.25
 74
     0
 49
0.0
 74
     0
 49
-0.25
 74
     0
 49
0.0
 74
     0
 49
-0.25
 74
     0
  0
LTYPE
  5
294
330
1D6
100
AcDbSymbolTableRecord
100
AcDbLinetypeTableRecord
  2
DIVIDE2
 70
     0
  3
Divide (.5x) __..__..__..__..__..__..__..__.._
 72
    65
 73
     6
 40
0.625
 49
0.25
 74
     0
 49
-0.125
 74
     0
 49
0.0
 74
     0
 49
-0.125
 74
     0
 49
0.0
 74
     0
 49
-0.125
 74
     0
  0
LTYPE
  5
295
330
1D6
100
AcDbSymbolTableRecord
100
AcDbLinetypeTableRecord
  2
DIVIDEX2
 70
     0
  3
Divide (2x) ________  .  .  ________  .  .  _
 72
    65
 73
     6
 40
2.5
 49
1.0
 74
     0
 49
-0.5
 74
     0
 49
0.0
 74
     0
 49
-0.5
 74
     0
 49
0.0
 74
     0
 49
-0.5
 74
     0
  0
LTYPE
  5
296
330
1D6
100
AcDbSymbolTableRecord
100
AcDbLinetypeTableRecord
  2
DOT
 70
     0
  3
Dot . . . . . . . . . . . . . . . . . . . . . . . .
 72
    65
 73
     2
 40
0.25
 49
0.0
 74
     0
 49
-0.25
 74
     0
  0
LTYPE
  5
297
330
1D6
100
AcDbSymbolTableRecord
100
AcDbLinetypeTableRecord
  2
DOT2
 70
     0
  3
Dot (.5x) ........................................
 72
    65
 73
     2
 40
0.125
 49
0.0
 74
     0
 49
-0.125
 74
     0
  0
LTYPE
  5
298
330
1D6
100
AcDbSymbolTableRecord
100
AcDbLinetypeTableRecord
  2
DOTX2
 70
     0
  3
Dot (2x) .  .  .  .  .  .  .  .  .  .  .  .  .  .
 72
    65
 73
     2
 40
0.5
 49
0.0
 74
     0
 49
-0.5
 74
     0
  0
LTYPE
  5
29A
330
1D6
100
AcDbSymbolTableRecord
100
AcDbLinetypeTableRecord
  2
DRAINAGE
 70
     0
  3
Drainage ---->---->---->----
 72
    65
 73
     2
 40
0.4
 49
0.2
 74
     2
 75
     0
340
299
 46
0.2
 50
180.0
 44
0.0
 45
0.0
  9
RIGHT_ARROW
 49
0.2
 74
     0
  0
LTYPE
  5
29C
330
1D6
100
AcDbSymbolTableRecord
100
AcDbLinetypeTableRecord
  2
DRAINAGE2
 70
     0
  3
Drainage reversed ----<----<----<----
 72
    65
 73
     2
 40
0.4
 49
0.2
 74
     2
 75
     0
340
29B
 46
0.2
 50
0.0
 44
0.0
 45
0.0
  9
RIGHT_ARROW
 49
0.2
 74
     0
  0
LTYPE
  5
29E
330
1D6
100
AcDbSymbolTableRecord
100
AcDbLinetypeTableRecord
  2
FENCELINE1
 70
     0
  3
Fenceline circle ----0-----0----0-----0----0-----0--
 72
    65
 73
     4
 40
1.45
 49
0.25
 74
     0
 49
-0.1
 74
     2
 75
     0
340
29D
 46
0.1
 50
0.0
 44
-0.1
 45
0.0
  9
CIRC1
 49
-0.1
 74
     0
 49
1.0
 74
     0
  0
LTYPE
  5
2A0
330
1D6
100
AcDbSymbolTableRecord
100
AcDbLinetypeTableRecord
  2
FENCELINE2
 70
     0
  3
Fenceline square ----[]-----[]----[]-----[]----[]---
 72
    65
 73
     4
 40
1.45
 49
0.25
 74
     0
 49
-0.1
 74
     2
 75
     0
340
29F
 46
0.1
 50
0.0
 44
-0.1
 45
0.0
  9
BOX
 49
-0.1
 74
     0
 49
1.0
 74
     0
  0
LTYPE
  5
2A2
330
1D6
100
AcDbSymbolTableRecord
100
AcDbLinetypeTableRecord
  2
GAS_LINE
 70
     0
  3
Gas line ----GAS----GAS----GAS----GAS----GAS----GAS--
 72
    65
 73
     3
 40
0.95
 49
0.5
 74
     0
 49
-0.2
 74
     2
 75
     0
340
2A1
 46
0.1
 50
0.0
 44
-0.1
 45
-0.05
  9
GAS
 49
-0.25
 74
     0
  0
LTYPE
  5
2A3
330
1D6
100
AcDbSymbolTableRecord
100
AcDbLinetypeTableRecord
  2
HIDDEN
 70
     0
  3
Hidden __ __ __ __ __ __ __ __ __ __ __ __ __ __
 72
    65
 73
     2
 40
0.375
 49
0.25
 74
     0
 49
-0.125
 74
     0
  0
LTYPE
  5
2A4
330
1D6
100
AcDbSymbolTableRecord
100
AcDbLinetypeTableRecord
  2
HIDDEN2
 70
     0
  3
Hidden (.5x) _ _ _ _ _ _ _ _ _ _ _ _ _ _ _ _ _ 
 72
    65
 73
     2
 40
0.1875
 49
0.125
 74
     0
 49
-0.0625
 74
     0
  0
LTYPE
  5
2A5
330
1D6
100
AcDbSymbolTableRecord
100
AcDbLinetypeTableRecord
  2
HIDDENX2
 70
     0
  3
Hidden (2x) ____ ____ ____ ____ ____ ____ ____ 
 72
    65
 73
     2
 40
0.75
 49
0.5
 74
     0
 49
-0.25
 74
     0
  0
LTYPE
  5
2A7
330
1D6
100
AcDbSymbolTableRecord
100
AcDbLinetypeTableRecord
  2
HOT_WATER_SUPPLY
 70
     0
  3
Hot water supply ---- HW ---- HW ---- HW ----
 72
    65
 73
     3
 40
0.8999999999999999
 49
0.5
 74
     0
 49
-0.2
 74
     2
 75
     0
340
2A6
 46
0.1
 50
0.0
 44
-0.1
 45
-0.05
  9
HW
 49
-0.2
 74
     0
  0
LTYPE
  5
2A8
330
1D6
100
AcDbSymbolTableRecord
100
AcDbLinetypeTableRecord
  2
PHANTOM
 70
     0
  3
Phantom ______  __  __  ______  __  __  ______ 
 72
    65
 73
     6
 40
2.5
 49
1.25
 74
     0
 49
-0.25
 74
     0
 49
0.25
 74
     0
 49
-0.25
 74
     0
 49
0.25
 74
     0
 49
-0.25
 74
     0
  0
LTYPE
  5
2A9
330
1D6
100
AcDbSymbolTableRecord
100
AcDbLinetypeTableRecord
  2
PHANTOM2
 70
     0
  3
Phantom (.5x) ___ _ _ ___ _ _ ___ _ _ ___ _ _
 72
    65
 73
     6
 40
1.25
 49
0.625
 74
     0
 49
-0.125
 74
     0
 49
0.125
 74
     0
 49
-0.125
 74
     0
 49
0.125
 74
     0
 49
-0.125
 74
     0
  0
LTYPE
  5
2AA
330
1D6
100
AcDbSymbolTableRecord
100
AcDbLinetypeTableRecord
  2
PHANTOMX2
 70
     0
  3
Phantom (2x) ____________    ____    ____   _
 72
    65
 73
     6
 40
5.0
 49
2.5
 74
     0
 49
-0.5
 74
     0
 49
0.5
 74
     0
 49
-0.5
 74
     0
 49
0.5
 74
     0
 49
-0.5
 74
     0
  0
LTYPE
  5
2AC
330
1D6
100
AcDbSymbolTableRecord
100
AcDbLinetypeTableRecord
  2
TRACKS
 70
     0
  3
Tracks -|-|-|-|-|-|-|-|-|-|-|-|-|-|-|-|-|-|-|-|-|-|-|-|-
 72
    65
 73
     2
 40
0.3
 49
0.15
 74
     2
 75
     0
340
2AB
 46
0.25
 50
0.0
 44
0.0
 45
0.0
  9
TRACK1
 49
0.15
 74
     0
  0
LTYPE
  5
2AF
330
1D6
100
AcDbSymbolTableRecord
100
AcDbLinetypeTableRecord
  2
ZIGZAG
 70
     0
  3
Zig zag /\/\/\/\/\/\/\/\/\/\/\/\/\/\/\/\/\/\/\/\/\/\/\/
 72
    65
 73
     4
 40
0.8001
 49
0.0001
 74
     0
 49
-0.2
 74
     2
 75
     0
340
2AD
 46
0.2
 50
0.0
 44
-0.2
 45
0.0
  9
ZIG
 49
-0.4
 74
     2
 75
     0
340
2AE
 46
0.2
 50
180.0
 44
0.2
 45
0.0
  9
ZIG
 49
-0.2
 74
     0
  0
ENDTAB
  0
TABLE
  2
LAYER
  5
1D3
330
0
100
AcDbSymbolTable
 70
     8
  0
LAYER
  5
1E1
330
1D3
100
AcDbSymbolTableRecord
100
AcDbLayerTableRecord
  2
0
 70
     0
 62
     7
420
 16777215
  6
Continuous
370
    -3
390
1E0
347
216
348
0
  0
LAYER
  5
2B0
330
1D3
100
AcDbSymbolTableRecord
100
AcDbLayerTableRecord
  2
Corner Reinforcement Cut Size
 70
     0
 62
    30
420
 16744192
  6
Continuous
370
    -3
390
1E0
347
216
348
0
  0
LAYER
  5
2B1
330
1D3
100
AcDbSymbolTableRecord
100
AcDbLayerTableRecord
  2
Finished Bag
 70
     0
 62
     3
420
    65280
  6
Continuous
370
    -3
390
1E0
347
216
348
0
  0
LAYER
  5
2B2
330
1D3
100
AcDbSymbolTableRecord
100
AcDbLayerTableRecord
  2
Bag Cut Size
 70
     0
 62
     6
420
 16711935
  6
Continuous
370
    -3
390
1E0
347
216
348
0
  0
LAYER
  5
2B3
330
1D3
100
AcDbSymbolTableRecord
100
AcDbLayerTableRecord
  2
Dimensions
 70
     0
 62
     4
420
    65535
  6
Continuous
370
    -3
390
1E0
347
216
348
0
  0
LAYER
  5
2B4
330
1D3
100
AcDbSymbolTableRecord
100
AcDbLayerTableRecord
  2
Finished Hammock
 70
     0
 62
     5
420
      255
  6
Continuous
370
    -3
390
1E0
347
216
348
0
  0
LAYER
  5
2B5
330
1D3
100
AcDbSymbolTableRecord
100
AcDbLayerTableRecord
  2
Panel Cut Size
 70
     0
 62
     1
420
 16711680
  6
Continuous
370
    -3
390
1E0
347
216
348
0
  0
LAYER
  5
2B6
330
1D3
100
AcDbSymbolTableRecord
100
AcDbLayerTableRecord
  2
Defpoints
 70
     0
 62
     7
  6
Continuous
290
     0
370
    -3
390
1E0
347
216
348
0
  0
ENDTAB
  0
TABLE
  2
STYLE
  5
1D4
330
0
100
AcDbSymbolTable
 70
    14
  0
STYLE
  5
1E2
330
1D4
100
AcDbSymbolTableRecord
100
AcDbTextStyleTableRecord
  2
Standard
 70
     0
 40
0.0
 41
1.0
 50
0.0
 71
     0
 42
0.2
  3
txt
  4

  0
STYLE
  5
284
330
1D4
100
AcDbSymbolTableRecord
100
AcDbTextStyleTableRecord
  2
textstyle0
 70
     0
 40
0.0
 41
1.0
 50
0.0
 71
     0
 42
0.2
  3
ltypeshp.shx
  4

  0
STYLE
  5
285
330
1D4
100
AcDbSymbolTableRecord
100
AcDbTextStyleTableRecord
  2
textstyle1
 70
     0
 40
0.0
 41
1.0
 50
0.0
 71
     0
 42
0.2
  3
ltypeshp.shx
  4

  0
STYLE
  5
299
330
1D4
100
AcDbSymbolTableRecord
100
AcDbTextStyleTableRecord
  2
textstyle2
 70
     0
 40
0.0
 41
1.0
 50
0.0
 71
     0
 42
0.2
  3
qcadshp.shx
  4

  0
STYLE
  5
29B
330
1D4
100
AcDbSymbolTableRecord
100
AcDbTextStyleTableRecord
  2
textstyle3
 70
     0
 40
0.0
 41
1.0
 50
0.0
 71
     0
 42
0.2
  3
qcadshp.shx
  4

  0
STYLE
  5
29D
330
1D4
100
AcDbSymbolTableRecord
100
AcDbTextStyleTableRecord
  2
textstyle4
 70
     0
 40
0.0
 41
1.0
 50
0.0
 71
     0
 42
0.2
  3
ltypeshp.shx
  4

  0
STYLE
  5
29F
330
1D4
100
AcDbSymbolTableRecord
100
AcDbTextStyleTableRecord
  2
textstyle5
 70
     0
 40
0.0
 41
1.0
 50
0.0
 71
     0
 42
0.2
  3
ltypeshp.shx
  4

  0
STYLE
  5
2A1
330
1D4
100
AcDbSymbolTableRecord
100
AcDbTextStyleTableRecord
  2
textstyle6
 70
     0
 40
0.0
 41
1.0
 50
0.0
 71
     0
 42
0.2
  3
STANDARD
  4

  0
STYLE
  5
2A6
330
1D4
100
AcDbSymbolTableRecord
100
AcDbTextStyleTableRecord
  2
textstyle7
 70
     0
 40
0.0
 41
1.0
 50
0.0
 71
     0
 42
0.2
  3
STANDARD
  4

  0
STYLE
  5
2AB
330
1D4
100
AcDbSymbolTableRecord
100
AcDbTextStyleTableRecord
  2
textstyle8
 70
     0
 40
0.0
 41
1.0
 50
0.0
 71
     0
 42
0.2
  3
ltypeshp.shx
  4

  0
STYLE
  5
2AD
330
1D4
100
AcDbSymbolTableRecord
100
AcDbTextStyleTableRecord
  2
textstyle9
 70
     0
 40
0.0
 41
1.0
 50
0.0
 71
     0
 42
0.2
  3
ltypeshp.shx
  4

  0
STYLE
  5
2AE
330
1D4
100
AcDbSymbolTableRecord
100
AcDbTextStyleTableRecord
  2
textstyle10
 70
     0
 40
0.0
 41
1.0
 50
0.0
 71
     0
 42
0.2
  3
ltypeshp.shx
  4

  0
STYLE
  5
36B
330
1D4
100
AcDbSymbolTableRecord
100
AcDbTextStyleTableRecord
  2
textstyle11
 70
     0
 40
0.0
 41
1.0
 50
0.0
 71
     0
 42
0.2
  3
Standard
  4

1001
ACAD
1000
Standard
1071
        0
  0
STYLE
  5
36C
330
1D4
100
AcDbSymbolTableRecord
100
AcDbTextStyleTableRecord
  2
textstyle12
 70
     0
 40
0.0
 41
1.0
 50
0.0
 71
     0
 42
0.2
  3
Standard
  4

1001
ACAD
1000
Standard
1071
        0
  0
ENDTAB
  0
TABLE
  2
VIEW
  5
1D7
330
0
100
AcDbSymbolTable
 70
     0
  0
ENDTAB
  0
TABLE
  2
UCS
  5
1D8
330
0
100
AcDbSymbolTable
 70
     0
  0
ENDTAB
  0
TABLE
  2
APPID
  5
1DA
330
0
100
AcDbSymbolTable
 70
     2
  0
APPID
  5
1E3
330
1DA
100
AcDbSymbolTableRecord
100
AcDbRegAppTableRecord
  2
ACAD
 70
     0
  0
APPID
  5
23E
330
1DA
100
AcDbSymbolTableRecord
100
AcDbRegAppTableRecord
  2
QCAD
 70
     0
  0
ENDTAB
  0
TABLE
  2
DIMSTYLE
  5
1DB
330
0
100
AcDbSymbolTable
 70
     2
100
AcDbDimStyleTable
  0
DIMSTYLE
105
1F7
330
1DB
100
AcDbSymbolTableRecord
100
AcDbDimStyleTableRecord
  2
Standard
 70
     0
178
     0
340
1E2
  0
DIMSTYLE
105
275
102
{ACAD_REACTORS
330
1BF
330
1C0
330
1C1
330
1C2
330
1C3
330
1C5
330
1C6
330
1C7
330
1C8
330
1C9
330
1CA
330
1CB
330
1CC
330
1CD
330
1CE
102
}
330
1DB
100
AcDbSymbolTableRecord
100
AcDbDimStyleTableRecord
  2
QCADDimStyle
 70
     0
 73
     0
 77
     1
140
1.0
178
     0
340
1E2
  0
ENDTAB
  0
TABLE
  2
BLOCK_RECORD
  5
1D2
330
0
100
AcDbSymbolTable
 70
    16
  0
BLOCK_RECORD
  5
1EF
330
1D2
100
AcDbSymbolTableRecord
100
AcDbBlockTableRecord
  2
*Model_Space
340
1F2
 70
     0
280
     1
281
     0
  0
BLOCK_RECORD
  5
1EB
330
1D2
100
AcDbSymbolTableRecord
100
AcDbBlockTableRecord
  2
*Paper_Space
340
1EE
 70
     0
280
     1
281
     0
  0
BLOCK_RECORD
  5
1F3
330
1D2
100
AcDbSymbolTableRecord
100
AcDbBlockTableRecord
  2
*Paper_Space0
340
1F6
 70
     0
280
     1
281
     0
  0
BLOCK_RECORD
  5
2B7
330
1D2
100
AcDbSymbolTableRecord
100
AcDbBlockTableRecord
  2
*D1
340
0
 70
     0
280
     1
281
     0
  0
BLOCK_RECORD
  5
2C3
330
1D2
100
AcDbSymbolTableRecord
100
AcDbBlockTableRecord
  2
*D2
340
0
 70
     0
280
     1
281
     0
  0
BLOCK_RECORD
  5
2CF
330
1D2
100
AcDbSymbolTableRecord
100
AcDbBlockTableRecord
  2
*D3
340
0
 70
     0
280
     1
281
     0
  0
BLOCK_RECORD
  5
2DB
330
1D2
100
AcDbSymbolTableRecord
100
AcDbBlockTableRecord
  2
*D4
340
0
 70
     0
280
     1
281
     0
  0
BLOCK_RECORD
  5
2E7
330
1D2
100
AcDbSymbolTableRecord
100
AcDbBlockTableRecord
  2
*D5
340
0
 70
     0
280
     1
281
     0
  0
BLOCK_RECORD
  5
2F3
330
1D2
100
AcDbSymbolTableRecord
100
AcDbBlockTableRecord
  2
*D6
340
0
 70
     0
280
     1
281
     0
  0
BLOCK_RECORD
  5
2FF
330
1D2
100
AcDbSymbolTableRecord
100
AcDbBlockTableRecord
  2
*D7
340
0
 70
     0
280
     1
281
     0
  0
BLOCK_RECORD
  5
30B
330
1D2
100
AcDbSymbolTableRecord
100
AcDbBlockTableRecord
  2
*D8
340
0
 70
     0
280
     1
281
     0
  0
BLOCK_RECORD
  5
317
330
1D2
100
AcDbSymbolTableRecord
100
AcDbBlockTableRecord
  2
*D9
340
0
 70
     0
280
     1
281
     0
  0
BLOCK_RECORD
  5
323
330
1D2
100
AcDbSymbolTableRecord
100
AcDbBlockTableRecord
  2
*D10
340
0
 70
     0
280
     1
281
     0
  0
BLOCK_RECORD
  5
32F
330
1D2
100
AcDbSymbolTableRecord
100
AcDbBlockTableRecord
  2
*D11
340
0
 70
     0
280
     1
281
     0
  0
BLOCK_RECORD
  5
33B
330
1D2
100
AcDbSymbolTableRecord
100
AcDbBlockTableRecord
  2
*D12
340
0
 70
     0
280
     1
281
     0
  0
BLOCK_RECORD
  5
347
330
1D2
100
AcDbSymbolTableRecord
100
AcDbBlockTableRecord
  2
*D13
340
0
 70
     0
280
     1
281
     0
  0
BLOCK_RECORD
  5
353
330
1D2
100
AcDbSymbolTableRecord
100
AcDbBlockTableRecord
  2
*D14
340
0
 70
     0
280
     1
281
     0
  0
BLOCK_RECORD
  5
35F
330
1D2
100
AcDbSymbolTableRecord
100
AcDbBlockTableRecord
  2
*D15
340
0
 70
     0
280
     1
281
     0
  0
ENDTAB
  0
ENDSEC
  0
SECTION
  2
BLOCKS
  0
BLOCK
  5
1F0
330
1EF
100
AcDbEntity
  8
0
100
AcDbBlockBegin
  2
*Model_Space
 70
     0
 10
0.0
 20
0.0
 30
0.0
  3
*Model_Space
  1
*Model_Space
  0
ENDBLK
  5
1F1
330
1EF
100
AcDbEntity
  8
0
100
AcDbBlockEnd
  0
BLOCK
  5
1EC
330
1EB
100
AcDbEntity
 67
     1
  8
0
100
AcDbBlockBegin
  2
*Paper_Space
 70
     0
 10
0.0
 20
0.0
 30
0.0
  3
*Paper_Space
  1
*Paper_Space
  0
ENDBLK
  5
1ED
330
1EB
100
AcDbEntity
 67
     1
  8
0
100
AcDbBlockEnd
  0
BLOCK
  5
1F4
330
1F3
100
AcDbEntity
  8
0
100
AcDbBlockBegin
  2
*Paper_Space0
 70
     0
 10
0.0
 20
0.0
 30
0.0
  3
*Paper_Space0
  1
*Paper_Space0
  0
ENDBLK
  5
1F5
330
1F3
100
AcDbEntity
  8
0
100
AcDbBlockEnd
  0
BLOCK
  5
2B8
330
2B7
100
AcDbEntity
  8
0
100
AcDbBlockBegin
  2
*D1
 70
     1
 10
0.0
 20
0.0
 30
0.0
  3
*D1
  1
*D1
  0
LINE
  5
2BA
330
2B7
100
AcDbEntity
  8
Dimensions
 62
     0
370
    -2
100
AcDbLine
 10
3.137694315016172
 20
163.5624971
 30
0.0
 11
3.137694315016172
 21
166.18
 31
0.0
  0
LINE
  5
2BB
330
2B7
100
AcDbEntity
  8
Dimensions
 62
     0
370
    -2
100
AcDbLine
 10
0.0
 20
162.7291638
 30
0.0
 11
0.0
 21
166.18
 31
0.0
  0
LINE
  5
2BC
330
2B7
100
AcDbEntity
  8
Dimensions
 62
     0
370
    -2
100
AcDbLine
 10
2.957694315016171
 20
166.0
 30
0.0
 11
0.18
 21
166.0
 31
0.0
  0
SOLID
  5
2BD
330
2B7
100
AcDbEntity
  8
Dimensions
 62
     0
100
AcDbTrace
 10
2.957694315016171
 20
165.97
 30
0.0
 11
2.957694315016171
 21
166.03
 31
0.0
 12
3.137694315016172
 22
166.0
 32
0.0
 13
3.137694315016172
 23
166.0
 33
0.0
  0
SOLID
  5
2BE
330
2B7
100
AcDbEntity
  8
Dimensions
 62
     0
100
AcDbTrace
 10
0.18
 20
166.03
 30
0.0
 11
0.18
 21
165.97
 31
0.0
 12
0.0
 22
166.0
 32
0.0
 13
0.0
 23
166.0
 33
0.0
  0
MTEXT
  5
2BF
330
2B7
100
AcDbEntity
  8
Dimensions
 62
     0
100
AcDbMText
 10
1.568847157508086
 20
166.815
 30
0.0
 40
1.0
 41
0.0
 46
0.0
 71
     5
 72
     1
  1
\A1;3.14
 73
     1
 44
1.0
  0
POINT
  5
2C0
330
2B7
100
AcDbEntity
  8
Defpoints
 62
     0
100
AcDbPoint
 10
3.137694315016172
 20
163.4999971
 30
0.0
  0
POINT
  5
2C1
330
2B7
100
AcDbEntity
  8
Defpoints
 62
     0
100
AcDbPoint
 10
0.0
 20
162.6666638
 30
0.0
  0
POINT
  5
2C2
330
2B7
100
AcDbEntity
  8
Defpoints
 62
     0
100
AcDbPoint
 10
0.0
 20
166.0
 30
0.0
  0
ENDBLK
  5
2B9
330
2B7
100
AcDbEntity
  8
0
100
AcDbBlockEnd
  0
BLOCK
  5
2C4
330
2C3
100
AcDbEntity
  8
0
100
AcDbBlockBegin
  2
*D2
 70
     1
 10
0.0
 20
0.0
 30
0.0
  3
*D2
  1
*D2
  0
LINE
  5
2C6
330
2C3
100
AcDbEntity
  8
Dimensions
 62
     0
370
    -2
100
AcDbLine
 10
0.0
 20
162.7291638
 30
0.0
 11
0.0
 21
169.18
 31
0.0
  0
LINE
  5
2C7
330
2C3
100
AcDbEntity
  8
Dimensions
 62
     0
370
    -2
100
AcDbLine
 10
6.673228079527599
 20
163.5624971
 30
0.0
 11
6.673228079527599
 21
169.18
 31
0.0
  0
LINE
  5
2C8
330
2C3
100
AcDbEntity
  8
Dimensions
 62
     0
370
    -2
100
AcDbLine
 10
0.18
 20
169.0
 30
0.0
 11
6.493228079527599
 21
169.0
 31
0.0
  0
SOLID
  5
2C9
330
2C3
100
AcDbEntity
  8
Dimensions
 62
     0
100
AcDbTrace
 10
0.18
 20
169.03
 30
0.0
 11
0.18
 21
168.97
 31
0.0
 12
0.0
 22
169.0
 32
0.0
 13
0.0
 23
169.0
 33
0.0
  0
SOLID
  5
2CA
330
2C3
100
AcDbEntity
  8
Dimensions
 62
     0
100
AcDbTrace
 10
6.493228079527599
 20
168.97
 30
0.0
 11
6.493228079527599
 21
169.03
 31
0.0
 12
6.673228079527599
 22
169.0
 32
0.0
 13
6.673228079527599
 23
169.0
 33
0.0
  0
MTEXT
  5
2CB
330
2C3
100
AcDbEntity
  8
Dimensions
 62
     0
100
AcDbMText
 10
3.336614039763799
 20
169.59
 30
0.0
 40
1.0
 41
0.0
 46
0.0
 71
     5
 72
     1
  1
\A1;6.67
 73
     1
 44
1.0
  0
POINT
  5
2CC
330
2C3
100
AcDbEntity
  8
Defpoints
 62
     0
100
AcDbPoint
 10
0.0
 20
162.6666638
 30
0.0
  0
POINT
  5
2CD
330
2C3
100
AcDbEntity
  8
Defpoints
 62
     0
100
AcDbPoint
 10
6.673228079527599
 20
163.4999971
 30
0.0
  0
POINT
  5
2CE
330
2C3
100
AcDbEntity
  8
Defpoints
 62
     0
100
AcDbPoint
 10
6.673228079527599
 20
169.0
 30
0.0
  0
ENDBLK
  5
2C5
330
2C3
100
AcDbEntity
  8
0
100
AcDbBlockEnd
  0
BLOCK
  5
2D0
330
2CF
100
AcDbEntity
  8
0
100
AcDbBlockBegin
  2
*D3
 70
     1
 10
0.0
 20
0.0
 30
0.0
  3
*D3
  1
*D3
  0
LINE
  5
2D2
330
2CF
100
AcDbEntity
  8
Dimensions
 62
     0
370
    -2
100
AcDbLine
 10
1.524652983683914
 20
161.8869557686677
 30
0.0
 11
-3.537688559494667
 21
156.8246142254894
 31
0.0
  0
LINE
  5
2D3
330
2CF
100
AcDbEntity
  8
Dimensions
 62
     0
370
    -2
100
AcDbLine
 10
3.292419865939606
 20
160.119188886412
 30
0.0
 11
-1.769921677238975
 21
155.0568473432336
 31
0.0
  0
LINE
  5
2D4
330
2CF
100
AcDbEntity
  8
Dimensions
 62
     0
370
    -2
100
AcDbLine
 10
-3.28313011826751
 20
156.8246142254894
 30
0.0
 11
-1.769921677238968
 21
155.3114057844608
 31
0.0
  0
SOLID
  5
2D5
330
2CF
100
AcDbEntity
  8
Dimensions
 62
     0
100
AcDbTrace
 10
-3.261916914831913
 20
156.845827428925
 30
0.0
 11
-3.304343321703108
 21
156.8034010220538
 31
0.0
 12
-3.410409338881085
 22
156.951893446103
 32
0.0
 13
-3.410409338881085
 23
156.951893446103
 33
0.0
  0
SOLID
  5
2D6
330
2CF
100
AcDbEntity
  8
Dimensions
 62
     0
100
AcDbTrace
 10
-1.791134880674565
 20
155.2901925810252
 30
0.0
 11
-1.748708473803371
 21
155.3326189878964
 31
0.0
 12
-1.642642456625393
 22
155.1841265638472
 32
0.0
 13
-1.642642456625393
 23
155.1841265638472
 33
0.0
  0
MTEXT
  5
2D7
330
2CF
100
AcDbEntity
  8
Dimensions
 62
     0
100
AcDbMText
 10
-3.809924705606857
 20
154.7846111971216
 30
0.0
 40
1.0
 41
0.0
 46
0.0
 71
     5
 72
     1
  1
\A1;2.50
 73
     1
 44
1.0
  0
POINT
  5
2D8
330
2CF
100
AcDbEntity
  8
Defpoints
 62
     0
100
AcDbPoint
 10
1.568847157508074
 20
161.9311499424919
 30
0.0
  0
POINT
  5
2D9
330
2CF
100
AcDbEntity
  8
Defpoints
 62
     0
100
AcDbPoint
 10
3.336614039763766
 20
160.1633830602361
 30
0.0
  0
POINT
  5
2DA
330
2CF
100
AcDbEntity
  8
Defpoints
 62
     0
100
AcDbPoint
 10
-1.642642456625393
 20
155.1841265638472
 30
0.0
  0
ENDBLK
  5
2D1
330
2CF
100
AcDbEntity
  8
0
100
AcDbBlockEnd
  0
BLOCK
  5
2DC
330
2DB
100
AcDbEntity
  8
0
100
AcDbBlockBegin
  2
*D4
 70
     1
 10
0.0
 20
0.0
 30
0.0
  3
*D4
  1
*D4
  0
LINE
  5
2DE
330
2DB
100
AcDbEntity
  8
Dimensions
 62
     0
370
    -2
100
AcDbLine
 10
58.33333099999998
 20
163.5624971
 30
0.0
 11
58.33333099999998
 21
172.18
 31
0.0
  0
LINE
  5
2DF
330
2DB
100
AcDbEntity
  8
Dimensions
 62
     0
370
    -2
100
AcDbLine
 10
0.0
 20
162.7291638
 30
0.0
 11
0.0
 21
172.18
 31
0.0
  0
LINE
  5
2E0
330
2DB
100
AcDbEntity
  8
Dimensions
 62
     0
370
    -2
100
AcDbLine
 10
58.15333099999998
 20
172.0
 30
0.0
 11
0.18
 21
172.0
 31
0.0
  0
SOLID
  5
2E1
330
2DB
100
AcDbEntity
  8
Dimensions
 62
     0
100
AcDbTrace
 10
58.15333099999998
 20
171.97
 30
0.0
 11
58.15333099999998
 21
172.03
 31
0.0
 12
58.33333099999998
 22
172.0
 32
0.0
 13
58.33333099999998
 23
172.0
 33
0.0
  0
SOLID
  5
2E2
330
2DB
100
AcDbEntity
  8
Dimensions
 62
     0
100
AcDbTrace
 10
0.18
 20
172.03
 30
0.0
 11
0.18
 21
171.97
 31
0.0
 12
0.0
 22
172.0
 32
0.0
 13
0.0
 23
172.0
 33
0.0
  0
MTEXT
  5
2E3
330
2DB
100
AcDbEntity
  8
Dimensions
 62
     0
100
AcDbMText
 10
29.16666549999999
 20
172.59
 30
0.0
 40
1.0
 41
0.0
 46
0.0
 71
     5
 72
     1
  1
\A1;58.33
 73
     1
 44
1.0
  0
POINT
  5
2E4
330
2DB
100
AcDbEntity
  8
Defpoints
 62
     0
100
AcDbPoint
 10
58.33333099999998
 20
163.4999971
 30
0.0
  0
POINT
  5
2E5
330
2DB
100
AcDbEntity
  8
Defpoints
 62
     0
100
AcDbPoint
 10
0.0
 20
162.6666638
 30
0.0
  0
POINT
  5
2E6
330
2DB
100
AcDbEntity
  8
Defpoints
 62
     0
100
AcDbPoint
 10
0.0
 20
172.0
 30
0.0
  0
ENDBLK
  5
2DD
330
2DB
100
AcDbEntity
  8
0
100
AcDbBlockEnd
  0
BLOCK
  5
2E8
330
2E7
100
AcDbEntity
  8
0
100
AcDbBlockBegin
  2
*D5
 70
     1
 10
0.0
 20
0.0
 30
0.0
  3
*D5
  1
*D5
  0
LINE
  5
2EA
330
2E7
100
AcDbEntity
  8
Dimensions
 62
     0
370
    -2
100
AcDbLine
 10
0.0
 20
162.7291638
 30
0.0
 11
0.0
 21
177.18
 31
0.0
  0
LINE
  5
2EB
330
2E7
100
AcDbEntity
  8
Dimensions
 62
     0
370
    -2
100
AcDbLine
 10
176.6535362409449
 20
162.7291638
 30
0.0
 11
176.6535362409449
 21
177.18
 31
0.0
  0
LINE
  5
2EC
330
2E7
100
AcDbEntity
  8
Dimensions
 62
     0
370
    -2
100
AcDbLine
 10
0.18
 20
177.0
 30
0.0
 11
176.4735362409449
 21
177.0
 31
0.0
  0
SOLID
  5
2ED
330
2E7
100
AcDbEntity
  8
Dimensions
 62
     0
100
AcDbTrace
 10
0.18
 20
177.03
 30
0.0
 11
0.18
 21
176.97
 31
0.0
 12
0.0
 22
177.0
 32
0.0
 13
0.0
 23
177.0
 33
0.0
  0
SOLID
  5
2EE
330
2E7
100
AcDbEntity
  8
Dimensions
 62
     0
100
AcDbTrace
 10
176.4735362409449
 20
176.97
 30
0.0
 11
176.4735362409449
 21
177.03
 31
0.0
 12
176.6535362409449
 22
177.0
 32
0.0
 13
176.6535362409449
 23
177.0
 33
0.0
  0
MTEXT
  5
2EF
330
2E7
100
AcDbEntity
  8
Dimensions
 62
     0
100
AcDbMText
 10
88.32676812047244
 20
177.59
 30
0.0
 40
1.0
 41
0.0
 46
0.0
 71
     5
 72
     1
  1
\A1;176.65
 73
     1
 44
1.0
  0
POINT
  5
2F0
330
2E7
100
AcDbEntity
  8
Defpoints
 62
     0
100
AcDbPoint
 10
0.0
 20
162.6666638
 30
0.0
  0
POINT
  5
2F1
330
2E7
100
AcDbEntity
  8
Defpoints
 62
     0
100
AcDbPoint
 10
176.6535362409449
 20
162.6666638
 30
0.0
  0
POINT
  5
2F2
330
2E7
100
AcDbEntity
  8
Defpoints
 62
     0
100
AcDbPoint
 10
176.6535362409449
 20
177.0
 30
0.0
  0
ENDBLK
  5
2E9
330
2E7
100
AcDbEntity
  8
0
100
AcDbBlockEnd
  0
BLOCK
  5
2F4
330
2F3
100
AcDbEntity
  8
0
100
AcDbBlockBegin
  2
*D6
 70
     1
 10
0.0
 20
0.0
 30
0.0
  3
*D6
  1
*D6
  0
LINE
  5
2F6
330
2F3
100
AcDbEntity
  8
Dimensions
 62
     0
370
    -2
100
AcDbLine
 10
220.0
 20
106.0625
 30
0.0
 11
220.0
 21
109.18
 31
0.0
  0
LINE
  5
2F7
330
2F3
100
AcDbEntity
  8
Dimensions
 62
     0
370
    -2
100
AcDbLine
 10
233.0
 20
106.0625
 30
0.0
 11
233.0
 21
109.18
 31
0.0
  0
LINE
  5
2F8
330
2F3
100
AcDbEntity
  8
Dimensions
 62
     0
370
    -2
100
AcDbLine
 10
220.18
 20
109.0
 30
0.0
 11
232.82
 21
109.0
 31
0.0
  0
SOLID
  5
2F9
330
2F3
100
AcDbEntity
  8
Dimensions
 62
     0
100
AcDbTrace
 10
220.18
 20
109.03
 30
0.0
 11
220.18
 21
108.97
 31
0.0
 12
220.0
 22
109.0
 32
0.0
 13
220.0
 23
109.0
 33
0.0
  0
SOLID
  5
2FA
330
2F3
100
AcDbEntity
  8
Dimensions
 62
     0
100
AcDbTrace
 10
232.82
 20
108.97
 30
0.0
 11
232.82
 21
109.03
 31
0.0
 12
233.0
 22
109.0
 32
0.0
 13
233.0
 23
109.0
 33
0.0
  0
MTEXT
  5
2FB
330
2F3
100
AcDbEntity
  8
Dimensions
 62
     0
100
AcDbMText
 10
226.5
 20
109.59
 30
0.0
 40
1.0
 41
0.0
 46
0.0
 71
     5
 72
     1
  1
\A1;13.00
 73
     1
 44
1.0
  0
POINT
  5
2FC
330
2F3
100
AcDbEntity
  8
Defpoints
 62
     0
100
AcDbPoint
 10
220.0
 20
106.0
 30
0.0
  0
POINT
  5
2FD
330
2F3
100
AcDbEntity
  8
Defpoints
 62
     0
100
AcDbPoint
 10
233.0
 20
106.0
 30
0.0
  0
POINT
  5
2FE
330
2F3
100
AcDbEntity
  8
Defpoints
 62
     0
100
AcDbPoint
 10
233.0
 20
109.0
 30
0.0
  0
ENDBLK
  5
2F5
330
2F3
100
AcDbEntity
  8
0
100
AcDbBlockEnd
  0
BLOCK
  5
300
330
2FF
100
AcDbEntity
  8
0
100
AcDbBlockBegin
  2
*D7
 70
     1
 10
0.0
 20
0.0
 30
0.0
  3
*D7
  1
*D7
  0
LINE
  5
302
330
2FF
100
AcDbEntity
  8
Dimensions
 62
     0
370
    -2
100
AcDbLine
 10
220.0
 20
77.81840551181085
 30
0.0
 11
220.0
 21
80.18
 31
0.0
  0
LINE
  5
303
330
2FF
100
AcDbEntity
  8
Dimensions
 62
     0
370
    -2
100
AcDbLine
 10
232.007874015748
 20
77.81840551181085
 30
0.0
 11
232.007874015748
 21
80.18
 31
0.0
  0
LINE
  5
304
330
2FF
100
AcDbEntity
  8
Dimensions
 62
     0
370
    -2
100
AcDbLine
 10
220.18
 20
80.0
 30
0.0
 11
231.827874015748
 21
80.0
 31
0.0
  0
SOLID
  5
305
330
2FF
100
AcDbEntity
  8
Dimensions
 62
     0
100
AcDbTrace
 10
220.18
 20
80.03
 30
0.0
 11
220.18
 21
79.97
 31
0.0
 12
220.0
 22
80.0
 32
0.0
 13
220.0
 23
80.0
 33
0.0
  0
SOLID
  5
306
330
2FF
100
AcDbEntity
  8
Dimensions
 62
     0
100
AcDbTrace
 10
231.827874015748
 20
79.97
 30
0.0
 11
231.827874015748
 21
80.03
 31
0.0
 12
232.007874015748
 22
80.0
 32
0.0
 13
232.007874015748
 23
80.0
 33
0.0
  0
MTEXT
  5
307
330
2FF
100
AcDbEntity
  8
Dimensions
 62
     0
100
AcDbMText
 10
226.003937007874
 20
80.59
 30
0.0
 40
1.0
 41
0.0
 46
0.0
 71
     5
 72
     1
  1
\A1;12.01
 73
     1
 44
1.0
  0
POINT
  5
308
330
2FF
100
AcDbEntity
  8
Defpoints
 62
     0
100
AcDbPoint
 10
220.0
 20
77.75590551181085
 30
0.0
  0
POINT
  5
309
330
2FF
100
AcDbEntity
  8
Defpoints
 62
     0
100
AcDbPoint
 10
232.007874015748
 20
77.75590551181085
 30
0.0
  0
POINT
  5
30A
330
2FF
100
AcDbEntity
  8
Defpoints
 62
     0
100
AcDbPoint
 10
232.007874015748
 20
80.0
 30
0.0
  0
ENDBLK
  5
301
330
2FF
100
AcDbEntity
  8
0
100
AcDbBlockEnd
  0
BLOCK
  5
30C
330
30B
100
AcDbEntity
  8
0
100
AcDbBlockBegin
  2
*D8
 70
     1
 10
0.0
 20
0.0
 30
0.0
  3
*D8
  1
*D8
  0
LINE
  5
30E
330
30B
100
AcDbEntity
  8
Dimensions
 62
     0
370
    -2
100
AcDbLine
 10
220.0
 20
36.0625
 30
0.0
 11
220.0
 21
40.18
 31
0.0
  0
LINE
  5
30F
330
30B
100
AcDbEntity
  8
Dimensions
 62
     0
370
    -2
100
AcDbLine
 10
233.5
 20
36.0625
 30
0.0
 11
233.5
 21
40.18
 31
0.0
  0
LINE
  5
310
330
30B
100
AcDbEntity
  8
Dimensions
 62
     0
370
    -2
100
AcDbLine
 10
220.18
 20
40.0
 30
0.0
 11
233.32
 21
40.0
 31
0.0
  0
SOLID
  5
311
330
30B
100
AcDbEntity
  8
Dimensions
 62
     0
100
AcDbTrace
 10
220.18
 20
40.03
 30
0.0
 11
220.18
 21
39.97
 31
0.0
 12
220.0
 22
40.0
 32
0.0
 13
220.0
 23
40.0
 33
0.0
  0
SOLID
  5
312
330
30B
100
AcDbEntity
  8
Dimensions
 62
     0
100
AcDbTrace
 10
233.32
 20
39.97
 30
0.0
 11
233.32
 21
40.03
 31
0.0
 12
233.5
 22
40.0
 32
0.0
 13
233.5
 23
40.0
 33
0.0
  0
MTEXT
  5
313
330
30B
100
AcDbEntity
  8
Dimensions
 62
     0
100
AcDbMText
 10
226.75
 20
40.59
 30
0.0
 40
1.0
 41
0.0
 46
0.0
 71
     5
 72
     1
  1
\A1;13.50
 73
     1
 44
1.0
  0
POINT
  5
314
330
30B
100
AcDbEntity
  8
Defpoints
 62
     0
100
AcDbPoint
 10
220.0
 20
36.0
 30
0.0
  0
POINT
  5
315
330
30B
100
AcDbEntity
  8
Defpoints
 62
     0
100
AcDbPoint
 10
233.5
 20
36.0
 30
0.0
  0
POINT
  5
316
330
30B
100
AcDbEntity
  8
Defpoints
 62
     0
100
AcDbPoint
 10
233.5
 20
40.0
 30
0.0
  0
ENDBLK
  5
30D
330
30B
100
AcDbEntity
  8
0
100
AcDbBlockEnd
  0
BLOCK
  5
318
330
317
100
AcDbEntity
  8
0
100
AcDbBlockBegin
  2
*D9
 70
     1
 10
0.0
 20
0.0
 30
0.0
  3
*D9
  1
*D9
  0
LINE
  5
31A
330
317
100
AcDbEntity
  8
Dimensions
 62
     0
370
    -2
100
AcDbLine
 10
175.8827029409449
 20
163.4999971
 30
0.0
 11
182.18
 21
163.4999971
 31
0.0
  0
LINE
  5
31B
330
317
100
AcDbEntity
  8
Dimensions
 62
     0
370
    -2
100
AcDbLine
 10
175.8827029409449
 20
90.1666667
 30
0.0
 11
182.18
 21
90.1666667
 31
0.0
  0
LINE
  5
31C
330
317
100
AcDbEntity
  8
Dimensions
 62
     0
370
    -2
100
AcDbLine
 10
182.0
 20
163.3199971
 30
0.0
 11
182.0
 21
90.3466667
 31
0.0
  0
SOLID
  5
31D
330
317
100
AcDbEntity
  8
Dimensions
 62
     0
100
AcDbTrace
 10
182.03
 20
163.3199971
 30
0.0
 11
181.97
 21
163.3199971
 31
0.0
 12
182.0
 22
163.4999971
 32
0.0
 13
182.0
 23
163.4999971
 33
0.0
  0
SOLID
  5
31E
330
317
100
AcDbEntity
  8
Dimensions
 62
     0
100
AcDbTrace
 10
181.97
 20
90.3466667
 30
0.0
 11
182.03
 21
90.3466667
 31
0.0
 12
182.0
 22
90.1666667
 32
0.0
 13
182.0
 23
90.1666667
 33
0.0
  0
MTEXT
  5
31F
330
317
100
AcDbEntity
  8
Dimensions
 62
     0
100
AcDbMText
 10
181.41
 20
126.8333319
 30
0.0
 40
1.0
 41
0.0
 46
0.0
 71
     5
 72
     1
  1
\A1;73.33
 11
0.0
 21
1.0
 31
0.0
 73
     1
 44
1.0
  0
POINT
  5
320
330
317
100
AcDbEntity
  8
Defpoints
 62
     0
100
AcDbPoint
 10
175.8202029409449
 20
163.4999971
 30
0.0
  0
POINT
  5
321
330
317
100
AcDbEntity
  8
Defpoints
 62
     0
100
AcDbPoint
 10
175.8202029409449
 20
90.1666667
 30
0.0
  0
POINT
  5
322
330
317
100
AcDbEntity
  8
Defpoints
 62
     0
100
AcDbPoint
 10
182.0
 20
90.1666667
 30
0.0
  0
ENDBLK
  5
319
330
317
100
AcDbEntity
  8
0
100
AcDbBlockEnd
  0
BLOCK
  5
324
330
323
100
AcDbEntity
  8
0
100
AcDbBlockBegin
  2
*D10
 70
     1
 10
0.0
 20
0.0
 30
0.0
  3
*D10
  1
*D10
  0
LINE
  5
326
330
323
100
AcDbEntity
  8
Dimensions
 62
     0
370
    -2
100
AcDbLine
 10
200.0624976
 20
75.00000000000001
 30
0.0
 11
205.18
 21
75.00000000000001
 31
0.0
  0
LINE
  5
327
330
323
100
AcDbEntity
  8
Dimensions
 62
     0
370
    -2
100
AcDbLine
 10
200.0624976
 20
0.0000029999999924
 30
0.0
 11
205.18
 21
0.0000029999999921
 31
0.0
  0
LINE
  5
328
330
323
100
AcDbEntity
  8
Dimensions
 62
     0
370
    -2
100
AcDbLine
 10
205.0
 20
74.82000000000001
 30
0.0
 11
205.0
 21
0.1800029999999921
 31
0.0
  0
SOLID
  5
329
330
323
100
AcDbEntity
  8
Dimensions
 62
     0
100
AcDbTrace
 10
205.03
 20
74.82000000000001
 30
0.0
 11
204.97
 21
74.82000000000001
 31
0.0
 12
205.0
 22
75.00000000000001
 32
0.0
 13
205.0
 23
75.00000000000001
 33
0.0
  0
SOLID
  5
32A
330
323
100
AcDbEntity
  8
Dimensions
 62
     0
100
AcDbTrace
 10
204.97
 20
0.1800029999999921
 30
0.0
 11
205.03
 21
0.1800029999999921
 31
0.0
 12
205.0
 22
0.0000029999999921
 32
0.0
 13
205.0
 23
0.0000029999999921
 33
0.0
  0
MTEXT
  5
32B
330
323
100
AcDbEntity
  8
Dimensions
 62
     0
100
AcDbMText
 10
204.41
 20
37.5000015
 30
0.0
 40
1.0
 41
0.0
 46
0.0
 71
     5
 72
     1
  1
\A1;75.00
 11
0.0
 21
1.0
 31
0.0
 73
     1
 44
1.0
  0
POINT
  5
32C
330
323
100
AcDbEntity
  8
Defpoints
 62
     0
100
AcDbPoint
 10
199.9999976
 20
75.00000000000001
 30
0.0
  0
POINT
  5
32D
330
323
100
AcDbEntity
  8
Defpoints
 62
     0
100
AcDbPoint
 10
199.9999976
 20
0.0000029999999924
 30
0.0
  0
POINT
  5
32E
330
323
100
AcDbEntity
  8
Defpoints
 62
     0
100
AcDbPoint
 10
205.0
 20
0.0000029999999921
 30
0.0
  0
ENDBLK
  5
325
330
323
100
AcDbEntity
  8
0
100
AcDbBlockEnd
  0
BLOCK
  5
330
330
32F
100
AcDbEntity
  8
0
100
AcDbBlockBegin
  2
*D11
 70
     1
 10
0.0
 20
0.0
 30
0.0
  3
*D11
  1
*D11
  0
LINE
  5
332
330
32F
100
AcDbEntity
  8
Dimensions
 62
     0
370
    -2
100
AcDbLine
 10
140.0
 20
75.06250000000001
 30
0.0
 11
140.0
 21
80.18
 31
0.0
  0
LINE
  5
333
330
32F
100
AcDbEntity
  8
Dimensions
 62
     0
370
    -2
100
AcDbLine
 10
199.9999976
 20
75.06250000000001
 30
0.0
 11
199.9999976
 21
80.18
 31
0.0
  0
LINE
  5
334
330
32F
100
AcDbEntity
  8
Dimensions
 62
     0
370
    -2
100
AcDbLine
 10
140.18
 20
80.0
 30
0.0
 11
199.8199976
 21
80.0
 31
0.0
  0
SOLID
  5
335
330
32F
100
AcDbEntity
  8
Dimensions
 62
     0
100
AcDbTrace
 10
140.18
 20
80.03
 30
0.0
 11
140.18
 21
79.97
 31
0.0
 12
140.0
 22
80.0
 32
0.0
 13
140.0
 23
80.0
 33
0.0
  0
SOLID
  5
336
330
32F
100
AcDbEntity
  8
Dimensions
 62
     0
100
AcDbTrace
 10
199.8199976
 20
79.97
 30
0.0
 11
199.8199976
 21
80.03
 31
0.0
 12
199.9999976
 22
80.0
 32
0.0
 13
199.9999976
 23
80.0
 33
0.0
  0
MTEXT
  5
337
330
32F
100
AcDbEntity
  8
Dimensions
 62
     0
100
AcDbMText
 10
169.9999988
 20
80.59
 30
0.0
 40
1.0
 41
0.0
 46
0.0
 71
     5
 72
     1
  1
\A1;60.00
 73
     1
 44
1.0
  0
POINT
  5
338
330
32F
100
AcDbEntity
  8
Defpoints
 62
     0
100
AcDbPoint
 10
140.0
 20
75.00000000000001
 30
0.0
  0
POINT
  5
339
330
32F
100
AcDbEntity
  8
Defpoints
 62
     0
100
AcDbPoint
 10
199.9999976
 20
75.00000000000001
 30
0.0
  0
POINT
  5
33A
330
32F
100
AcDbEntity
  8
Defpoints
 62
     0
100
AcDbPoint
 10
199.9999976
 20
80.0
 30
0.0
  0
ENDBLK
  5
331
330
32F
100
AcDbEntity
  8
0
100
AcDbBlockEnd
  0
BLOCK
  5
33C
330
33B
100
AcDbEntity
  8
0
100
AcDbBlockBegin
  2
*D12
 70
     1
 10
0.0
 20
0.0
 30
0.0
  3
*D12
  1
*D12
  0
LINE
  5
33E
330
33B
100
AcDbEntity
  8
Dimensions
 62
     0
370
    -2
100
AcDbLine
 10
233.0625
 20
106.0
 30
0.0
 11
236.18
 21
106.0
 31
0.0
  0
LINE
  5
33F
330
33B
100
AcDbEntity
  8
Dimensions
 62
     0
370
    -2
100
AcDbLine
 10
233.0625
 20
105.0
 30
0.0
 11
236.18
 21
105.0
 31
0.0
  0
LINE
  5
340
330
33B
100
AcDbEntity
  8
Dimensions
 62
     0
370
    -2
100
AcDbLine
 10
236.0
 20
105.82
 30
0.0
 11
236.0
 21
105.18
 31
0.0
  0
SOLID
  5
341
330
33B
100
AcDbEntity
  8
Dimensions
 62
     0
100
AcDbTrace
 10
236.03
 20
105.82
 30
0.0
 11
235.97
 21
105.82
 31
0.0
 12
236.0
 22
106.0
 32
0.0
 13
236.0
 23
106.0
 33
0.0
  0
SOLID
  5
342
330
33B
100
AcDbEntity
  8
Dimensions
 62
     0
100
AcDbTrace
 10
235.97
 20
105.18
 30
0.0
 11
236.03
 21
105.18
 31
0.0
 12
236.0
 22
105.0
 32
0.0
 13
236.0
 23
105.0
 33
0.0
  0
MTEXT
  5
343
330
33B
100
AcDbEntity
  8
Dimensions
 62
     0
100
AcDbMText
 10
236.815
 20
105.5
 30
0.0
 40
1.0
 41
0.0
 46
0.0
 71
     5
 72
     1
  1
\A1;1.00
 73
     1
 44
1.0
  0
POINT
  5
344
330
33B
100
AcDbEntity
  8
Defpoints
 62
     0
100
AcDbPoint
 10
233.0
 20
106.0
 30
0.0
  0
POINT
  5
345
330
33B
100
AcDbEntity
  8
Defpoints
 62
     0
100
AcDbPoint
 10
233.0
 20
105.0
 30
0.0
  0
POINT
  5
346
330
33B
100
AcDbEntity
  8
Defpoints
 62
     0
100
AcDbPoint
 10
236.0
 20
105.0
 30
0.0
  0
ENDBLK
  5
33D
330
33B
100
AcDbEntity
  8
0
100
AcDbBlockEnd
  0
BLOCK
  5
348
330
347
100
AcDbEntity
  8
0
100
AcDbBlockBegin
  2
*D13
 70
     1
 10
0.0
 20
0.0
 30
0.0
  3
*D13
  1
*D13
  0
LINE
  5
34A
330
347
100
AcDbEntity
  8
Dimensions
 62
     0
370
    -2
100
AcDbLine
 10
233.0625
 20
106.0
 30
0.0
 11
239.18
 21
106.0
 31
0.0
  0
LINE
  5
34B
330
347
100
AcDbEntity
  8
Dimensions
 62
     0
370
    -2
100
AcDbLine
 10
233.0625
 20
90.0
 30
0.0
 11
239.18
 21
90.0
 31
0.0
  0
LINE
  5
34C
330
347
100
AcDbEntity
  8
Dimensions
 62
     0
370
    -2
100
AcDbLine
 10
239.0
 20
105.82
 30
0.0
 11
239.0
 21
90.18
 31
0.0
  0
SOLID
  5
34D
330
347
100
AcDbEntity
  8
Dimensions
 62
     0
100
AcDbTrace
 10
239.03
 20
105.82
 30
0.0
 11
238.97
 21
105.82
 31
0.0
 12
239.0
 22
106.0
 32
0.0
 13
239.0
 23
106.0
 33
0.0
  0
SOLID
  5
34E
330
347
100
AcDbEntity
  8
Dimensions
 62
     0
100
AcDbTrace
 10
238.97
 20
90.18
 30
0.0
 11
239.03
 21
90.18
 31
0.0
 12
239.0
 22
90.0
 32
0.0
 13
239.0
 23
90.0
 33
0.0
  0
MTEXT
  5
34F
330
347
100
AcDbEntity
  8
Dimensions
 62
     0
100
AcDbMText
 10
238.41
 20
98.0
 30
0.0
 40
1.0
 41
0.0
 46
0.0
 71
     5
 72
     1
  1
\A1;16.00
 11
0.0
 21
1.0
 31
0.0
 73
     1
 44
1.0
  0
POINT
  5
350
330
347
100
AcDbEntity
  8
Defpoints
 62
     0
100
AcDbPoint
 10
233.0
 20
106.0
 30
0.0
  0
POINT
  5
351
330
347
100
AcDbEntity
  8
Defpoints
 62
     0
100
AcDbPoint
 10
233.0
 20
90.0
 30
0.0
  0
POINT
  5
352
330
347
100
AcDbEntity
  8
Defpoints
 62
     0
100
AcDbPoint
 10
239.0
 20
90.0
 30
0.0
  0
ENDBLK
  5
349
330
347
100
AcDbEntity
  8
0
100
AcDbBlockEnd
  0
BLOCK
  5
354
330
353
100
AcDbEntity
  8
0
100
AcDbBlockBegin
  2
*D14
 70
     1
 10
0.0
 20
0.0
 30
0.0
  3
*D14
  1
*D14
  0
LINE
  5
356
330
353
100
AcDbEntity
  8
Dimensions
 62
     0
370
    -2
100
AcDbLine
 10
219.9375
 20
77.75590551181085
 30
0.0
 11
216.82
 21
77.75590551181085
 31
0.0
  0
LINE
  5
357
330
353
100
AcDbEntity
  8
Dimensions
 62
     0
370
    -2
100
AcDbLine
 10
219.9375
 20
65.74803149606304
 30
0.0
 11
216.82
 21
65.74803149606304
 31
0.0
  0
LINE
  5
358
330
353
100
AcDbEntity
  8
Dimensions
 62
     0
370
    -2
100
AcDbLine
 10
217.0
 20
77.57590551181084
 30
0.0
 11
217.0
 21
65.92803149606304
 31
0.0
  0
SOLID
  5
359
330
353
100
AcDbEntity
  8
Dimensions
 62
     0
100
AcDbTrace
 10
217.03
 20
77.57590551181084
 30
0.0
 11
216.97
 21
77.57590551181084
 31
0.0
 12
217.0
 22
77.75590551181085
 32
0.0
 13
217.0
 23
77.75590551181085
 33
0.0
  0
SOLID
  5
35A
330
353
100
AcDbEntity
  8
Dimensions
 62
     0
100
AcDbTrace
 10
216.97
 20
65.92803149606304
 30
0.0
 11
217.03
 21
65.92803149606304
 31
0.0
 12
217.0
 22
65.74803149606304
 32
0.0
 13
217.0
 23
65.74803149606304
 33
0.0
  0
MTEXT
  5
35B
330
353
100
AcDbEntity
  8
Dimensions
 62
     0
100
AcDbMText
 10
216.41
 20
71.75196850393695
 30
0.0
 40
1.0
 41
0.0
 46
0.0
 71
     5
 72
     1
  1
\A1;12.01
 11
0.0
 21
1.0
 31
0.0
 73
     1
 44
1.0
  0
POINT
  5
35C
330
353
100
AcDbEntity
  8
Defpoints
 62
     0
100
AcDbPoint
 10
220.0
 20
77.75590551181085
 30
0.0
  0
POINT
  5
35D
330
353
100
AcDbEntity
  8
Defpoints
 62
     0
100
AcDbPoint
 10
220.0
 20
65.74803149606304
 30
0.0
  0
POINT
  5
35E
330
353
100
AcDbEntity
  8
Defpoints
 62
     0
100
AcDbPoint
 10
217.0
 20
65.74803149606304
 30
0.0
  0
ENDBLK
  5
355
330
353
100
AcDbEntity
  8
0
100
AcDbBlockEnd
  0
BLOCK
  5
360
330
35F
100
AcDbEntity
  8
0
100
AcDbBlockBegin
  2
*D15
 70
     1
 10
0.0
 20
0.0
 30
0.0
  3
*D15
  1
*D15
  0
LINE
  5
362
330
35F
100
AcDbEntity
  8
Dimensions
 62
     0
370
    -2
100
AcDbLine
 10
233.5625
 20
36.0
 30
0.0
 11
237.18
 21
36.0
 31
0.0
  0
LINE
  5
363
330
35F
100
AcDbEntity
  8
Dimensions
 62
     0
370
    -2
100
AcDbLine
 10
233.5625
 20
0.0
 30
0.0
 11
237.18
 21
-0.0000000000000002
 31
0.0
  0
LINE
  5
364
330
35F
100
AcDbEntity
  8
Dimensions
 62
     0
370
    -2
100
AcDbLine
 10
237.0
 20
35.82
 30
0.0
 11
237.0
 21
0.1799999999999998
 31
0.0
  0
SOLID
  5
365
330
35F
100
AcDbEntity
  8
Dimensions
 62
     0
100
AcDbTrace
 10
237.03
 20
35.82
 30
0.0
 11
236.97
 21
35.82
 31
0.0
 12
237.0
 22
36.0
 32
0.0
 13
237.0
 23
36.0
 33
0.0
  0
SOLID
  5
366
330
35F
100
AcDbEntity
  8
Dimensions
 62
     0
100
AcDbTrace
 10
236.97
 20
0.1799999999999998
 30
0.0
 11
237.03
 21
0.1799999999999998
 31
0.0
 12
237.0
 22
-0.0000000000000002
 32
0.0
 13
237.0
 23
-0.0000000000000002
 33
0.0
  0
MTEXT
  5
367
330
35F
100
AcDbEntity
  8
Dimensions
 62
     0
100
AcDbMText
 10
236.41
 20
18.0
 30
0.0
 40
1.0
 41
0.0
 46
0.0
 71
     5
 72
     1
  1
\A1;36.00
 11
0.0
 21
1.0
 31
0.0
 73
     1
 44
1.0
  0
POINT
  5
368
330
35F
100
AcDbEntity
  8
Defpoints
 62
     0
100
AcDbPoint
 10
233.5
 20
36.0
 30
0.0
  0
POINT
  5
369
330
35F
100
AcDbEntity
  8
Defpoints
 62
     0
100
AcDbPoint
 10
233.5
 20
0.0
 30
0.0
  0
POINT
  5
36A
330
35F
100
AcDbEntity
  8
Defpoints
 62
     0
100
AcDbPoint
 10
237.0
 20
-0.0000000000000002
 30
0.0
  0
ENDBLK
  5
361
330
35F
100
AcDbEntity
  8
0
100
AcDbBlockEnd
  0
ENDSEC
  0
SECTION
  2
ENTITIES
  0
LINE
  5
21
330
1EF
100
AcDbEntity
  8
Panel Cut Size
 62
     7
420
 16777215
100
AcDbLine
 10
0.0
 20
0.0
 30
0.0
 11
59.99999760000003
 21
0.0
 31
0.0
  0
LINE
  5
22
330
1EF
100
AcDbEntity
  8
Panel Cut Size
 62
     7
420
 16777215
100
AcDbLine
 10
0.0
 20
74.99999700000001
 30
0.0
 11
0.0
 21
0.0
 31
0.0
  0
LINE
  5
23
330
1EF
100
AcDbEntity
  8
Panel Cut Size
 62
     7
420
 16777215
100
AcDbLine
 10
59.99999760000003
 20
74.99999700000001
 30
0.0
 11
59.99999760000003
 21
0.0
 31
0.0
  0
LINE
  5
24
330
1EF
100
AcDbEntity
  8
Panel Cut Size
 62
     7
420
 16777215
100
AcDbLine
 10
0.0
 20
74.99999700000001
 30
0.0
 11
59.99999760000003
 21
74.99999700000001
 31
0.0
  0
LINE
  5
25
330
1EF
100
AcDbEntity
  8
Finished Hammock
 62
     7
420
 16777215
100
AcDbLine
 10
0.0
 20
156.8267690204723
 30
0.0
 11
0.8333332999999783
 21
157.6601023204723
 31
0.0
  0
LINE
  5
26
330
1EF
100
AcDbEntity
  8
Finished Hammock
 62
     7
420
 16777215
100
AcDbLine
 10
0.0
 20
160.3623027849839
 30
0.0
 11
0.8333332999999783
 21
161.1956360849838
 31
0.0
  0
LINE
  5
27
330
1EF
100
AcDbEntity
  8
Finished Hammock
 62
     7
420
 16777215
100
AcDbLine
 10
0.0
 20
156.8267690204723
 30
0.0
 11
0.0
 21
96.83989477952736
 31
0.0
  0
LINE
  5
28
330
1EF
100
AcDbEntity
  8
Finished Hammock
 62
     7
420
 16777215
100
AcDbLine
 10
0.0
 20
160.3623027849839
 30
0.0
 11
0.0
 21
159.7730471575652
 31
0.0
  0
LINE
  5
29
330
1EF
100
AcDbEntity
  8
Finished Hammock
 62
     7
420
 16777215
100
AcDbLine
 10
58.33333099999997
 20
163.4999971
 30
0.0
 11
58.33333099999997
 21
162.6666638
 31
0.0
  0
LINE
  5
2A
330
1EF
100
AcDbEntity
  8
Finished Hammock
 62
     7
420
 16777215
100
AcDbLine
 10
3.137694315016176
 20
163.4999971
 30
0.0
 11
3.726949942434715
 21
163.4999971
 31
0.0
  0
LINE
  5
2B
330
1EF
100
AcDbEntity
  8
Finished Hammock
 62
     7
420
 16777215
100
AcDbLine
 10
6.673228079527561
 20
163.4999971
 30
0.0
 11
58.33333099999997
 21
163.4999971
 31
0.0
  0
LINE
  5
2C
330
1EF
100
AcDbEntity
  8
Finished Hammock
 62
     7
420
 16777215
100
AcDbLine
 10
58.33333099999997
 20
163.4999971
 30
0.0
 11
118.3202052409448
 21
163.4999971
 31
0.0
  0
LINE
  5
2D
330
1EF
100
AcDbEntity
  8
Finished Hammock
 62
     7
420
 16777215
100
AcDbLine
 10
0.8333332999999783
 20
161.1956360849838
 30
0.0
 11
2.30436101501617
 21
162.6666638
 31
0.0
  0
LINE
  5
2E
330
1EF
100
AcDbEntity
  8
Finished Hammock
 62
     7
420
 16777215
100
AcDbLine
 10
0.8333332999999783
 20
161.1956360849838
 30
0.0
 11
0.8333332999999783
 21
160.6063804575652
 31
0.0
  0
LINE
  5
2F
330
1EF
100
AcDbEntity
  8
Finished Hammock
 62
     7
420
 16777215
100
AcDbLine
 10
0.8333332999999783
 20
157.6601023204723
 30
0.0
 11
5.839894779527555
 21
162.6666638
 31
0.0
  0
LINE
  5
30
330
1EF
100
AcDbEntity
  8
Finished Hammock
 62
     7
420
 16777215
100
AcDbLine
 10
0.8333332999999783
 20
157.6601023204723
 30
0.0
 11
0.8333332999999783
 21
96.00656147952736
 31
0.0
  0
LINE
  5
31
330
1EF
100
AcDbEntity
  8
Finished Hammock
 62
     7
420
 16777215
100
AcDbLine
 10
2.30436101501617
 20
162.6666638
 30
0.0
 11
3.137694315016176
 21
163.4999971
 31
0.0
  0
LINE
  5
32
330
1EF
100
AcDbEntity
  8
Finished Hammock
 62
     7
420
 16777215
100
AcDbLine
 10
2.30436101501617
 20
162.6666638
 30
0.0
 11
2.893616642434722
 21
162.6666638
 31
0.0
  0
LINE
  5
33
330
1EF
100
AcDbEntity
  8
Finished Hammock
 62
     7
420
 16777215
100
AcDbLine
 10
58.33333099999997
 20
162.6666638
 30
0.0
 11
58.33333099999997
 21
91.0
 31
0.0
  0
LINE
  5
34
330
1EF
100
AcDbEntity
  8
Finished Hammock
 62
     7
420
 16777215
100
AcDbLine
 10
5.839894779527555
 20
162.6666638
 30
0.0
 11
6.673228079527561
 21
163.4999971
 31
0.0
  0
LINE
  5
35
330
1EF
100
AcDbEntity
  8
Finished Hammock
 62
     7
420
 16777215
100
AcDbLine
 10
5.839894779527555
 20
162.6666638
 30
0.0
 11
57.49999769999998
 21
162.6666638
 31
0.0
  0
LINE
  5
36
330
1EF
100
AcDbEntity
  8
Finished Hammock
 62
     7
420
 16777215
100
AcDbLine
 10
58.33333099999997
 20
162.6666638
 30
0.0
 11
118.3202052409448
 21
162.6666638
 31
0.0
  0
LINE
  5
37
330
1EF
100
AcDbEntity
  8
Finished Hammock
 62
     7
420
 16777215
100
AcDbLine
 10
0.8333332999999783
 20
162.6666638
 30
0.0
 11
0.8333332999999783
 21
161.1956360849838
 31
0.0
  0
LINE
  5
38
330
1EF
100
AcDbEntity
  8
Finished Hammock
 62
     7
420
 16777215
100
AcDbLine
 10
0.8333332999999783
 20
162.6666638
 30
0.0
 11
2.30436101501617
 21
162.6666638
 31
0.0
  0
LINE
  5
39
330
1EF
100
AcDbEntity
  8
Finished Hammock
 62
     7
420
 16777215
100
AcDbLine
 10
0.0
 20
162.6666638
 30
0.0
 11
0.0
 21
160.3623027849839
 31
0.0
  0
LINE
  5
3A
330
1EF
100
AcDbEntity
  8
Finished Hammock
 62
     7
420
 16777215
100
AcDbLine
 10
0.8333332999999783
 20
163.4999971
 30
0.0
 11
3.137694315016176
 21
163.4999971
 31
0.0
  0
LINE
  5
3B
330
1EF
100
AcDbEntity
  8
Finished Hammock
 62
     7
420
 16777215
100
AcDbLine
 10
0.0
 20
162.6666638
 30
0.0
 11
0.8333332999999783
 21
163.4999971
 31
0.0
  0
LINE
  5
3C
330
1EF
100
AcDbEntity
  8
Finished Hammock
 62
     7
420
 16777215
100
AcDbLine
 10
0.8333332999999783
 20
162.6666638
 30
0.0
 11
0.0
 21
162.6666638
 31
0.0
  0
LINE
  5
3D
330
1EF
100
AcDbEntity
  8
Finished Hammock
 62
     7
420
 16777215
100
AcDbLine
 10
0.0
 20
159.7730471575652
 30
0.0
 11
0.0
 21
157.4160246478909
 31
0.0
  0
LINE
  5
3E
330
1EF
100
AcDbEntity
  8
Finished Hammock
 62
     7
420
 16777215
100
AcDbLine
 10
3.726949942434715
 20
163.4999971
 30
0.0
 11
6.083972452108995
 21
163.4999971
 31
0.0
  0
LINE
  5
3F
330
1EF
100
AcDbEntity
  8
Finished Hammock
 62
     7
420
 16777215
100
AcDbLine
 10
0.0
 20
159.7730471575652
 30
0.0
 11
0.8333332999999783
 21
160.6063804575652
 31
0.0
  0
LINE
  5
40
330
1EF
100
AcDbEntity
  8
Finished Hammock
 62
     7
420
 16777215
100
AcDbLine
 10
0.8333332999999783
 20
160.6063804575652
 30
0.0
 11
0.8333332999999783
 21
158.2493579478909
 31
0.0
  0
LINE
  5
41
330
1EF
100
AcDbEntity
  8
Finished Hammock
 62
     7
420
 16777215
100
AcDbLine
 10
2.893616642434722
 20
162.6666638
 30
0.0
 11
5.250639152108988
 21
162.6666638
 31
0.0
  0
LINE
  5
42
330
1EF
100
AcDbEntity
  8
Finished Hammock
 62
     7
420
 16777215
100
AcDbLine
 10
0.8333332999999783
 20
160.6063804575652
 30
0.0
 11
2.893616642434722
 21
162.6666638
 31
0.0
  0
LINE
  5
43
330
1EF
100
AcDbEntity
  8
Finished Hammock
 62
     7
420
 16777215
100
AcDbLine
 10
2.893616642434722
 20
162.6666638
 30
0.0
 11
3.726949942434715
 21
163.4999971
 31
0.0
  0
LINE
  5
44
330
1EF
100
AcDbEntity
  8
Finished Hammock
 62
     7
420
 16777215
100
AcDbLine
 10
0.0
 20
157.4160246478909
 30
0.0
 11
0.0
 21
156.8267690204723
 31
0.0
  0
LINE
  5
45
330
1EF
100
AcDbEntity
  8
Finished Hammock
 62
     7
420
 16777215
100
AcDbLine
 10
6.083972452108995
 20
163.4999971
 30
0.0
 11
6.673228079527561
 21
163.4999971
 31
0.0
  0
LINE
  5
46
330
1EF
100
AcDbEntity
  8
Finished Hammock
 62
     7
420
 16777215
100
AcDbLine
 10
0.0
 20
157.4160246478909
 30
0.0
 11
0.8333332999999783
 21
158.2493579478909
 31
0.0
  0
LINE
  5
47
330
1EF
100
AcDbEntity
  8
Finished Hammock
 62
     7
420
 16777215
100
AcDbLine
 10
0.8333332999999783
 20
158.2493579478909
 30
0.0
 11
0.8333332999999783
 21
157.6601023204723
 31
0.0
  0
LINE
  5
48
330
1EF
100
AcDbEntity
  8
Finished Hammock
 62
     7
420
 16777215
100
AcDbLine
 10
5.250639152108988
 20
162.6666638
 30
0.0
 11
5.839894779527555
 21
162.6666638
 31
0.0
  0
LINE
  5
49
330
1EF
100
AcDbEntity
  8
Finished Hammock
 62
     7
420
 16777215
100
AcDbLine
 10
0.8333332999999783
 20
158.2493579478909
 30
0.0
 11
5.250639152108988
 21
162.6666638
 31
0.0
  0
LINE
  5
4A
330
1EF
100
AcDbEntity
  8
Finished Hammock
 62
     7
420
 16777215
100
AcDbLine
 10
5.250639152108988
 20
162.6666638
 30
0.0
 11
6.083972452108995
 21
163.4999971
 31
0.0
  0
LINE
  5
4B
330
1EF
100
AcDbEntity
  8
Finished Hammock
 62
     7
420
 16777215
100
AcDbLine
 10
176.6535362409448
 20
157.4160246478909
 30
0.0
 11
176.6535362409448
 21
156.8267690204723
 31
0.0
  0
LINE
  5
4C
330
1EF
100
AcDbEntity
  8
Finished Hammock
 62
     7
420
 16777215
100
AcDbLine
 10
175.8202029409449
 20
158.2493579478909
 30
0.0
 11
171.4028970888359
 21
162.6666638
 31
0.0
  0
LINE
  5
4D
330
1EF
100
AcDbEntity
  8
Finished Hammock
 62
     7
420
 16777215
100
AcDbLine
 10
176.6535362409448
 20
157.4160246478909
 30
0.0
 11
175.8202029409449
 21
158.2493579478909
 31
0.0
  0
LINE
  5
4E
330
1EF
100
AcDbEntity
  8
Finished Hammock
 62
     7
420
 16777215
100
AcDbLine
 10
170.5695637888359
 20
163.4999971
 30
0.0
 11
169.9803081614173
 21
163.4999971
 31
0.0
  0
LINE
  5
4F
330
1EF
100
AcDbEntity
  8
Finished Hammock
 62
     7
420
 16777215
100
AcDbLine
 10
175.8202029409449
 20
158.2493579478909
 30
0.0
 11
175.8202029409449
 21
157.6601023204723
 31
0.0
  0
LINE
  5
50
330
1EF
100
AcDbEntity
  8
Finished Hammock
 62
     7
420
 16777215
100
AcDbLine
 10
171.4028970888359
 20
162.6666638
 30
0.0
 11
170.8136414614173
 21
162.6666638
 31
0.0
  0
LINE
  5
51
330
1EF
100
AcDbEntity
  8
Finished Hammock
 62
     7
420
 16777215
100
AcDbLine
 10
171.4028970888359
 20
162.6666638
 30
0.0
 11
170.5695637888359
 21
163.4999971
 31
0.0
  0
LINE
  5
52
330
1EF
100
AcDbEntity
  8
Finished Hammock
 62
     7
420
 16777215
100
AcDbLine
 10
175.8202029409449
 20
163.4999971
 30
0.0
 11
173.5158419259287
 21
163.4999971
 31
0.0
  0
LINE
  5
53
330
1EF
100
AcDbEntity
  8
Finished Hammock
 62
     7
420
 16777215
100
AcDbLine
 10
175.8202029409449
 20
157.6601023204723
 30
0.0
 11
170.8136414614173
 21
162.6666638
 31
0.0
  0
LINE
  5
54
330
1EF
100
AcDbEntity
  8
Finished Hammock
 62
     7
420
 16777215
100
AcDbLine
 10
118.3202052409448
 20
163.4999971
 30
0.0
 11
118.3202052409448
 21
162.6666638
 31
0.0
  0
LINE
  5
55
330
1EF
100
AcDbEntity
  8
Finished Hammock
 62
     7
420
 16777215
100
AcDbLine
 10
170.8136414614173
 20
162.6666638
 30
0.0
 11
119.1535385409448
 21
162.6666638
 31
0.0
  0
LINE
  5
56
330
1EF
100
AcDbEntity
  8
Finished Hammock
 62
     7
420
 16777215
100
AcDbLine
 10
170.8136414614173
 20
162.6666638
 30
0.0
 11
169.9803081614173
 21
163.4999971
 31
0.0
  0
LINE
  5
57
330
1EF
100
AcDbEntity
  8
Finished Hammock
 62
     7
420
 16777215
100
AcDbLine
 10
175.8202029409449
 20
162.6666638
 30
0.0
 11
174.3491752259287
 21
162.6666638
 31
0.0
  0
LINE
  5
58
330
1EF
100
AcDbEntity
  8
Finished Hammock
 62
     7
420
 16777215
100
AcDbLine
 10
169.9803081614173
 20
163.4999971
 30
0.0
 11
119.1535385409448
 21
163.4999971
 31
0.0
  0
LINE
  5
59
330
1EF
100
AcDbEntity
  8
Finished Hammock
 62
     7
420
 16777215
100
AcDbLine
 10
176.6535362409448
 20
156.8267690204723
 30
0.0
 11
175.8202029409449
 21
157.6601023204723
 31
0.0
  0
LINE
  5
5A
330
1EF
100
AcDbEntity
  8
Finished Hammock
 62
     7
420
 16777215
100
AcDbLine
 10
174.3491752259287
 20
162.6666638
 30
0.0
 11
173.5158419259287
 21
163.4999971
 31
0.0
  0
LINE
  5
5B
330
1EF
100
AcDbEntity
  8
Finished Hammock
 62
     7
420
 16777215
100
AcDbLine
 10
175.8202029409449
 20
162.6666638
 30
0.0
 11
176.6535362409448
 21
162.6666638
 31
0.0
  0
LINE
  5
5C
330
1EF
100
AcDbEntity
  8
Finished Hammock
 62
     7
420
 16777215
100
AcDbLine
 10
176.6535362409448
 20
162.6666638
 30
0.0
 11
175.8202029409449
 21
163.4999971
 31
0.0
  0
LINE
  5
5D
330
1EF
100
AcDbEntity
  8
Finished Hammock
 62
     7
420
 16777215
100
AcDbLine
 10
176.6535362409448
 20
156.8267690204723
 30
0.0
 11
176.6535362409449
 21
96.83989477952736
 31
0.0
  0
LINE
  5
5E
330
1EF
100
AcDbEntity
  8
Finished Hammock
 62
     7
420
 16777215
100
AcDbLine
 10
118.3202052409448
 20
162.6666638
 30
0.0
 11
118.3202052409449
 21
91.0
 31
0.0
  0
LINE
  5
5F
330
1EF
100
AcDbEntity
  8
Finished Hammock
 62
     7
420
 16777215
100
AcDbLine
 10
176.6535362409448
 20
160.3623027849839
 30
0.0
 11
175.8202029409449
 21
161.1956360849838
 31
0.0
  0
LINE
  5
60
330
1EF
100
AcDbEntity
  8
Finished Hammock
 62
     7
420
 16777215
100
AcDbLine
 10
173.5158419259287
 20
163.4999971
 30
0.0
 11
172.9265862985101
 21
163.4999971
 31
0.0
  0
LINE
  5
61
330
1EF
100
AcDbEntity
  8
Finished Hammock
 62
     7
420
 16777215
100
AcDbLine
 10
175.8202029409449
 20
157.6601023204723
 30
0.0
 11
175.8202029409449
 21
96.00656147952736
 31
0.0
  0
LINE
  5
62
330
1EF
100
AcDbEntity
  8
Finished Hammock
 62
     7
420
 16777215
100
AcDbLine
 10
173.7599195985101
 20
162.6666638
 30
0.0
 11
172.9265862985101
 21
163.4999971
 31
0.0
  0
LINE
  5
63
330
1EF
100
AcDbEntity
  8
Finished Hammock
 62
     7
420
 16777215
100
AcDbLine
 10
174.3491752259287
 20
162.6666638
 30
0.0
 11
173.7599195985101
 21
162.6666638
 31
0.0
  0
LINE
  5
64
330
1EF
100
AcDbEntity
  8
Finished Hammock
 62
     7
420
 16777215
100
AcDbLine
 10
175.8202029409449
 20
161.1956360849838
 30
0.0
 11
175.8202029409449
 21
160.6063804575652
 31
0.0
  0
LINE
  5
65
330
1EF
100
AcDbEntity
  8
Finished Hammock
 62
     7
420
 16777215
100
AcDbLine
 10
175.8202029409449
 20
160.6063804575652
 30
0.0
 11
175.8202029409449
 21
158.2493579478909
 31
0.0
  0
LINE
  5
66
330
1EF
100
AcDbEntity
  8
Finished Hammock
 62
     7
420
 16777215
100
AcDbLine
 10
176.6535362409448
 20
159.7730471575652
 30
0.0
 11
175.8202029409449
 21
160.6063804575652
 31
0.0
  0
LINE
  5
67
330
1EF
100
AcDbEntity
  8
Finished Hammock
 62
     7
420
 16777215
100
AcDbLine
 10
173.7599195985101
 20
162.6666638
 30
0.0
 11
171.4028970888359
 21
162.6666638
 31
0.0
  0
LINE
  5
68
330
1EF
100
AcDbEntity
  8
Finished Hammock
 62
     7
420
 16777215
100
AcDbLine
 10
175.8202029409449
 20
161.1956360849838
 30
0.0
 11
174.3491752259287
 21
162.6666638
 31
0.0
  0
LINE
  5
69
330
1EF
100
AcDbEntity
  8
Finished Hammock
 62
     7
420
 16777215
100
AcDbLine
 10
176.6535362409448
 20
159.7730471575652
 30
0.0
 11
176.6535362409448
 21
157.4160246478909
 31
0.0
  0
LINE
  5
6A
330
1EF
100
AcDbEntity
  8
Finished Hammock
 62
     7
420
 16777215
100
AcDbLine
 10
176.6535362409448
 20
160.3623027849839
 30
0.0
 11
176.6535362409448
 21
159.7730471575652
 31
0.0
  0
LINE
  5
6B
330
1EF
100
AcDbEntity
  8
Finished Hammock
 62
     7
420
 16777215
100
AcDbLine
 10
172.9265862985101
 20
163.4999971
 30
0.0
 11
170.5695637888359
 21
163.4999971
 31
0.0
  0
LINE
  5
6C
330
1EF
100
AcDbEntity
  8
Finished Hammock
 62
     7
420
 16777215
100
AcDbLine
 10
175.8202029409449
 20
160.6063804575652
 30
0.0
 11
173.7599195985101
 21
162.6666638
 31
0.0
  0
LINE
  5
6D
330
1EF
100
AcDbEntity
  8
Finished Hammock
 62
     7
420
 16777215
100
AcDbLine
 10
176.6535362409448
 20
162.6666638
 30
0.0
 11
176.6535362409448
 21
160.3623027849839
 31
0.0
  0
LINE
  5
6E
330
1EF
100
AcDbEntity
  8
Finished Hammock
 62
     7
420
 16777215
100
AcDbLine
 10
175.8202029409449
 20
162.6666638
 30
0.0
 11
175.8202029409449
 21
161.1956360849838
 31
0.0
  0
LINE
  5
6F
330
1EF
100
AcDbEntity
  8
Finished Hammock
 62
     7
420
 16777215
100
AcDbLine
 10
3.137694315016176
 20
90.1666667
 30
0.0
 11
3.726949942434715
 21
90.1666667
 31
0.0
  0
LINE
  5
70
330
1EF
100
AcDbEntity
  8
Finished Hammock
 62
     7
420
 16777215
100
AcDbLine
 10
2.893616642434722
 20
91.0
 30
0.0
 11
3.726949942434715
 21
90.1666667
 31
0.0
  0
LINE
  5
71
330
1EF
100
AcDbEntity
  8
Finished Hammock
 62
     7
420
 16777215
100
AcDbLine
 10
2.30436101501617
 20
91.0
 30
0.0
 11
2.893616642434722
 21
91.0
 31
0.0
  0
LINE
  5
72
330
1EF
100
AcDbEntity
  8
Finished Hammock
 62
     7
420
 16777215
100
AcDbLine
 10
0.8333332999999783
 20
92.47102771501613
 30
0.0
 11
2.30436101501617
 21
91.0
 31
0.0
  0
LINE
  5
73
330
1EF
100
AcDbEntity
  8
Finished Hammock
 62
     7
420
 16777215
100
AcDbLine
 10
3.726949942434715
 20
90.1666667
 30
0.0
 11
6.083972452108995
 21
90.1666667
 31
0.0
  0
LINE
  5
74
330
1EF
100
AcDbEntity
  8
Finished Hammock
 62
     7
420
 16777215
100
AcDbLine
 10
0.0
 20
93.89361664243481
 30
0.0
 11
0.0
 21
96.25063915210907
 31
0.0
  0
LINE
  5
75
330
1EF
100
AcDbEntity
  8
Finished Hammock
 62
     7
420
 16777215
100
AcDbLine
 10
0.0
 20
93.89361664243481
 30
0.0
 11
0.8333332999999783
 21
93.0602833424348
 31
0.0
  0
LINE
  5
76
330
1EF
100
AcDbEntity
  8
Finished Hammock
 62
     7
420
 16777215
100
AcDbLine
 10
0.8333332999999783
 20
93.0602833424348
 30
0.0
 11
2.893616642434722
 21
91.0
 31
0.0
  0
LINE
  5
77
330
1EF
100
AcDbEntity
  8
Finished Hammock
 62
     7
420
 16777215
100
AcDbLine
 10
0.0
 20
93.30436101501614
 30
0.0
 11
0.0
 21
93.89361664243481
 31
0.0
  0
LINE
  5
78
330
1EF
100
AcDbEntity
  8
Finished Hammock
 62
     7
420
 16777215
100
AcDbLine
 10
0.8333332999999783
 20
93.0602833424348
 30
0.0
 11
0.8333332999999783
 21
95.41730585210908
 31
0.0
  0
LINE
  5
79
330
1EF
100
AcDbEntity
  8
Finished Hammock
 62
     7
420
 16777215
100
AcDbLine
 10
2.893616642434722
 20
91.0
 30
0.0
 11
5.250639152108988
 21
91.0
 31
0.0
  0
LINE
  5
7A
330
1EF
100
AcDbEntity
  8
Finished Hammock
 62
     7
420
 16777215
100
AcDbLine
 10
0.8333332999999783
 20
92.47102771501613
 30
0.0
 11
0.8333332999999783
 21
93.0602833424348
 31
0.0
  0
LINE
  5
7B
330
1EF
100
AcDbEntity
  8
Finished Hammock
 62
     7
420
 16777215
100
AcDbLine
 10
0.8333332999999783
 20
91.0
 30
0.0
 11
0.8333332999999783
 21
92.47102771501613
 31
0.0
  0
LINE
  5
7C
330
1EF
100
AcDbEntity
  8
Finished Hammock
 62
     7
420
 16777215
100
AcDbLine
 10
0.0
 20
91.0
 30
0.0
 11
0.0
 21
93.30436101501614
 31
0.0
  0
LINE
  5
7D
330
1EF
100
AcDbEntity
  8
Finished Hammock
 62
     7
420
 16777215
100
AcDbLine
 10
0.0
 20
93.30436101501614
 30
0.0
 11
0.8333332999999783
 21
92.47102771501613
 31
0.0
  0
LINE
  5
7E
330
1EF
100
AcDbEntity
  8
Finished Hammock
 62
     7
420
 16777215
100
AcDbLine
 10
58.33333099999997
 20
91.0
 30
0.0
 11
118.3202052409449
 21
91.0
 31
0.0
  0
LINE
  5
7F
330
1EF
100
AcDbEntity
  8
Finished Hammock
 62
     7
420
 16777215
100
AcDbLine
 10
58.33333099999997
 20
90.1666667
 30
0.0
 11
118.3202052409449
 21
90.1666667
 31
0.0
  0
LINE
  5
80
330
1EF
100
AcDbEntity
  8
Finished Hammock
 62
     7
420
 16777215
100
AcDbLine
 10
2.30436101501617
 20
91.0
 30
0.0
 11
3.137694315016176
 21
90.1666667
 31
0.0
  0
LINE
  5
81
330
1EF
100
AcDbEntity
  8
Finished Hammock
 62
     7
420
 16777215
100
AcDbLine
 10
0.8333332999999783
 20
90.1666667
 30
0.0
 11
3.137694315016176
 21
90.1666667
 31
0.0
  0
LINE
  5
82
330
1EF
100
AcDbEntity
  8
Finished Hammock
 62
     7
420
 16777215
100
AcDbLine
 10
0.0
 20
91.0
 30
0.0
 11
0.8333332999999783
 21
90.1666667
 31
0.0
  0
LINE
  5
83
330
1EF
100
AcDbEntity
  8
Finished Hammock
 62
     7
420
 16777215
100
AcDbLine
 10
5.250639152108988
 20
91.0
 30
0.0
 11
5.839894779527555
 21
91.0
 31
0.0
  0
LINE
  5
84
330
1EF
100
AcDbEntity
  8
Finished Hammock
 62
     7
420
 16777215
100
AcDbLine
 10
58.33333099999997
 20
90.1666667
 30
0.0
 11
58.33333099999997
 21
91.0
 31
0.0
  0
LINE
  5
85
330
1EF
100
AcDbEntity
  8
Finished Hammock
 62
     7
420
 16777215
100
AcDbLine
 10
5.839894779527555
 20
91.0
 30
0.0
 11
6.673228079527561
 21
90.1666667
 31
0.0
  0
LINE
  5
86
330
1EF
100
AcDbEntity
  8
Finished Hammock
 62
     7
420
 16777215
100
AcDbLine
 10
0.8333332999999783
 20
91.0
 30
0.0
 11
0.0
 21
91.0
 31
0.0
  0
LINE
  5
87
330
1EF
100
AcDbEntity
  8
Finished Hammock
 62
     7
420
 16777215
100
AcDbLine
 10
0.8333332999999783
 20
96.00656147952736
 30
0.0
 11
5.839894779527555
 21
91.0
 31
0.0
  0
LINE
  5
88
330
1EF
100
AcDbEntity
  8
Finished Hammock
 62
     7
420
 16777215
100
AcDbLine
 10
0.8333332999999783
 20
95.41730585210908
 30
0.0
 11
5.250639152108988
 21
91.0
 31
0.0
  0
LINE
  5
89
330
1EF
100
AcDbEntity
  8
Finished Hammock
 62
     7
420
 16777215
100
AcDbLine
 10
0.0
 20
96.25063915210907
 30
0.0
 11
0.8333332999999783
 21
95.41730585210908
 31
0.0
  0
LINE
  5
8A
330
1EF
100
AcDbEntity
  8
Finished Hammock
 62
     7
420
 16777215
100
AcDbLine
 10
0.0
 20
96.83989477952736
 30
0.0
 11
0.8333332999999783
 21
96.00656147952736
 31
0.0
  0
LINE
  5
8B
330
1EF
100
AcDbEntity
  8
Finished Hammock
 62
     7
420
 16777215
100
AcDbLine
 10
0.0
 20
96.25063915210907
 30
0.0
 11
0.0
 21
96.83989477952736
 31
0.0
  0
LINE
  5
8C
330
1EF
100
AcDbEntity
  8
Finished Hammock
 62
     7
420
 16777215
100
AcDbLine
 10
6.673228079527561
 20
90.1666667
 30
0.0
 11
57.49999769999994
 21
90.1666667
 31
0.0
  0
LINE
  5
8D
330
1EF
100
AcDbEntity
  8
Finished Hammock
 62
     7
420
 16777215
100
AcDbLine
 10
0.8333332999999783
 20
91.0
 30
0.0
 11
2.30436101501617
 21
91.0
 31
0.0
  0
LINE
  5
8E
330
1EF
100
AcDbEntity
  8
Finished Hammock
 62
     7
420
 16777215
100
AcDbLine
 10
5.839894779527555
 20
91.0
 30
0.0
 11
57.49999769999994
 21
91.0
 31
0.0
  0
LINE
  5
8F
330
1EF
100
AcDbEntity
  8
Finished Hammock
 62
     7
420
 16777215
100
AcDbLine
 10
5.250639152108988
 20
91.0
 30
0.0
 11
6.083972452108995
 21
90.1666667
 31
0.0
  0
LINE
  5
90
330
1EF
100
AcDbEntity
  8
Finished Hammock
 62
     7
420
 16777215
100
AcDbLine
 10
6.083972452108995
 20
90.1666667
 30
0.0
 11
6.673228079527561
 21
90.1666667
 31
0.0
  0
LINE
  5
91
330
1EF
100
AcDbEntity
  8
Finished Hammock
 62
     7
420
 16777215
100
AcDbLine
 10
0.8333332999999783
 20
95.41730585210908
 30
0.0
 11
0.8333332999999783
 21
96.00656147952736
 31
0.0
  0
LINE
  5
92
330
1EF
100
AcDbEntity
  8
Finished Hammock
 62
     7
420
 16777215
100
AcDbLine
 10
175.8202029409449
 20
91.0
 30
0.0
 11
176.6535362409449
 21
91.0
 31
0.0
  0
LINE
  5
93
330
1EF
100
AcDbEntity
  8
Finished Hammock
 62
     7
420
 16777215
100
AcDbLine
 10
170.8136414614173
 20
91.0
 30
0.0
 11
119.1535385409448
 21
91.0
 31
0.0
  0
LINE
  5
94
330
1EF
100
AcDbEntity
  8
Finished Hammock
 62
     7
420
 16777215
100
AcDbLine
 10
118.3202052409449
 20
90.1666667
 30
0.0
 11
118.3202052409449
 21
91.0
 31
0.0
  0
LINE
  5
95
330
1EF
100
AcDbEntity
  8
Finished Hammock
 62
     7
420
 16777215
100
AcDbLine
 10
170.8136414614173
 20
91.0
 30
0.0
 11
169.9803081614174
 21
90.1666667
 31
0.0
  0
LINE
  5
96
330
1EF
100
AcDbEntity
  8
Finished Hammock
 62
     7
420
 16777215
100
AcDbLine
 10
169.9803081614174
 20
90.1666667
 30
0.0
 11
119.1535385409448
 21
90.1666667
 31
0.0
  0
LINE
  5
97
330
1EF
100
AcDbEntity
  8
Finished Hammock
 62
     7
420
 16777215
100
AcDbLine
 10
176.6535362409449
 20
96.83989477952736
 30
0.0
 11
175.8202029409449
 21
96.00656147952736
 31
0.0
  0
LINE
  5
98
330
1EF
100
AcDbEntity
  8
Finished Hammock
 62
     7
420
 16777215
100
AcDbLine
 10
171.4028970888359
 20
91.0
 30
0.0
 11
170.8136414614173
 21
91.0
 31
0.0
  0
LINE
  5
99
330
1EF
100
AcDbEntity
  8
Finished Hammock
 62
     7
420
 16777215
100
AcDbLine
 10
175.8202029409449
 20
95.41730585210908
 30
0.0
 11
171.4028970888359
 21
91.0
 31
0.0
  0
LINE
  5
9A
330
1EF
100
AcDbEntity
  8
Finished Hammock
 62
     7
420
 16777215
100
AcDbLine
 10
175.8202029409449
 20
96.00656147952736
 30
0.0
 11
170.8136414614173
 21
91.0
 31
0.0
  0
LINE
  5
9B
330
1EF
100
AcDbEntity
  8
Finished Hammock
 62
     7
420
 16777215
100
AcDbLine
 10
176.6535362409449
 20
96.25063915210907
 30
0.0
 11
176.6535362409449
 21
96.83989477952736
 31
0.0
  0
LINE
  5
9C
330
1EF
100
AcDbEntity
  8
Finished Hammock
 62
     7
420
 16777215
100
AcDbLine
 10
176.6535362409449
 20
96.25063915210907
 30
0.0
 11
175.8202029409449
 21
95.41730585210908
 31
0.0
  0
LINE
  5
9D
330
1EF
100
AcDbEntity
  8
Finished Hammock
 62
     7
420
 16777215
100
AcDbLine
 10
170.5695637888359
 20
90.1666667
 30
0.0
 11
169.9803081614174
 21
90.1666667
 31
0.0
  0
LINE
  5
9E
330
1EF
100
AcDbEntity
  8
Finished Hammock
 62
     7
420
 16777215
100
AcDbLine
 10
175.8202029409449
 20
95.41730585210908
 30
0.0
 11
175.8202029409449
 21
96.00656147952736
 31
0.0
  0
LINE
  5
9F
330
1EF
100
AcDbEntity
  8
Finished Hammock
 62
     7
420
 16777215
100
AcDbLine
 10
171.4028970888359
 20
91.0
 30
0.0
 11
170.5695637888359
 21
90.1666667
 31
0.0
  0
LINE
  5
A0
330
1EF
100
AcDbEntity
  8
Finished Hammock
 62
     7
420
 16777215
100
AcDbLine
 10
175.8202029409449
 20
91.0
 30
0.0
 11
174.3491752259287
 21
91.0
 31
0.0
  0
LINE
  5
A1
330
1EF
100
AcDbEntity
  8
Finished Hammock
 62
     7
420
 16777215
100
AcDbLine
 10
173.5158419259287
 20
90.1666667
 30
0.0
 11
172.9265862985101
 21
90.1666667
 31
0.0
  0
LINE
  5
A2
330
1EF
100
AcDbEntity
  8
Finished Hammock
 62
     7
420
 16777215
100
AcDbLine
 10
173.7599195985101
 20
91.0
 30
0.0
 11
172.9265862985101
 21
90.1666667
 31
0.0
  0
LINE
  5
A3
330
1EF
100
AcDbEntity
  8
Finished Hammock
 62
     7
420
 16777215
100
AcDbLine
 10
174.3491752259287
 20
91.0
 30
0.0
 11
173.7599195985101
 21
91.0
 31
0.0
  0
LINE
  5
A4
330
1EF
100
AcDbEntity
  8
Finished Hammock
 62
     7
420
 16777215
100
AcDbLine
 10
174.3491752259287
 20
91.0
 30
0.0
 11
173.5158419259287
 21
90.1666667
 31
0.0
  0
LINE
  5
A5
330
1EF
100
AcDbEntity
  8
Finished Hammock
 62
     7
420
 16777215
100
AcDbLine
 10
175.8202029409449
 20
93.0602833424348
 30
0.0
 11
173.7599195985101
 21
91.0
 31
0.0
  0
LINE
  5
A6
330
1EF
100
AcDbEntity
  8
Finished Hammock
 62
     7
420
 16777215
100
AcDbLine
 10
175.8202029409449
 20
92.47102771501613
 30
0.0
 11
175.8202029409449
 21
93.0602833424348
 31
0.0
  0
LINE
  5
A7
330
1EF
100
AcDbEntity
  8
Finished Hammock
 62
     7
420
 16777215
100
AcDbLine
 10
175.8202029409449
 20
92.47102771501613
 30
0.0
 11
174.3491752259287
 21
91.0
 31
0.0
  0
LINE
  5
A8
330
1EF
100
AcDbEntity
  8
Finished Hammock
 62
     7
420
 16777215
100
AcDbLine
 10
176.6535362409449
 20
93.89361664243481
 30
0.0
 11
175.8202029409449
 21
93.0602833424348
 31
0.0
  0
LINE
  5
A9
330
1EF
100
AcDbEntity
  8
Finished Hammock
 62
     7
420
 16777215
100
AcDbLine
 10
176.6535362409449
 20
93.30436101501614
 30
0.0
 11
176.6535362409449
 21
93.89361664243481
 31
0.0
  0
LINE
  5
AA
330
1EF
100
AcDbEntity
  8
Finished Hammock
 62
     7
420
 16777215
100
AcDbLine
 10
176.6535362409449
 20
93.30436101501614
 30
0.0
 11
175.8202029409449
 21
92.47102771501613
 31
0.0
  0
LINE
  5
AB
330
1EF
100
AcDbEntity
  8
Finished Hammock
 62
     7
420
 16777215
100
AcDbLine
 10
176.6535362409449
 20
91.0
 30
0.0
 11
175.8202029409449
 21
90.1666667
 31
0.0
  0
LINE
  5
AC
330
1EF
100
AcDbEntity
  8
Finished Hammock
 62
     7
420
 16777215
100
AcDbLine
 10
175.8202029409449
 20
90.1666667
 30
0.0
 11
173.5158419259287
 21
90.1666667
 31
0.0
  0
LINE
  5
AD
330
1EF
100
AcDbEntity
  8
Finished Hammock
 62
     7
420
 16777215
100
AcDbLine
 10
176.6535362409449
 20
91.0
 30
0.0
 11
176.6535362409449
 21
93.30436101501614
 31
0.0
  0
LINE
  5
AE
330
1EF
100
AcDbEntity
  8
Finished Hammock
 62
     7
420
 16777215
100
AcDbLine
 10
175.8202029409449
 20
91.0
 30
0.0
 11
175.8202029409449
 21
92.47102771501613
 31
0.0
  0
LINE
  5
AF
330
1EF
100
AcDbEntity
  8
Finished Hammock
 62
     7
420
 16777215
100
AcDbLine
 10
173.7599195985101
 20
91.0
 30
0.0
 11
171.4028970888359
 21
91.0
 31
0.0
  0
LINE
  5
B0
330
1EF
100
AcDbEntity
  8
Finished Hammock
 62
     7
420
 16777215
100
AcDbLine
 10
175.8202029409449
 20
93.0602833424348
 30
0.0
 11
175.8202029409449
 21
95.41730585210908
 31
0.0
  0
LINE
  5
B1
330
1EF
100
AcDbEntity
  8
Finished Hammock
 62
     7
420
 16777215
100
AcDbLine
 10
176.6535362409449
 20
93.89361664243481
 30
0.0
 11
176.6535362409449
 21
96.25063915210907
 31
0.0
  0
LINE
  5
B2
330
1EF
100
AcDbEntity
  8
Finished Hammock
 62
     7
420
 16777215
100
AcDbLine
 10
172.9265862985101
 20
90.1666667
 30
0.0
 11
170.5695637888359
 21
90.1666667
 31
0.0
  0
LINE
  5
B3
330
1EF
100
AcDbEntity
  8
Finished Hammock
 62
     7
420
 16777215
100
AcDbLine
 10
57.49999769999994
 20
90.1666667
 30
0.0
 11
58.33333099999997
 21
90.1666667
 31
0.0
  0
LINE
  5
B5
330
1EF
100
AcDbEntity
  8
Finished Hammock
 62
     7
420
 16777215
100
AcDbLine
 10
57.49999769999998
 20
162.6666638
 30
0.0
 11
58.33333099999997
 21
162.6666638
 31
0.0
  0
LINE
  5
B6
330
1EF
100
AcDbEntity
  8
Finished Hammock
 62
     7
420
 16777215
100
AcDbLine
 10
57.49999769999994
 20
91.0
 30
0.0
 11
58.33333099999997
 21
91.0
 31
0.0
  0
LINE
  5
B7
330
1EF
100
AcDbEntity
  8
Finished Hammock
 62
     7
420
 16777215
100
AcDbLine
 10
57.49999769999994
 20
91.0
 30
0.0
 11
57.49999769999994
 21
90.1666667
 31
0.0
  0
LINE
  5
B8
330
1EF
100
AcDbEntity
  8
Finished Hammock
 62
     7
420
 16777215
100
AcDbLine
 10
57.49999769999998
 20
162.6666638
 30
0.0
 11
57.49999769999994
 21
91.0
 31
0.0
  0
LINE
  5
B9
330
1EF
100
AcDbEntity
  8
Finished Hammock
 62
     7
420
 16777215
100
AcDbLine
 10
119.1535385409448
 20
163.4999971
 30
0.0
 11
118.3202052409448
 21
163.4999971
 31
0.0
  0
LINE
  5
BA
330
1EF
100
AcDbEntity
  8
Finished Hammock
 62
     7
420
 16777215
100
AcDbLine
 10
119.1535385409448
 20
90.1666667
 30
0.0
 11
118.3202052409449
 21
90.1666667
 31
0.0
  0
LINE
  5
BB
330
1EF
100
AcDbEntity
  8
Finished Hammock
 62
     7
420
 16777215
100
AcDbLine
 10
119.1535385409448
 20
163.4999971
 30
0.0
 11
119.1535385409448
 21
162.6666638
 31
0.0
  0
LINE
  5
BC
330
1EF
100
AcDbEntity
  8
Finished Hammock
 62
     7
420
 16777215
100
AcDbLine
 10
119.1535385409448
 20
162.6666638
 30
0.0
 11
118.3202052409448
 21
162.6666638
 31
0.0
  0
LINE
  5
BD
330
1EF
100
AcDbEntity
  8
Finished Hammock
 62
     7
420
 16777215
100
AcDbLine
 10
119.1535385409448
 20
91.0
 30
0.0
 11
118.3202052409449
 21
91.0
 31
0.0
  0
LINE
  5
BE
330
1EF
100
AcDbEntity
  8
Finished Hammock
 62
     7
420
 16777215
100
AcDbLine
 10
119.1535385409448
 20
91.0
 30
0.0
 11
119.1535385409448
 21
90.1666667
 31
0.0
  0
LINE
  5
BF
330
1EF
100
AcDbEntity
  8
Finished Hammock
 62
     7
420
 16777215
100
AcDbLine
 10
119.1535385409448
 20
162.6666638
 30
0.0
 11
119.1535385409448
 21
91.0
 31
0.0
  0
LINE
  5
C0
330
1EF
100
AcDbEntity
  8
Corner Reinforcement Cut Size
 62
     7
420
 16777215
100
AcDbLine
 10
235.7480314960629
 20
50.0
 30
0.0
 11
235.7480314960629
 21
62.0078740157478
 31
0.0
  0
LINE
  5
C1
330
1EF
100
AcDbEntity
  8
Corner Reinforcement Cut Size
 62
     7
420
 16777215
100
AcDbLine
 10
235.7480314960629
 20
62.0078740157478
 30
0.0
 11
247.755905511811
 21
62.0078740157478
 31
0.0
  0
LINE
  5
C2
330
1EF
100
AcDbEntity
  8
Corner Reinforcement Cut Size
 62
     7
420
 16777215
100
AcDbLine
 10
235.7480314960629
 20
50.0
 30
0.0
 11
247.755905511811
 21
62.0078740157478
 31
0.0
  0
LINE
  5
19E
330
1EF
100
AcDbEntity
  8
Finished Hammock
 62
     7
420
 16777215
100
AcDbLine
 10
57.49999769999998
 20
162.6666638
 30
0.0
 11
57.49999769999998
 21
163.4999971
 31
0.0
  0
LINE
  5
1A4
330
1EF
100
AcDbEntity
  8
Corner Reinforcement Cut Size
 62
     7
420
 16777215
100
AcDbLine
 10
220.0
 20
65.74803149606305
 30
0.0
 11
220.0
 21
77.75590551181085
 31
0.0
  0
LINE
  5
1A5
330
1EF
100
AcDbEntity
  8
Corner Reinforcement Cut Size
 62
     7
420
 16777215
100
AcDbLine
 10
220.0
 20
77.75590551181085
 30
0.0
 11
232.007874015748
 21
77.75590551181085
 31
0.0
  0
LINE
  5
1A6
330
1EF
100
AcDbEntity
  8
Corner Reinforcement Cut Size
 62
     7
420
 16777215
100
AcDbLine
 10
220.0
 20
65.74803149606305
 30
0.0
 11
232.007874015748
 21
77.75590551181085
 31
0.0
  0
LINE
  5
1A7
330
1EF
100
AcDbEntity
  8
Corner Reinforcement Cut Size
 62
     7
420
 16777215
100
AcDbLine
 10
220.0
 20
50.0
 30
0.0
 11
220.0
 21
62.0078740157478
 31
0.0
  0
LINE
  5
1A8
330
1EF
100
AcDbEntity
  8
Corner Reinforcement Cut Size
 62
     7
420
 16777215
100
AcDbLine
 10
220.0
 20
62.0078740157478
 30
0.0
 11
232.007874015748
 21
62.0078740157478
 31
0.0
  0
LINE
  5
1A9
330
1EF
100
AcDbEntity
  8
Corner Reinforcement Cut Size
 62
     7
420
 16777215
100
AcDbLine
 10
220.0
 20
50.0
 30
0.0
 11
232.007874015748
 21
62.0078740157478
 31
0.0
  0
LINE
  5
1AA
330
1EF
100
AcDbEntity
  8
Corner Reinforcement Cut Size
 62
     7
420
 16777215
100
AcDbLine
 10
235.7480314960629
 20
65.74803149606305
 30
0.0
 11
235.7480314960629
 21
77.75590551181085
 31
0.0
  0
LINE
  5
1AB
330
1EF
100
AcDbEntity
  8
Corner Reinforcement Cut Size
 62
     7
420
 16777215
100
AcDbLine
 10
235.7480314960629
 20
77.75590551181085
 30
0.0
 11
247.755905511811
 21
77.75590551181085
 31
0.0
  0
LINE
  5
1AC
330
1EF
100
AcDbEntity
  8
Corner Reinforcement Cut Size
 62
     7
420
 16777215
100
AcDbLine
 10
235.7480314960629
 20
65.74803149606305
 30
0.0
 11
247.755905511811
 21
77.75590551181085
 31
0.0
  0
LINE
  5
1AD
330
1EF
100
AcDbEntity
  8
Panel Cut Size
 62
     7
420
 16777215
100
AcDbLine
 10
70.0
 20
0.0000029999999924
 30
0.0
 11
129.9999976
 21
0.0000029999999924
 31
0.0
  0
LINE
  5
1AE
330
1EF
100
AcDbEntity
  8
Panel Cut Size
 62
     7
420
 16777215
100
AcDbLine
 10
70.0
 20
75.0
 30
0.0
 11
70.0
 21
0.0000029999999924
 31
0.0
  0
LINE
  5
1AF
330
1EF
100
AcDbEntity
  8
Panel Cut Size
 62
     7
420
 16777215
100
AcDbLine
 10
129.9999976
 20
75.0
 30
0.0
 11
129.9999976
 21
0.0000029999999924
 31
0.0
  0
LINE
  5
1B0
330
1EF
100
AcDbEntity
  8
Panel Cut Size
 62
     7
420
 16777215
100
AcDbLine
 10
70.0
 20
75.0
 30
0.0
 11
129.9999976
 21
75.0
 31
0.0
  0
LINE
  5
1B1
330
1EF
100
AcDbEntity
  8
Panel Cut Size
 62
     7
420
 16777215
100
AcDbLine
 10
140.0
 20
0.0000029999999924
 30
0.0
 11
199.9999976
 21
0.0000029999999924
 31
0.0
  0
LINE
  5
1B2
330
1EF
100
AcDbEntity
  8
Panel Cut Size
 62
     7
420
 16777215
100
AcDbLine
 10
140.0
 20
75.0
 30
0.0
 11
140.0
 21
0.0000029999999924
 31
0.0
  0
LINE
  5
1B3
330
1EF
100
AcDbEntity
  8
Panel Cut Size
 62
     7
420
 16777215
100
AcDbLine
 10
199.9999976
 20
75.0
 30
0.0
 11
199.9999976
 21
0.0000029999999924
 31
0.0
  0
LINE
  5
1B4
330
1EF
100
AcDbEntity
  8
Panel Cut Size
 62
     7
420
 16777215
100
AcDbLine
 10
140.0
 20
75.0
 30
0.0
 11
199.9999976
 21
75.0
 31
0.0
  0
LINE
  5
1B5
330
1EF
100
AcDbEntity
  8
Bag Cut Size
 62
     7
420
 16777215
100
AcDbLine
 10
220.0
 20
0.0
 30
0.0
 11
233.5
 21
0.0
 31
0.0
  0
LINE
  5
1B6
330
1EF
100
AcDbEntity
  8
Bag Cut Size
 62
     7
420
 16777215
100
AcDbLine
 10
233.5
 20
0.0
 30
0.0
 11
233.5
 21
36.0
 31
0.0
  0
LINE
  5
1B7
330
1EF
100
AcDbEntity
  8
Bag Cut Size
 62
     7
420
 16777215
100
AcDbLine
 10
233.5
 20
36.0
 30
0.0
 11
220.0
 21
36.0
 31
0.0
  0
LINE
  5
1B8
330
1EF
100
AcDbEntity
  8
Bag Cut Size
 62
     7
420
 16777215
100
AcDbLine
 10
220.0
 20
36.0
 30
0.0
 11
220.0
 21
0.0
 31
0.0
  0
LINE
  5
1B9
330
1EF
100
AcDbEntity
  8
Finished Bag
 62
     7
420
 16777215
100
AcDbLine
 10
220.0
 20
90.0
 30
0.0
 11
233.0
 21
90.0
 31
0.0
  0
LINE
  5
1BA
330
1EF
100
AcDbEntity
  8
Finished Bag
 62
     7
420
 16777215
100
AcDbLine
 10
233.0
 20
90.0
 30
0.0
 11
233.0
 21
106.0
 31
0.0
  0
LINE
  5
1BB
330
1EF
100
AcDbEntity
  8
Finished Bag
 62
     7
420
 16777215
100
AcDbLine
 10
233.0
 20
106.0
 30
0.0
 11
220.0
 21
106.0
 31
0.0
  0
LINE
  5
1BC
330
1EF
100
AcDbEntity
  8
Finished Bag
 62
     7
420
 16777215
100
AcDbLine
 10
220.0
 20
106.0
 30
0.0
 11
220.0
 21
90.0
 31
0.0
  0
LINE
  5
1BD
330
1EF
100
AcDbEntity
  8
Finished Bag
 62
     7
420
 16777215
100
AcDbLine
 10
220.0
 20
105.0
 30
0.0
 11
233.0
 21
105.0
 31
0.0
  0
DIMENSION
  5
1BF
330
1EF
100
AcDbEntity
  8
Dimensions
100
AcDbDimension
280
     0
  2
*D1
 10
0.0
 20
166.0
 30
0.0
 11
1.568847157508086
 21
166.815
 31
0.0
 70
    32
 71
     5
 42
3.137694315016172
 73
     0
 74
     0
 75
     0
  3
QCADDimStyle
100
AcDbAlignedDimension
 13
3.137694315016172
 23
163.4999971
 33
0.0
 14
0.0
 24
162.6666638
 34
0.0
100
AcDbRotatedDimension
1001
ACAD
1000
DSTYLE
1002
{
1070
   279
1070
     2
1070
   176
1070
     0
1070
   177
1070
     0
1070
   178
1070
     0
1070
   271
1070
     2
1070
   140
1040
1.0
1002
}
  0
DIMENSION
  5
1C0
330
1EF
100
AcDbEntity
  8
Dimensions
100
AcDbDimension
280
     0
  2
*D2
 10
6.673228079527599
 20
169.0
 30
0.0
 11
3.336614039763799
 21
169.59
 31
0.0
 70
    32
 71
     5
 42
6.673228079527599
 73
     0
 74
     0
 75
     0
  3
QCADDimStyle
100
AcDbAlignedDimension
 13
0.0
 23
162.6666638
 33
0.0
 14
6.673228079527599
 24
163.4999971
 34
0.0
100
AcDbRotatedDimension
1001
ACAD
1000
DSTYLE
1002
{
1070
   279
1070
     2
1070
   176
1070
     0
1070
   177
1070
     0
1070
   178
1070
     0
1070
   271
1070
     2
1070
   140
1040
1.0
1002
}
  0
DIMENSION
  5
1C1
330
1EF
100
AcDbEntity
  8
Dimensions
100
AcDbDimension
280
     0
  2
*D3
 10
-1.642642456625393
 20
155.1841265638472
 30
0.0
 11
-3.809924705606857
 21
154.7846111971216
 31
0.0
 70
    33
 71
     5
 42
2.499999900000068
 73
     0
 74
     0
 75
     0
  3
QCADDimStyle
100
AcDbAlignedDimension
 13
1.568847157508074
 23
161.9311499424919
 33
0.0
 14
3.336614039763766
 24
160.1633830602361
 34
0.0
1001
ACAD
1000
DSTYLE
1002
{
1070
   279
1070
     2
1070
   176
1070
     0
1070
   177
1070
     0
1070
   178
1070
     0
1070
   271
1070
     2
1070
   140
1040
1.0
1002
}
  0
DIMENSION
  5
1C2
330
1EF
100
AcDbEntity
  8
Dimensions
100
AcDbDimension
280
     0
  2
*D4
 10
0.0
 20
172.0
 30
0.0
 11
29.16666549999999
 21
172.59
 31
0.0
 70
    32
 71
     5
 42
58.33333099999998
 73
     0
 74
     0
 75
     0
  3
QCADDimStyle
100
AcDbAlignedDimension
 13
58.33333099999998
 23
163.4999971
 33
0.0
 14
0.0
 24
162.6666638
 34
0.0
100
AcDbRotatedDimension
1001
ACAD
1000
DSTYLE
1002
{
1070
   279
1070
     2
1070
   176
1070
     0
1070
   177
1070
     0
1070
   178
1070
     0
1070
   271
1070
     2
1070
   140
1040
1.0
1002
}
  0
DIMENSION
  5
1C3
330
1EF
100
AcDbEntity
  8
Dimensions
100
AcDbDimension
280
     0
  2
*D5
 10
176.6535362409449
 20
177.0
 30
0.0
 11
88.32676812047244
 21
177.59
 31
0.0
 70
    32
 71
     5
 42
176.6535362409449
 73
     0
 74
     0
 75
     0
  3
QCADDimStyle
100
AcDbAlignedDimension
 13
0.0
 23
162.6666638
 33
0.0
 14
176.6535362409449
 24
162.6666638
 34
0.0
100
AcDbRotatedDimension
1001
ACAD
1000
DSTYLE
1002
{
1070
   279
1070
     2
1070
   176
1070
     0
1070
   177
1070
     0
1070
   178
1070
     0
1070
   271
1070
     2
1070
   140
1040
1.0
1002
}
  0
DIMENSION
  5
1C5
330
1EF
100
AcDbEntity
  8
Dimensions
100
AcDbDimension
280
     0
  2
*D6
 10
233.0
 20
109.0
 30
0.0
 11
226.5
 21
109.59
 31
0.0
 70
    32
 71
     5
 42
13.0
 73
     0
 74
     0
 75
     0
  3
QCADDimStyle
100
AcDbAlignedDimension
 13
220.0
 23
106.0
 33
0.0
 14
233.0
 24
106.0
 34
0.0
100
AcDbRotatedDimension
1001
ACAD
1000
DSTYLE
1002
{
1070
   279
1070
     2
1070
   176
1070
     0
1070
   177
1070
     0
1070
   178
1070
     0
1070
   271
1070
     2
1070
   140
1040
1.0
1002
}
  0
DIMENSION
  5
1C6
330
1EF
100
AcDbEntity
  8
Dimensions
100
AcDbDimension
280
     0
  2
*D7
 10
232.007874015748
 20
80.0
 30
0.0
 11
226.003937007874
 21
80.59
 31
0.0
 70
    32
 71
     5
 42
12.00787401574803
 73
     0
 74
     0
 75
     0
  3
QCADDimStyle
100
AcDbAlignedDimension
 13
220.0
 23
77.75590551181085
 33
0.0
 14
232.007874015748
 24
77.75590551181085
 34
0.0
100
AcDbRotatedDimension
1001
ACAD
1000
DSTYLE
1002
{
1070
   279
1070
     2
1070
   176
1070
     0
1070
   177
1070
     0
1070
   178
1070
     0
1070
   271
1070
     2
1070
   140
1040
1.0
1002
}
  0
DIMENSION
  5
1C7
330
1EF
100
AcDbEntity
  8
Dimensions
100
AcDbDimension
280
     0
  2
*D8
 10
233.5
 20
40.0
 30
0.0
 11
226.75
 21
40.59
 31
0.0
 70
    32
 71
     5
 42
13.5
 73
     0
 74
     0
 75
     0
  3
QCADDimStyle
100
AcDbAlignedDimension
 13
220.0
 23
36.0
 33
0.0
 14
233.5
 24
36.0
 34
0.0
100
AcDbRotatedDimension
1001
ACAD
1000
DSTYLE
1002
{
1070
   279
1070
     2
1070
   176
1070
     0
1070
   177
1070
     0
1070
   178
1070
     0
1070
   271
1070
     2
1070
   140
1040
1.0
1002
}
  0
DIMENSION
  5
1C8
330
1EF
100
AcDbEntity
  8
Dimensions
100
AcDbDimension
280
     0
  2
*D9
 10
182.0
 20
90.1666667
 30
0.0
 11
181.41
 21
126.8333319
 31
0.0
 70
    32
 71
     5
 42
73.33333040000004
 73
     0
 74
     0
 75
     0
  3
QCADDimStyle
100
AcDbAlignedDimension
 13
175.8202029409449
 23
163.4999971
 33
0.0
 14
175.8202029409449
 24
90.1666667
 34
0.0
 50
90.0
100
AcDbRotatedDimension
1001
ACAD
1000
DSTYLE
1002
{
1070
   279
1070
     2
1070
   176
1070
     0
1070
   177
1070
     0
1070
   178
1070
     0
1070
   271
1070
     2
1070
   140
1040
1.0
1002
}
  0
DIMENSION
  5
1C9
330
1EF
100
AcDbEntity
  8
Dimensions
100
AcDbDimension
280
     0
  2
*D10
 10
205.0
 20
0.0000029999999921
 30
0.0
 11
204.41
 21
37.5000015
 31
0.0
 70
    32
 71
     5
 42
74.99999700000002
 73
     0
 74
     0
 75
     0
  3
QCADDimStyle
100
AcDbAlignedDimension
 13
199.9999976
 23
75.00000000000001
 33
0.0
 14
199.9999976
 24
0.0000029999999924
 34
0.0
 50
90.0
100
AcDbRotatedDimension
1001
ACAD
1000
DSTYLE
1002
{
1070
   279
1070
     2
1070
   176
1070
     0
1070
   177
1070
     0
1070
   178
1070
     0
1070
   271
1070
     2
1070
   140
1040
1.0
1002
}
  0
DIMENSION
  5
1CA
330
1EF
100
AcDbEntity
  8
Dimensions
100
AcDbDimension
280
     0
  2
*D11
 10
199.9999976
 20
80.0
 30
0.0
 11
169.9999988
 21
80.59
 31
0.0
 70
    32
 71
     5
 42
59.99999759999997
 73
     0
 74
     0
 75
     0
  3
QCADDimStyle
100
AcDbAlignedDimension
 13
140.0
 23
75.00000000000001
 33
0.0
 14
199.9999976
 24
75.00000000000001
 34
0.0
100
AcDbRotatedDimension
1001
ACAD
1000
DSTYLE
1002
{
1070
   279
1070
     2
1070
   176
1070
     0
1070
   177
1070
     0
1070
   178
1070
     0
1070
   271
1070
     2
1070
   140
1040
1.0
1002
}
  0
DIMENSION
  5
1CB
330
1EF
100
AcDbEntity
  8
Dimensions
100
AcDbDimension
280
     0
  2
*D12
 10
236.0
 20
105.0
 30
0.0
 11
236.815
 21
105.5
 31
0.0
 70
    32
 71
     5
 42
1.0
 73
     0
 74
     0
 75
     0
  3
QCADDimStyle
100
AcDbAlignedDimension
 13
233.0
 23
106.0
 33
0.0
 14
233.0
 24
105.0
 34
0.0
 50
90.0
100
AcDbRotatedDimension
1001
ACAD
1000
DSTYLE
1002
{
1070
   279
1070
     2
1070
   176
1070
     0
1070
   177
1070
     0
1070
   178
1070
     0
1070
   271
1070
     2
1070
   140
1040
1.0
1002
}
  0
DIMENSION
  5
1CC
330
1EF
100
AcDbEntity
  8
Dimensions
100
AcDbDimension
280
     0
  2
*D13
 10
239.0
 20
90.0
 30
0.0
 11
238.41
 21
98.0
 31
0.0
 70
    32
 71
     5
 42
16.0
 73
     0
 74
     0
 75
     0
  3
QCADDimStyle
100
AcDbAlignedDimension
 13
233.0
 23
106.0
 33
0.0
 14
233.0
 24
90.0
 34
0.0
 50
90.0
100
AcDbRotatedDimension
1001
ACAD
1000
DSTYLE
1002
{
1070
   279
1070
     2
1070
   176
1070
     0
1070
   177
1070
     0
1070
   178
1070
     0
1070
   271
1070
     2
1070
   140
1040
1.0
1002
}
  0
DIMENSION
  5
1CD
330
1EF
100
AcDbEntity
  8
Dimensions
100
AcDbDimension
280
     0
  2
*D14
 10
217.0
 20
65.74803149606304
 30
0.0
 11
216.41
 21
71.75196850393695
 31
0.0
 70
    32
 71
     5
 42
12.00787401574782
 73
     0
 74
     0
 75
     0
  3
QCADDimStyle
100
AcDbAlignedDimension
 13
220.0
 23
77.75590551181085
 33
0.0
 14
220.0
 24
65.74803149606304
 34
0.0
 50
90.0
100
AcDbRotatedDimension
1001
ACAD
1000
DSTYLE
1002
{
1070
   279
1070
     2
1070
   176
1070
     0
1070
   177
1070
     0
1070
   178
1070
     0
1070
   271
1070
     2
1070
   140
1040
1.0
1002
}
  0
DIMENSION
  5
1CE
330
1EF
100
AcDbEntity
  8
Dimensions
100
AcDbDimension
280
     0
  2
*D15
 10
237.0
 20
-0.0000000000000002
 30
0.0
 11
236.41
 21
18.0
 31
0.0
 70
    32
 71
     5
 42
36.0
 73
     0
 74
     0
 75
     0
  3
QCADDimStyle
100
AcDbAlignedDimension
 13
233.5
 23
36.0
 33
0.0
 14
233.5
 24
0.0
 34
0.0
 50
90.0
100
AcDbRotatedDimension
1001
ACAD
1000
DSTYLE
1002
{
1070
   279
1070
     2
1070
   176
1070
     0
1070
   177
1070
     0
1070
   178
1070
     0
1070
   271
1070
     2
1070
   140
1040
1.0
1002
}
  0
MTEXT
  5
1CF
330
1EF
100
AcDbEntity
  8
0
100
AcDbMText
 10
230.0
 20
154.242249902513
 30
0.0
 40
0.0684343
 41
0.0
 46
0.0
 71
     5
 72
     1
  1
\H3.00133;Hummingbird Hammocks\PMega Hammock V2
  7
textstyle11
 73
     1
 44
1.0
  0
MTEXT
  5
1D0
330
1EF
100
AcDbEntity
  8
0
100
AcDbMText
 10
230.0
 20
144.242249902513
 30
0.0
 40
0.0684343
 41
0.0
 46
0.0
 71
     5
 72
     1
  1
\fHelvetica Neue,Helvetica,Arial,sans-serif|b0|i0|c0|p0;\c3618615;\H1.99926;This work is licensed under a \P\c13730329;Creative Commons Attribution-ShareAlike 4.0 International License
  7
textstyle12
 73
     1
 44
1.0
  0
ENDSEC
  0
SECTION
  2
OBJECTS
  0
DICTIONARY
  5
1DD
330
0
100
AcDbDictionary
281
     1
  3
ACAD_DETAILVIEWSTYLE
350
374
  3
ACAD_GROUP
350
1DE
  3
ACAD_LAYOUT
350
1EA
  3
ACAD_MATERIAL
350
213
  3
ACAD_MLEADERSTYLE
350
23B
  3
ACAD_MLINESTYLE
350
1E7
  3
ACAD_PLOTSETTINGS
350
1E9
  3
ACAD_PLOTSTYLENAME
350
1DF
  3
ACAD_SCALELIST
350
217
  3
ACAD_SECTIONVIEWSTYLE
350
375
  3
ACAD_TABLESTYLE
350
239
  3
ACAD_VISUALSTYLE
350
1FA
  3
ACDB_RECOMPOSE_DATA
350
371
  3
AcDbVariableDictionary
350
36D
  3
QCAD_OBJECTS
350
23F
  0
SUN
  5
23D
330
1F9
100
AcDbSun
 90
        1
290
     0
 63
     7
421
 16777215
 40
1.0
291
     1
 91
  2455826
 92
 54000000
292
     0
 70
     2
 71
   256
280
     1
  0
DICTIONARY
  5
374
102
{ACAD_REACTORS
330
1DD
102
}
330
1DD
100
AcDbDictionary
281
     1
  0
DICTIONARY
  5
1DE
102
{ACAD_REACTORS
330
1DD
102
}
330
1DD
100
AcDbDictionary
281
     1
  0
DICTIONARY
  5
1EA
102
{ACAD_REACTORS
330
1DD
102
}
330
1DD
100
AcDbDictionary
281
     1
  3
Layout1
350
1EE
  3
Layout2
350
1F6
  3
Model
350
1F2
  0
DICTIONARY
  5
213
102
{ACAD_REACTORS
330
1DD
102
}
330
1DD
100
AcDbDictionary
281
     1
  3
ByBlock
350
215
  3
ByLayer
350
214
  3
Global
350
216
  0
DICTIONARY
  5
23B
102
{ACAD_REACTORS
330
1DD
102
}
330
1DD
100
AcDbDictionary
281
     1
  3
Standard
350
23C
  0
DICTIONARY
  5
1E7
102
{ACAD_REACTORS
330
1DD
102
}
330
1DD
100
AcDbDictionary
281
     1
  3
Standard
350
1E8
  0
DICTIONARY
  5
1E9
102
{ACAD_REACTORS
330
1DD
102
}
330
1DD
100
AcDbDictionary
281
     1
  0
ACDBDICTIONARYWDFLT
  5
1DF
102
{ACAD_REACTORS
330
1DD
102
}
330
1DD
100
AcDbDictionary
281
     1
  3
Normal
350
1E0
100
AcDbDictionaryWithDefault
340
1E0
  0
DICTIONARY
  5
217
102
{ACAD_REACTORS
330
1DD
102
}
330
1DD
100
AcDbDictionary
281
     1
  3
A0
350
218
  3
A1
350
219
  3
A2
350
21A
  3
A3
350
21B
  3
A4
350
21C
  3
A5
350
21D
  3
A6
350
21E
  3
A7
350
21F
  3
A8
350
220
  3
A9
350
221
  3
B0
350
222
  3
B1
350
223
  3
B2
350
224
  3
B3
350
225
  3
B4
350
226
  3
B5
350
227
  3
B6
350
228
  3
B7
350
229
  3
B8
350
22A
  3
B9
350
22B
  3
C0
350
22C
  3
C1
350
22D
  3
C2
350
22E
  3
C3
350
22F
  3
C4
350
230
  3
C5
350
231
  3
C6
350
232
  3
C7
350
233
  3
C8
350
234
  3
C9
350
235
  3
D0
350
236
  3
D1
350
237
  3
D2
350
238
  0
DICTIONARY
  5
375
102
{ACAD_REACTORS
330
1DD
102
}
330
1DD
100
AcDbDictionary
281
     1
  0
DICTIONARY
  5
239
102
{ACAD_REACTORS
330
1DD
102
}
330
1DD
100
AcDbDictionary
281
     1
  3
Standard
350
23A
  0
DICTIONARY
  5
1FA
102
{ACAD_REACTORS
330
1DD
102
}
330
1DD
100
AcDbDictionary
281
     1
  3
2dWireframe
350
1FF
  3
Basic
350
202
  3
Brighten
350
206
  3
ColorChange
350
20A
  3
Conceptual
350
204
  3
Dim
350
205
  3
EdgeColorOff
350
20D
  3
Facepattern
350
209
  3
Flat
350
1FB
  3
FlatWithEdges
350
1FC
  3
Gouraud
350
1FD
  3
GouraudWithEdges
350
1FE
  3
Hidden
350
201
  3
JitterOff
350
20B
  3
Linepattern
350
208
  3
OverhangOff
350
20C
  3
Realistic
350
203
  3
Shaded
350
212
  3
Shaded with edges
350
211
  3
Shades of Gray
350
20E
  3
Sketchy
350
20F
  3
Thicken
350
207
  3
Wireframe
350
200
  3
X-Ray
350
210
  0
XRECORD
  5
371
102
{ACAD_REACTORS
330
1DD
102
}
330
1DD
100
AcDbXrecord
280
     1
 90
        1
330
23A
  0
DICTIONARY
  5
36D
102
{ACAD_REACTORS
330
1DD
102
}
330
1DD
100
AcDbDictionary
281
     1
  3
CANNOSCALE
350
36E
  3
CMLEADERSTYLE
350
373
  3
CTABLESTYLE
350
372
  0
DICTIONARY
  5
23F
102
{ACAD_REACTORS
330
1DD
102
}
330
1DD
100
AcDbDictionary
281
     1
  3
ColorSettings/BackgroundColor
350
241
  3
ColorSettings/ColorMode
350
242
  3
DimensionSettings/AngularFormat
350
243
  3
DimensionSettings/AngularPrecision
350
244
  3
DimensionSettings/DimensionFont
350
245
  3
DimensionSettings/KeepProportions
350
246
  3
DimensionSettings/LinearFormat
350
247
  3
DimensionSettings/LinearPrecision
350
248
  3
Grid/DisplayGrid00
350
249
  3
Grid/DisplayGrid01
350
24A
  3
Grid/DisplayGrid02
350
24B
  3
Grid/DisplayGrid03
350
24C
  3
Grid/GridSpacingX00
350
24D
  3
Grid/GridSpacingX01
350
24E
  3
Grid/GridSpacingX02
350
24F
  3
Grid/GridSpacingX03
350
250
  3
Grid/GridSpacingY00
350
251
  3
Grid/GridSpacingY01
350
252
  3
Grid/GridSpacingY02
350
253
  3
Grid/GridSpacingY03
350
254
  3
Grid/IsometricGrid00
350
255
  3
Grid/IsometricGrid01
350
256
  3
Grid/IsometricGrid02
350
257
  3
Grid/IsometricGrid03
350
258
  3
Grid/IsometricProjection00
350
259
  3
Grid/IsometricProjection01
350
25A
  3
Grid/IsometricProjection02
350
25B
  3
Grid/IsometricProjection03
350
25C
  3
Grid/MetaGridSpacingX00
350
25D
  3
Grid/MetaGridSpacingX01
350
25E
  3
Grid/MetaGridSpacingX02
350
25F
  3
Grid/MetaGridSpacingX03
350
260
  3
Grid/MetaGridSpacingY00
350
261
  3
Grid/MetaGridSpacingY01
350
262
  3
Grid/MetaGridSpacingY02
350
263
  3
Grid/MetaGridSpacingY03
350
264
  3
MultiPageSettings/Columns
350
265
  3
MultiPageSettings/GlueMarginsBottom
350
266
  3
MultiPageSettings/GlueMarginsLeft
350
267
  3
MultiPageSettings/GlueMarginsRight
350
268
  3
MultiPageSettings/GlueMarginsTop
350
269
  3
MultiPageSettings/PrintCropMarks
350
26A
  3
MultiPageSettings/Rows
350
26B
  3
PageSettings/OffsetX
350
26C
  3
PageSettings/OffsetY
350
26D
  3
PageSettings/PageOrientation
350
26E
  3
PageSettings/PaperHeight
350
26F
  3
PageSettings/PaperWidth
350
270
  3
PageSettings/Scale
350
271
  3
PageSettings/ShowPaperBorders
350
272
  3
QCADVersion
350
273
  3
UnitSettings/PaperUnit
350
274
  0
LAYOUT
  5
1EE
102
{ACAD_REACTORS
330
1EA
102
}
330
1EA
100
AcDbPlotSettings
  1

  2
none_device
  4

  6

 40
0.0
 41
0.0
 42
0.0
 43
0.0
 44
0.0
 45
0.0
 46
0.0
 47
0.0
 48
0.0
 49
0.0
140
0.0
141
0.0
142
1.0
143
1.0
 70
   688
 72
     0
 73
     0
 74
     5
  7

 75
    16
 76
     0
 77
     2
 78
   300
147
1.0
148
0.0
149
0.0
100
AcDbLayout
  1
Layout1
 70
     1
 71
     1
 10
0.0
 20
0.0
 11
12.0
 21
9.0
 12
0.0
 22
0.0
 32
0.0
 14
1.000000000000000E+20
 24
1.000000000000000E+20
 34
1.000000000000000E+20
 15
-1.000000000000000E+20
 25
-1.000000000000000E+20
 35
-1.000000000000000E+20
146
0.0
 13
0.0
 23
0.0
 33
0.0
 16
1.0
 26
0.0
 36
0.0
 17
0.0
 27
1.0
 37
0.0
 76
     0
330
1EB
  0
LAYOUT
  5
1F6
102
{ACAD_REACTORS
330
1EA
102
}
330
1EA
100
AcDbPlotSettings
  1

  2
none_device
  4

  6

 40
0.0
 41
0.0
 42
0.0
 43
0.0
 44
0.0
 45
0.0
 46
0.0
 47
0.0
 48
0.0
 49
0.0
140
0.0
141
0.0
142
1.0
143
1.0
 70
   688
 72
     0
 73
     0
 74
     5
  7

 75
    16
 76
     0
 77
     2
 78
   300
147
1.0
148
0.0
149
0.0
100
AcDbLayout
  1
Layout2
 70
     1
 71
     2
 10
0.0
 20
0.0
 11
0.0
 21
0.0
 12
0.0
 22
0.0
 32
0.0
 14
0.0
 24
0.0
 34
0.0
 15
0.0
 25
0.0
 35
0.0
146
0.0
 13
0.0
 23
0.0
 33
0.0
 16
1.0
 26
0.0
 36
0.0
 17
0.0
 27
1.0
 37
0.0
 76
     0
330
1F3
  0
LAYOUT
  5
1F2
102
{ACAD_REACTORS
330
1EA
102
}
330
1EA
100
AcDbPlotSettings
  1

  2
none_device
  4
Letter_(8.50_x_11.00_Inches)
  6

 40
6.35
 41
6.35
 42
6.35000508
 43
6.35000508
 44
215.9
 45
279.4
 46
0.0
 47
0.0
 48
0.0
 49
0.0
140
0.0
141
0.0
142
1.0
143
1.0
 70
  1712
 72
     0
 73
     0
 74
     0
  7

 75
     0
 76
     0
 77
     2
 78
   300
147
1.0
148
0.0
149
0.0
100
AcDbLayout
  1
Model
 70
     1
 71
     0
 10
0.0
 20
0.0
 11
12.0
 21
9.0
 12
0.0
 22
0.0
 32
0.0
 14
1.000000000000000E+20
 24
1.000000000000000E+20
 34
1.000000000000000E+20
 15
-1.000000000000000E+20
 25
-1.000000000000000E+20
 35
-1.000000000000000E+20
146
0.0
 13
0.0
 23
0.0
 33
0.0
 16
1.0
 26
0.0
 36
0.0
 17
0.0
 27
1.0
 37
0.0
 76
     0
330
1EF
331
1F9
  0
MATERIAL
  5
215
102
{ACAD_REACTORS
330
213
102
}
330
213
100
AcDbMaterial
  1
ByBlock
 72
     1
 94
      127
  0
MATERIAL
  5
214
102
{ACAD_REACTORS
330
213
102
}
330
213
100
AcDbMaterial
  1
ByLayer
 72
     1
 94
      127
  0
MATERIAL
  5
216
102
{ACAD_REACTORS
330
213
102
}
330
213
100
AcDbMaterial
  1
Global
 72
     1
 94
      127
  0
MLEADERSTYLE
  5
23C
102
{ACAD_REACTORS
330
23B
102
}
330
23B
100
AcDbMLeaderStyle
179
     2
170
     2
171
     1
172
     0
 90
        2
 40
0.0
 41
0.0
173
     1
 91
-1056964608
340
1E4
 92
       -2
290
     1
 42
0.09
291
     1
 43
0.36
  3
Standard
341
0
 44
0.18
300

342
1E2
174
     1
178
     6
175
     1
176
     0
 93
-1056964608
 45
0.18
292
     0
297
     0
 46
0.18
343
0
 94
-1056964608
 47
1.0
 49
1.0
140
1.0
293
     1
141
0.0
294
     1
177
     0
142
1.0
295
     0
296
     0
143
0.125
271
     0
272
     9
273
     9
298
     0
  0
MLINESTYLE
  5
1E8
102
{ACAD_REACTORS
330
1E7
102
}
330
1E7
100
AcDbMlineStyle
  2
Standard
 70
     0
  3

 62
   256
 51
90.0
 52
90.0
 71
     2
 49
0.5
 62
   256
  6
BYLAYER
 49
-0.5
 62
   256
  6
BYLAYER
  0
ACDBPLACEHOLDER
  5
1E0
102
{ACAD_REACTORS
330
1DF
102
}
330
1DF
  0
SCALE
  5
218
102
{ACAD_REACTORS
330
217
102
}
330
217
100
AcDbScale
 70
     0
300
1:1
140
1.0
141
1.0
290
     1
  0
SCALE
  5
219
102
{ACAD_REACTORS
330
217
102
}
330
217
100
AcDbScale
 70
     0
300
1:2
140
1.0
141
2.0
290
     0
  0
SCALE
  5
21A
102
{ACAD_REACTORS
330
217
102
}
330
217
100
AcDbScale
 70
     0
300
1:4
140
1.0
141
4.0
290
     0
  0
SCALE
  5
21B
102
{ACAD_REACTORS
330
217
102
}
330
217
100
AcDbScale
 70
     0
300
1:5
140
1.0
141
5.0
290
     0
  0
SCALE
  5
21C
102
{ACAD_REACTORS
330
217
102
}
330
217
100
AcDbScale
 70
     0
300
1:8
140
1.0
141
8.0
290
     0
  0
SCALE
  5
21D
102
{ACAD_REACTORS
330
217
102
}
330
217
100
AcDbScale
 70
     0
300
1:10
140
1.0
141
10.0
290
     0
  0
SCALE
  5
21E
102
{ACAD_REACTORS
330
217
102
}
330
217
100
AcDbScale
 70
     0
300
1:16
140
1.0
141
16.0
290
     0
  0
SCALE
  5
21F
102
{ACAD_REACTORS
330
217
102
}
330
217
100
AcDbScale
 70
     0
300
1:20
140
1.0
141
20.0
290
     0
  0
SCALE
  5
220
102
{ACAD_REACTORS
330
217
102
}
330
217
100
AcDbScale
 70
     0
300
1:30
140
1.0
141
30.0
290
     0
  0
SCALE
  5
221
102
{ACAD_REACTORS
330
217
102
}
330
217
100
AcDbScale
 70
     0
300
1:40
140
1.0
141
40.0
290
     0
  0
SCALE
  5
222
102
{ACAD_REACTORS
330
217
102
}
330
217
100
AcDbScale
 70
     0
300
1:50
140
1.0
141
50.0
290
     0
  0
SCALE
  5
223
102
{ACAD_REACTORS
330
217
102
}
330
217
100
AcDbScale
 70
     0
300
1:100
140
1.0
141
100.0
290
     0
  0
SCALE
  5
224
102
{ACAD_REACTORS
330
217
102
}
330
217
100
AcDbScale
 70
     0
300
2:1
140
2.0
141
1.0
290
     0
  0
SCALE
  5
225
102
{ACAD_REACTORS
330
217
102
}
330
217
100
AcDbScale
 70
     0
300
4:1
140
4.0
141
1.0
290
     0
  0
SCALE
  5
226
102
{ACAD_REACTORS
330
217
102
}
330
217
100
AcDbScale
 70
     0
300
8:1
140
8.0
141
1.0
290
     0
  0
SCALE
  5
227
102
{ACAD_REACTORS
330
217
102
}
330
217
100
AcDbScale
 70
     0
300
10:1
140
10.0
141
1.0
290
     0
  0
SCALE
  5
228
102
{ACAD_REACTORS
330
217
102
}
330
217
100
AcDbScale
 70
     0
300
100:1
140
100.0
141
1.0
290
     0
  0
SCALE
  5
229
102
{ACAD_REACTORS
330
217
102
}
330
217
100
AcDbScale
 70
     0
300
1/128" = 1'-0"
140
0.0078125
141
12.0
290
     0
  0
SCALE
  5
22A
102
{ACAD_REACTORS
330
217
102
}
330
217
100
AcDbScale
 70
     0
300
1/64" = 1'-0"
140
0.015625
141
12.0
290
     0
  0
SCALE
  5
22B
102
{ACAD_REACTORS
330
217
102
}
330
217
100
AcDbScale
 70
     0
300
1/32" = 1'-0"
140
0.03125
141
12.0
290
     0
  0
SCALE
  5
22C
102
{ACAD_REACTORS
330
217
102
}
330
217
100
AcDbScale
 70
     0
300
1/16" = 1'-0"
140
0.0625
141
12.0
290
     0
  0
SCALE
  5
22D
102
{ACAD_REACTORS
330
217
102
}
330
217
100
AcDbScale
 70
     0
300
3/32" = 1'-0"
140
0.09375
141
12.0
290
     0
  0
SCALE
  5
22E
102
{ACAD_REACTORS
330
217
102
}
330
217
100
AcDbScale
 70
     0
300
1/8" = 1'-0"
140
0.125
141
12.0
290
     0
  0
SCALE
  5
22F
102
{ACAD_REACTORS
330
217
102
}
330
217
100
AcDbScale
 70
     0
300
3/16" = 1'-0"
140
0.1875
141
12.0
290
     0
  0
SCALE
  5
230
102
{ACAD_REACTORS
330
217
102
}
330
217
100
AcDbScale
 70
     0
300
1/4" = 1'-0"
140
0.25
141
12.0
290
     0
  0
SCALE
  5
231
102
{ACAD_REACTORS
330
217
102
}
330
217
100
AcDbScale
 70
     0
300
3/8" = 1'-0"
140
0.375
141
12.0
290
     0
  0
SCALE
  5
232
102
{ACAD_REACTORS
330
217
102
}
330
217
100
AcDbScale
 70
     0
300
1/2" = 1'-0"
140
0.5
141
12.0
290
     0
  0
SCALE
  5
233
102
{ACAD_REACTORS
330
217
102
}
330
217
100
AcDbScale
 70
     0
300
3/4" = 1'-0"
140
0.75
141
12.0
290
     0
  0
SCALE
  5
234
102
{ACAD_REACTORS
330
217
102
}
330
217
100
AcDbScale
 70
     0
300
1" = 1'-0"
140
1.0
141
12.0
290
     0
  0
SCALE
  5
235
102
{ACAD_REACTORS
330
217
102
}
330
217
100
AcDbScale
 70
     0
300
1-1/2" = 1'-0"
140
1.5
141
12.0
290
     0
  0
SCALE
  5
236
102
{ACAD_REACTORS
330
217
102
}
330
217
100
AcDbScale
 70
     0
300
3" = 1'-0"
140
3.0
141
12.0
290
     0
  0
SCALE
  5
237
102
{ACAD_REACTORS
330
217
102
}
330
217
100
AcDbScale
 70
     0
300
6" = 1'-0"
140
6.0
141
12.0
290
     0
  0
SCALE
  5
238
102
{ACAD_REACTORS
330
217
102
}
330
217
100
AcDbScale
 70
     0
300
1'-0" = 1'-0"
140
12.0
141
12.0
290
     0
  0
TABLESTYLE
  5
23A
102
{ACAD_REACTORS
330
239
102
}
102
{ACAD_XDICTIONARY
360
36F
102
}
330
239
100
AcDbTableStyle
  3
Standard
 70
     0
 71
     0
 40
0.06
 41
0.06
280
     0
281
     0
  7
Standard
140
0.18
170
     2
 62
     0
 63
   257
283
     0
 90
        4
 91
        0
  1

274
    -2
284
     1
 64
     0
275
    -2
285
     1
 65
     0
276
    -2
286
     1
 66
     0
277
    -2
287
     1
 67
     0
278
    -2
288
     1
 68
     0
279
    -2
289
     1
 69
     0
  7
Standard
140
0.25
170
     5
 62
     0
 63
   257
283
     0
 90
        4
 91
        0
  1

274
    -2
284
     1
 64
     0
275
    -2
285
     1
 65
     0
276
    -2
286
     1
 66
     0
277
    -2
287
     1
 67
     0
278
    -2
288
     1
 68
     0
279
    -2
289
     1
 69
     0
  7
Standard
140
0.18
170
     5
 62
     0
 63
   257
283
     0
 90
        4
 91
        0
  1

274
    -2
284
     1
 64
     0
275
    -2
285
     1
 65
     0
276
    -2
286
     1
 66
     0
277
    -2
287
     1
 67
     0
278
    -2
288
     1
 68
     0
279
    -2
289
     1
 69
     0
  0
VISUALSTYLE
  5
1FF
102
{ACAD_REACTORS
330
1FA
102
}
330
1FA
100
AcDbVisualStyle
  2
2dWireframe
 70
     4
177
     3
291
     0
 70
    58
 90
        0
176
     1
 90
        2
176
     1
 90
        0
176
     1
 90
        0
176
     1
 40
0.6
176
     1
 40
30.0
176
     1
 62
     7
420
 16777215
176
     1
 90
        1
176
     1
 90
        4
176
     1
 62
     7
176
     1
 62
   257
176
     1
 90
        1
176
     1
 90
        1
176
     1
 40
1.0
176
     1
 90
        0
176
     1
 62
   257
176
     1
 40
1.0
176
     1
 90
        1
176
     1
 90
        6
176
     1
 90
        2
176
     1
 62
     7
176
     1
 90
        5
176
     1
 90
        0
176
     1
 90
        0
176
     1
290
     0
176
     1
 90
        1
176
     1
 40
0.0
176
     1
 90
        0
176
     1
290
     1
176
     1
290
     1
176
     1
290
     0
176
     1
290
     0
176
     1
290
     0
176
     1
290
     0
176
     1
290
     0
176
     1
290
     0
176
     1
290
     0
176
     1
 90
       50
176
     1
 40
0.0
176
     1
 40
1.0
176
     1
 90
        0
176
     1
 62
   178
420
        0
176
     1
 90
       50
176
     1
 90
        3
176
     1
 62
     5
420
      255
176
     1
290
     0
176
     1
 90
       50
176
     1
 90
       50
176
     1
 90
       50
176
     1
290
     0
176
     1
 90
       50
176
     1
 62
   256
176
     0
 40
1.0
176
     0
 90
        2
176
     1
  1
strokes_ogs.tif
176
     1
290
     0
176
     1
 40
1.0
176
     1
 40
1.0
176
     1
  0
VISUALSTYLE
  5
202
102
{ACAD_REACTORS
330
1FA
102
}
330
1FA
100
AcDbVisualStyle
  2
Basic
 70
     7
177
     3
291
     1
 70
    58
 90
        1
176
     1
 90
        0
176
     1
 90
        1
176
     1
 90
        0
176
     1
 40
0.6
176
     1
 40
30.0
176
     1
 62
     7
420
 16777215
176
     1
 90
        0
176
     1
 90
        4
176
     1
 62
     7
176
     1
 62
   257
176
     1
 90
        1
176
     1
 90
        1
176
     1
 40
1.0
176
     1
 90
        8
176
     1
 62
     7
176
     1
 40
1.0
176
     1
 90
        1
176
     1
 90
        6
176
     1
 90
        2
176
     1
 62
     7
176
     1
 90
        5
176
     1
 90
        0
176
     1
 90
        0
176
     1
290
     0
176
     1
 90
        1
176
     1
 40
0.0
176
     1
 90
        0
176
     1
290
     0
176
     1
290
     1
176
     1
290
     1
176
     1
290
     0
176
     1
290
     0
176
     1
290
     0
176
     1
290
     0
176
     1
290
     0
176
     1
290
     0
176
     1
 90
       50
176
     1
 40
0.0
176
     1
 40
1.0
176
     1
 90
        0
176
     1
 62
   178
420
        0
176
     1
 90
       50
176
     1
 90
        3
176
     1
 62
     5
420
      255
176
     1
290
     0
176
     1
 90
       50
176
     1
 90
       50
176
     1
 90
       50
176
     1
290
     0
176
     1
 90
       50
176
     1
 62
   256
176
     0
 40
1.0
176
     0
 90
        2
176
     1
  1
strokes_ogs.tif
176
     1
290
     0
176
     1
 40
1.0
176
     1
 40
1.0
176
     1
  0
VISUALSTYLE
  5
206
102
{ACAD_REACTORS
330
1FA
102
}
330
1FA
100
AcDbVisualStyle
  2
Brighten
 70
    12
177
     3
291
     1
 70
    58
 90
        2
176
     1
 90
        2
176
     1
 90
        0
176
     1
 90
        0
176
     1
 40
0.6
176
     1
 40
30.0
176
     1
 62
     7
420
 16777215
176
     1
 90
        1
176
     1
 90
        4
176
     1
 62
     7
176
     1
 62
   257
176
     1
 90
        1
176
     1
 90
        1
176
     1
 40
1.0
176
     1
 90
        8
176
     1
 62
     7
176
     1
 40
1.0
176
     1
 90
        1
176
     1
 90
        6
176
     1
 90
        2
176
     1
 62
     7
176
     1
 90
        5
176
     1
 90
        0
176
     1
 90
        0
176
     1
290
     0
176
     1
 90
        1
176
     1
 40
50.0
176
     1
 90
        0
176
     1
290
     0
176
     1
290
     1
176
     1
290
     1
176
     1
290
     0
176
     1
290
     0
176
     1
290
     0
176
     1
290
     0
176
     1
290
     0
176
     1
290
     0
176
     1
 90
       50
176
     1
 40
0.0
176
     1
 40
1.0
176
     1
 90
        0
176
     1
 62
   178
420
        0
176
     1
 90
       50
176
     1
 90
        3
176
     1
 62
     5
420
      255
176
     1
290
     0
176
     1
 90
       50
176
     1
 90
       50
176
     1
 90
       50
176
     1
290
     0
176
     1
 90
       50
176
     1
 62
   256
176
     0
 40
1.0
176
     0
 90
        2
176
     1
  1
strokes_ogs.tif
176
     1
290
     0
176
     1
 40
1.0
176
     1
 40
1.0
176
     1
  0
VISUALSTYLE
  5
20A
102
{ACAD_REACTORS
330
1FA
102
}
330
1FA
100
AcDbVisualStyle
  2
ColorChange
 70
    16
177
     3
291
     1
 70
    58
 90
        2
176
     1
 90
        2
176
     1
 90
        3
176
     1
 90
        0
176
     1
 40
0.6
176
     1
 40
30.0
176
     1
 62
     8
420
  8421504
176
     1
 90
        1
176
     1
 90
        4
176
     1
 62
     7
176
     1
 62
   257
176
     1
 90
        1
176
     1
 90
        1
176
     1
 40
1.0
176
     1
 90
        8
176
     1
 62
     8
420
  8421504
176
     1
 40
1.0
176
     1
 90
        1
176
     1
 90
        6
176
     1
 90
        2
176
     1
 62
     7
176
     1
 90
        5
176
     1
 90
        0
176
     1
 90
        0
176
     1
290
     0
176
     1
 90
        1
176
     1
 40
0.0
176
     1
 90
        0
176
     1
290
     0
176
     1
290
     1
176
     1
290
     1
176
     1
290
     0
176
     1
290
     0
176
     1
290
     0
176
     1
290
     0
176
     1
290
     0
176
     1
290
     0
176
     1
 90
       50
176
     1
 40
0.0
176
     1
 40
1.0
176
     1
 90
        0
176
     1
 62
   178
420
        0
176
     1
 90
       50
176
     1
 90
        3
176
     1
 62
     5
420
      255
176
     1
290
     0
176
     1
 90
       50
176
     1
 90
       50
176
     1
 90
       50
176
     1
290
     0
176
     1
 90
       50
176
     1
 62
   256
176
     0
 40
1.0
176
     0
 90
        2
176
     1
  1
strokes_ogs.tif
176
     1
290
     0
176
     1
 40
1.0
176
     1
 40
1.0
176
     1
  0
VISUALSTYLE
  5
204
102
{ACAD_REACTORS
330
1FA
102
}
330
1FA
100
AcDbVisualStyle
  2
Conceptual
 70
     9
177
     3
291
     0
 70
    58
 90
        3
176
     1
 90
        2
176
     1
 90
        0
176
     1
 90
        0
176
     1
 40
0.6
176
     1
 40
30.0
176
     1
 62
     7
420
 16777215
176
     1
 90
        2
176
     1
 90
        2
176
     1
 62
     7
176
     1
 62
   257
176
     1
 90
        1
176
     1
 90
        1
176
     1
 40
179.0
176
     1
 90
        8
176
     1
 62
     7
176
     1
 40
1.0
176
     1
 90
        1
176
     1
 90
        6
176
     1
 90
        2
176
     1
 62
     7
176
     1
 90
        3
176
     1
 90
        0
176
     1
 90
        0
176
     1
290
     0
176
     1
 90
        1
176
     1
 40
0.0
176
     1
 90
        0
176
     1
290
     0
176
     1
290
     1
176
     1
290
     1
176
     1
290
     0
176
     1
290
     0
176
     1
290
     0
176
     1
290
     0
176
     1
290
     0
176
     1
290
     0
176
     1
 90
       50
176
     1
 40
0.0
176
     1
 40
1.0
176
     1
 90
        0
176
     1
 62
   178
420
        0
176
     1
 90
       50
176
     1
 90
        3
176
     1
 62
     5
420
      255
176
     1
290
     0
176
     1
 90
       50
176
     1
 90
       50
176
     1
 90
       50
176
     1
290
     0
176
     1
 90
       50
176
     1
 62
   256
176
     0
 40
1.0
176
     0
 90
        2
176
     1
  1
strokes_ogs.tif
176
     1
290
     0
176
     1
 40
1.0
176
     1
 40
1.0
176
     1
  0
VISUALSTYLE
  5
205
102
{ACAD_REACTORS
330
1FA
102
}
330
1FA
100
AcDbVisualStyle
  2
Dim
 70
    11
177
     3
291
     1
 70
    58
 90
        2
176
     1
 90
        2
176
     1
 90
        0
176
     1
 90
        0
176
     1
 40
0.6
176
     1
 40
30.0
176
     1
 62
     7
420
 16777215
176
     1
 90
        1
176
     1
 90
        4
176
     1
 62
     7
176
     1
 62
   257
176
     1
 90
        1
176
     1
 90
        1
176
     1
 40
1.0
176
     1
 90
        8
176
     1
 62
     7
176
     1
 40
1.0
176
     1
 90
        1
176
     1
 90
        6
176
     1
 90
        2
176
     1
 62
     7
176
     1
 90
        5
176
     1
 90
        0
176
     1
 90
        0
176
     1
290
     0
176
     1
 90
        1
176
     1
 40
-50.0
176
     1
 90
        0
176
     1
290
     0
176
     1
290
     1
176
     1
290
     1
176
     1
290
     0
176
     1
290
     0
176
     1
290
     0
176
     1
290
     0
176
     1
290
     0
176
     1
290
     0
176
     1
 90
       50
176
     1
 40
0.0
176
     1
 40
1.0
176
     1
 90
        0
176
     1
 62
   178
420
        0
176
     1
 90
       50
176
     1
 90
        3
176
     1
 62
     5
420
      255
176
     1
290
     0
176
     1
 90
       50
176
     1
 90
       50
176
     1
 90
       50
176
     1
290
     0
176
     1
 90
       50
176
     1
 62
   256
176
     0
 40
1.0
176
     0
 90
        2
176
     1
  1
strokes_ogs.tif
176
     1
290
     0
176
     1
 40
1.0
176
     1
 40
1.0
176
     1
  0
VISUALSTYLE
  5
20D
102
{ACAD_REACTORS
330
1FA
102
}
330
1FA
100
AcDbVisualStyle
  2
EdgeColorOff
 70
    22
177
     3
291
     1
 70
    58
 90
        2
176
     0
 90
        2
176
     0
 90
        0
176
     0
 90
        0
176
     0
 40
0.6
176
     0
 40
30.0
176
     0
 62
     7
420
 16777215
176
     0
 90
        1
176
     0
 90
        4
176
     0
 62
     7
176
     0
 62
   257
176
     0
 90
        1
176
     0
 90
        1
176
     0
 40
1.0
176
     0
 90
        8
176
     2
 62
     7
176
     0
 40
1.0
176
     0
 90
        1
176
     0
 90
        6
176
     0
 90
        2
176
     0
 62
     7
176
     0
 90
        5
176
     0
 90
        0
176
     0
 90
        0
176
     0
290
     0
176
     0
 90
        1
176
     0
 40
0.0
176
     0
 90
        0
176
     0
290
     0
176
     0
290
     1
176
     0
290
     1
176
     0
290
     0
176
     0
290
     0
176
     0
290
     0
176
     0
290
     0
176
     0
290
     0
176
     0
290
     0
176
     0
 90
       50
176
     0
 40
0.0
176
     0
 40
1.0
176
     0
 90
        0
176
     0
 62
   178
420
        0
176
     0
 90
       50
176
     0
 90
        3
176
     0
 62
     5
420
      255
176
     0
290
     0
176
     0
 90
       50
176
     0
 90
       50
176
     0
 90
       50
176
     0
290
     0
176
     0
 90
       50
176
     0
 62
   256
176
     0
 40
1.0
176
     0
 90
        2
176
     0
  1
strokes_ogs.tif
176
     0
290
     0
176
     0
 40
1.0
176
     0
 40
1.0
176
     0
  0
VISUALSTYLE
  5
209
102
{ACAD_REACTORS
330
1FA
102
}
330
1FA
100
AcDbVisualStyle
  2
Facepattern
 70
    15
177
     3
291
     1
 70
    58
 90
        2
176
     1
 90
        2
176
     1
 90
        0
176
     1
 90
        0
176
     1
 40
0.6
176
     1
 40
30.0
176
     1
 62
     7
420
 16777215
176
     1
 90
        1
176
     1
 90
        4
176
     1
 62
     7
176
     1
 62
   257
176
     1
 90
        1
176
     1
 90
        1
176
     1
 40
1.0
176
     1
 90
        8
176
     1
 62
     7
176
     1
 40
1.0
176
     1
 90
        1
176
     1
 90
        6
176
     1
 90
        2
176
     1
 62
     7
176
     1
 90
        5
176
     1
 90
        0
176
     1
 90
        0
176
     1
290
     0
176
     1
 90
        1
176
     1
 40
0.0
176
     1
 90
        0
176
     1
290
     0
176
     1
290
     1
176
     1
290
     1
176
     1
290
     0
176
     1
290
     0
176
     1
290
     0
176
     1
290
     0
176
     1
290
     0
176
     1
290
     0
176
     1
 90
       50
176
     1
 40
0.0
176
     1
 40
1.0
176
     1
 90
        0
176
     1
 62
   178
420
        0
176
     1
 90
       50
176
     1
 90
        3
176
     1
 62
     5
420
      255
176
     1
290
     0
176
     1
 90
       50
176
     1
 90
       50
176
     1
 90
       50
176
     1
290
     0
176
     1
 90
       50
176
     1
 62
   256
176
     0
 40
1.0
176
     0
 90
        2
176
     1
  1
strokes_ogs.tif
176
     1
290
     0
176
     1
 40
1.0
176
     1
 40
1.0
176
     1
  0
VISUALSTYLE
  5
1FB
102
{ACAD_REACTORS
330
1FA
102
}
330
1FA
100
AcDbVisualStyle
  2
Flat
 70
     0
177
     3
291
     1
 70
    58
 90
        2
176
     1
 90
        1
176
     1
 90
        1
176
     1
 90
        2
176
     1
 40
0.6
176
     1
 40
30.0
176
     1
 62
     7
420
 16777215
176
     1
 90
        0
176
     1
 90
        0
176
     1
 62
     7
176
     1
 62
   257
176
     1
 90
        1
176
     1
 90
        1
176
     1
 40
1.0
176
     1
 90
        8
176
     1
 62
     7
176
     1
 40
1.0
176
     1
 90
        1
176
     1
 90
        6
176
     1
 90
        2
176
     1
 62
     7
176
     1
 90
        5
176
     1
 90
        0
176
     1
 90
        0
176
     1
290
     0
176
     1
 90
       13
176
     1
 40
0.0
176
     1
 90
        0
176
     1
290
     0
176
     1
290
     1
176
     1
290
     1
176
     1
290
     0
176
     1
290
     0
176
     1
290
     0
176
     1
290
     0
176
     1
290
     0
176
     1
290
     0
176
     1
 90
       50
176
     1
 40
0.0
176
     1
 40
1.0
176
     1
 90
        0
176
     1
 62
   178
420
        0
176
     1
 90
       50
176
     1
 90
        3
176
     1
 62
     5
420
      255
176
     1
290
     0
176
     1
 90
       50
176
     1
 90
       50
176
     1
 90
       50
176
     1
290
     0
176
     1
 90
       50
176
     1
 62
   256
176
     0
 40
1.0
176
     0
 90
        2
176
     1
  1
strokes_ogs.tif
176
     1
290
     0
176
     1
 40
1.0
176
     1
 40
1.0
176
     1
  0
VISUALSTYLE
  5
1FC
102
{ACAD_REACTORS
330
1FA
102
}
330
1FA
100
AcDbVisualStyle
  2
FlatWithEdges
 70
     1
177
     3
291
     1
 70
    58
 90
        2
176
     1
 90
        1
176
     1
 90
        1
176
     1
 90
        2
176
     1
 40
0.6
176
     1
 40
30.0
176
     1
 62
     7
420
 16777215
176
     1
 90
        1
176
     1
 90
        0
176
     1
 62
     7
176
     1
 62
   257
176
     1
 90
        1
176
     1
 90
        1
176
     1
 40
1.0
176
     1
 90
        0
176
     1
 62
   257
176
     1
 40
1.0
176
     1
 90
        1
176
     1
 90
        6
176
     1
 90
        2
176
     1
 62
     7
176
     1
 90
        5
176
     1
 90
        0
176
     1
 90
        0
176
     1
290
     0
176
     1
 90
       13
176
     1
 40
0.0
176
     1
 90
        0
176
     1
290
     0
176
     1
290
     1
176
     1
290
     1
176
     1
290
     0
176
     1
290
     0
176
     1
290
     0
176
     1
290
     0
176
     1
290
     0
176
     1
290
     0
176
     1
 90
       50
176
     1
 40
0.0
176
     1
 40
1.0
176
     1
 90
        0
176
     1
 62
   178
420
        0
176
     1
 90
       50
176
     1
 90
        3
176
     1
 62
     5
420
      255
176
     1
290
     0
176
     1
 90
       50
176
     1
 90
       50
176
     1
 90
       50
176
     1
290
     0
176
     1
 90
       50
176
     1
 62
   256
176
     0
 40
1.0
176
     0
 90
        2
176
     1
  1
strokes_ogs.tif
176
     1
290
     0
176
     1
 40
1.0
176
     1
 40
1.0
176
     1
  0
VISUALSTYLE
  5
1FD
102
{ACAD_REACTORS
330
1FA
102
}
330
1FA
100
AcDbVisualStyle
  2
Gouraud
 70
     2
177
     3
291
     1
 70
    58
 90
        2
176
     1
 90
        2
176
     1
 90
        1
176
     1
 90
        2
176
     1
 40
0.6
176
     1
 40
30.0
176
     1
 62
     7
420
 16777215
176
     1
 90
        0
176
     1
 90
        0
176
     1
 62
     7
176
     1
 62
   257
176
     1
 90
        1
176
     1
 90
        1
176
     1
 40
1.0
176
     1
 90
        0
176
     1
 62
     7
176
     1
 40
1.0
176
     1
 90
        1
176
     1
 90
        6
176
     1
 90
        2
176
     1
 62
     7
176
     1
 90
        5
176
     1
 90
        0
176
     1
 90
        0
176
     1
290
     0
176
     1
 90
       13
176
     1
 40
0.0
176
     1
 90
        0
176
     1
290
     0
176
     1
290
     1
176
     1
290
     1
176
     1
290
     0
176
     1
290
     0
176
     1
290
     0
176
     1
290
     0
176
     1
290
     0
176
     1
290
     0
176
     1
 90
       50
176
     1
 40
0.0
176
     1
 40
1.0
176
     1
 90
        0
176
     1
 62
   178
420
        0
176
     1
 90
       50
176
     1
 90
        3
176
     1
 62
     5
420
      255
176
     1
290
     0
176
     1
 90
       50
176
     1
 90
       50
176
     1
 90
       50
176
     1
290
     0
176
     1
 90
       50
176
     1
 62
   256
176
     0
 40
1.0
176
     0
 90
        2
176
     1
  1
strokes_ogs.tif
176
     1
290
     0
176
     1
 40
1.0
176
     1
 40
1.0
176
     1
  0
VISUALSTYLE
  5
1FE
102
{ACAD_REACTORS
330
1FA
102
}
330
1FA
100
AcDbVisualStyle
  2
GouraudWithEdges
 70
     3
177
     3
291
     1
 70
    58
 90
        2
176
     1
 90
        2
176
     1
 90
        1
176
     1
 90
        2
176
     1
 40
0.6
176
     1
 40
30.0
176
     1
 62
     7
420
 16777215
176
     1
 90
        1
176
     1
 90
        0
176
     1
 62
     7
176
     1
 62
   257
176
     1
 90
        1
176
     1
 90
        1
176
     1
 40
1.0
176
     1
 90
        0
176
     1
 62
   257
176
     1
 40
1.0
176
     1
 90
        1
176
     1
 90
        6
176
     1
 90
        2
176
     1
 62
     7
176
     1
 90
        5
176
     1
 90
        0
176
     1
 90
        0
176
     1
290
     0
176
     1
 90
       13
176
     1
 40
0.0
176
     1
 90
        0
176
     1
290
     0
176
     1
290
     1
176
     1
290
     1
176
     1
290
     0
176
     1
290
     0
176
     1
290
     0
176
     1
290
     0
176
     1
290
     0
176
     1
290
     0
176
     1
 90
       50
176
     1
 40
0.0
176
     1
 40
1.0
176
     1
 90
        0
176
     1
 62
   178
420
        0
176
     1
 90
       50
176
     1
 90
        3
176
     1
 62
     5
420
      255
176
     1
290
     0
176
     1
 90
       50
176
     1
 90
       50
176
     1
 90
       50
176
     1
290
     0
176
     1
 90
       50
176
     1
 62
   256
176
     0
 40
1.0
176
     0
 90
        2
176
     1
  1
strokes_ogs.tif
176
     1
290
     0
176
     1
 40
1.0
176
     1
 40
1.0
176
     1
  0
VISUALSTYLE
  5
201
102
{ACAD_REACTORS
330
1FA
102
}
330
1FA
100
AcDbVisualStyle
  2
Hidden
 70
     6
177
     3
291
     0
 70
    58
 90
        1
176
     1
 90
        2
176
     1
 90
        2
176
     1
 90
        0
176
     1
 40
0.6
176
     1
 40
30.0
176
     1
 62
     7
420
 16777215
176
     1
 90
        2
176
     1
 90
        2
176
     1
 62
     7
176
     1
 62
   257
176
     1
 90
        2
176
     1
 90
        1
176
     1
 40
40.0
176
     1
 90
        0
176
     1
 62
   257
176
     1
 40
1.0
176
     1
 90
        1
176
     1
 90
        6
176
     1
 90
        2
176
     1
 62
     7
176
     1
 90
        3
176
     1
 90
        0
176
     1
 90
        0
176
     1
290
     0
176
     1
 90
        1
176
     1
 40
0.0
176
     1
 90
        0
176
     1
290
     0
176
     1
290
     1
176
     1
290
     1
176
     1
290
     0
176
     1
290
     0
176
     1
290
     0
176
     1
290
     0
176
     1
290
     0
176
     1
290
     0
176
     1
 90
       50
176
     1
 40
0.0
176
     1
 40
1.0
176
     1
 90
        0
176
     1
 62
   178
420
        0
176
     1
 90
       50
176
     1
 90
        3
176
     1
 62
     5
420
      255
176
     1
290
     0
176
     1
 90
       50
176
     1
 90
       50
176
     1
 90
       50
176
     1
290
     0
176
     1
 90
       50
176
     1
 62
   256
176
     0
 40
1.0
176
     0
 90
        2
176
     1
  1
strokes_ogs.tif
176
     1
290
     0
176
     1
 40
1.0
176
     1
 40
1.0
176
     1
  0
VISUALSTYLE
  5
20B
102
{ACAD_REACTORS
330
1FA
102
}
330
1FA
100
AcDbVisualStyle
  2
JitterOff
 70
    20
177
     3
291
     1
 70
    58
 90
        2
176
     0
 90
        2
176
     0
 90
        0
176
     0
 90
        0
176
     0
 40
0.6
176
     0
 40
30.0
176
     0
 62
     7
420
 16777215
176
     0
 90
        1
176
     0
 90
        4
176
     0
 62
     7
176
     0
 62
   257
176
     0
 90
        1
176
     0
 90
        1
176
     0
 40
1.0
176
     0
 90
       10
176
     2
 62
     7
176
     0
 40
1.0
176
     0
 90
        1
176
     0
 90
        6
176
     0
 90
        2
176
     0
 62
     7
176
     0
 90
        5
176
     0
 90
        0
176
     0
 90
        0
176
     0
290
     0
176
     0
 90
        1
176
     0
 40
0.0
176
     0
 90
        0
176
     0
290
     0
176
     0
290
     1
176
     0
290
     1
176
     0
290
     0
176
     0
290
     0
176
     0
290
     0
176
     0
290
     0
176
     0
290
     0
176
     0
290
     0
176
     0
 90
       50
176
     0
 40
0.0
176
     0
 40
1.0
176
     0
 90
        0
176
     0
 62
   178
420
        0
176
     0
 90
       50
176
     0
 90
        3
176
     0
 62
     5
420
      255
176
     0
290
     0
176
     0
 90
       50
176
     0
 90
       50
176
     0
 90
       50
176
     0
290
     0
176
     0
 90
       50
176
     0
 62
   256
176
     0
 40
1.0
176
     0
 90
        2
176
     0
  1
strokes_ogs.tif
176
     0
290
     0
176
     0
 40
1.0
176
     0
 40
1.0
176
     0
  0
VISUALSTYLE
  5
208
102
{ACAD_REACTORS
330
1FA
102
}
330
1FA
100
AcDbVisualStyle
  2
Linepattern
 70
    14
177
     3
291
     1
 70
    58
 90
        2
176
     1
 90
        2
176
     1
 90
        0
176
     1
 90
        0
176
     1
 40
0.6
176
     1
 40
30.0
176
     1
 62
     7
420
 16777215
176
     1
 90
        1
176
     1
 90
        4
176
     1
 62
     7
176
     1
 62
   257
176
     1
 90
        7
176
     1
 90
        7
176
     1
 40
1.0
176
     1
 90
        8
176
     1
 62
     7
176
     1
 40
1.0
176
     1
 90
        1
176
     1
 90
        6
176
     1
 90
        2
176
     1
 62
     7
176
     1
 90
        5
176
     1
 90
        0
176
     1
 90
        0
176
     1
290
     0
176
     1
 90
        1
176
     1
 40
0.0
176
     1
 90
        0
176
     1
290
     0
176
     1
290
     1
176
     1
290
     1
176
     1
290
     0
176
     1
290
     0
176
     1
290
     0
176
     1
290
     0
176
     1
290
     0
176
     1
290
     0
176
     1
 90
       50
176
     1
 40
0.0
176
     1
 40
1.0
176
     1
 90
        0
176
     1
 62
   178
420
        0
176
     1
 90
       50
176
     1
 90
        3
176
     1
 62
     5
420
      255
176
     1
290
     0
176
     1
 90
       50
176
     1
 90
       50
176
     1
 90
       50
176
     1
290
     0
176
     1
 90
       50
176
     1
 62
   256
176
     0
 40
1.0
176
     0
 90
        2
176
     1
  1
strokes_ogs.tif
176
     1
290
     0
176
     1
 40
1.0
176
     1
 40
1.0
176
     1
  0
VISUALSTYLE
  5
20C
102
{ACAD_REACTORS
330
1FA
102
}
330
1FA
100
AcDbVisualStyle
  2
OverhangOff
 70
    21
177
     3
291
     1
 70
    58
 90
        2
176
     0
 90
        2
176
     0
 90
        0
176
     0
 90
        0
176
     0
 40
0.6
176
     0
 40
30.0
176
     0
 62
     7
420
 16777215
176
     0
 90
        1
176
     0
 90
        4
176
     0
 62
     7
176
     0
 62
   257
176
     0
 90
        1
176
     0
 90
        1
176
     0
 40
1.0
176
     0
 90
        9
176
     2
 62
     7
176
     0
 40
1.0
176
     0
 90
        1
176
     0
 90
        6
176
     0
 90
        2
176
     0
 62
     7
176
     0
 90
        5
176
     0
 90
        0
176
     0
 90
        0
176
     0
290
     0
176
     0
 90
        1
176
     0
 40
0.0
176
     0
 90
        0
176
     0
290
     0
176
     0
290
     1
176
     0
290
     1
176
     0
290
     0
176
     0
290
     0
176
     0
290
     0
176
     0
290
     0
176
     0
290
     0
176
     0
290
     0
176
     0
 90
       50
176
     0
 40
0.0
176
     0
 40
1.0
176
     0
 90
        0
176
     0
 62
   178
420
        0
176
     0
 90
       50
176
     0
 90
        3
176
     0
 62
     5
420
      255
176
     0
290
     0
176
     0
 90
       50
176
     0
 90
       50
176
     0
 90
       50
176
     0
290
     0
176
     0
 90
       50
176
     0
 62
   256
176
     0
 40
1.0
176
     0
 90
        2
176
     0
  1
strokes_ogs.tif
176
     0
290
     0
176
     0
 40
1.0
176
     0
 40
1.0
176
     0
  0
VISUALSTYLE
  5
203
102
{ACAD_REACTORS
330
1FA
102
}
330
1FA
100
AcDbVisualStyle
  2
Realistic
 70
     8
177
     3
291
     0
 70
    58
 90
        2
176
     1
 90
        3
176
     1
 90
        0
176
     1
 90
        2
176
     1
 40
0.6
176
     1
 40
30.0
176
     1
 62
     7
420
 16777215
176
     1
 90
        0
176
     1
 90
        0
176
     1
 62
     7
176
     1
 62
   257
176
     1
 90
        1
176
     1
 90
        1
176
     1
 40
1.0
176
     1
 90
        8
176
     1
 62
   257
176
     1
 40
1.0
176
     1
 90
        1
176
     1
 90
        6
176
     1
 90
        2
176
     1
 62
     7
176
     1
 90
        3
176
     1
 90
        0
176
     1
 90
        0
176
     1
290
     0
176
     1
 90
       13
176
     1
 40
0.0
176
     1
 90
        0
176
     1
290
     0
176
     1
290
     1
176
     1
290
     1
176
     1
290
     0
176
     1
290
     0
176
     1
290
     0
176
     1
290
     0
176
     1
290
     0
176
     1
290
     0
176
     1
 90
       50
176
     1
 40
0.0
176
     1
 40
1.0
176
     1
 90
        0
176
     1
 62
   178
420
        0
176
     1
 90
       50
176
     1
 90
        3
176
     1
 62
     5
420
      255
176
     1
290
     0
176
     1
 90
       50
176
     1
 90
       50
176
     1
 90
       50
176
     1
290
     0
176
     1
 90
       50
176
     1
 62
   256
176
     0
 40
1.0
176
     0
 90
        2
176
     1
  1
strokes_ogs.tif
176
     1
290
     0
176
     1
 40
1.0
176
     1
 40
1.0
176
     1
  0
VISUALSTYLE
  5
212
102
{ACAD_REACTORS
330
1FA
102
}
330
1FA
100
AcDbVisualStyle
  2
Shaded
 70
    27
177
     3
291
     0
 70
    58
 90
        2
176
     1
 90
        2
176
     1
 90
        1
176
     1
 90
        2
176
     1
 40
0.6
176
     1
 40
30.0
176
     1
 62
     7
420
 16777215
176
     1
 90
        0
176
     1
 90
        4
176
     1
 62
     7
176
     1
 62
   257
176
     1
 90
        1
176
     1
 90
        1
176
     1
 40
1.0
176
     1
 90
        8
176
     1
 62
   257
176
     1
 40
1.0
176
     1
 90
        1
176
     1
 90
        6
176
     1
 90
        2
176
     1
 62
     8
420
  7895160
176
     1
 90
        3
176
     1
 90
        0
176
     1
 90
        0
176
     1
290
     0
176
     1
 90
        5
176
     1
 40
0.0
176
     1
 90
        0
176
     1
290
     0
176
     1
290
     1
176
     1
290
     1
176
     1
290
     0
176
     1
290
     0
176
     1
290
     0
176
     1
290
     0
176
     1
290
     0
176
     1
290
     0
176
     1
 90
       50
176
     1
 40
0.0
176
     1
 40
1.0
176
     1
 90
        0
176
     1
 62
   178
420
        0
176
     1
 90
       50
176
     1
 90
        3
176
     1
 62
     5
420
      255
176
     1
290
     0
176
     1
 90
       50
176
     1
 90
       50
176
     1
 90
       50
176
     1
290
     0
176
     1
 90
       50
176
     1
 62
   256
176
     0
 40
1.0
176
     0
 90
        2
176
     1
  1
strokes_ogs.tif
176
     1
290
     0
176
     1
 40
1.0
176
     1
 40
1.0
176
     1
  0
VISUALSTYLE
  5
211
102
{ACAD_REACTORS
330
1FA
102
}
330
1FA
100
AcDbVisualStyle
  2
Shaded with edges
 70
    26
177
     3
291
     0
 70
    58
 90
        2
176
     1
 90
        2
176
     1
 90
        1
176
     1
 90
        2
176
     1
 40
0.6
176
     1
 40
30.0
176
     1
 62
     7
420
 16777215
176
     1
 90
        1
176
     1
 90
       10
176
     1
 62
     7
176
     1
 62
   257
176
     1
 90
        2
176
     1
 90
        1
176
     1
 40
1.0
176
     1
 90
        8
176
     1
 62
   257
176
     1
 40
1.0
176
     1
 90
        1
176
     1
 90
        6
176
     1
 90
        2
176
     1
 62
     7
176
     1
 90
        3
176
     1
 90
        0
176
     1
 90
        0
176
     1
290
     0
176
     1
 90
        5
176
     1
 40
0.0
176
     1
 90
        0
176
     1
290
     0
176
     1
290
     1
176
     1
290
     1
176
     1
290
     0
176
     1
290
     0
176
     1
290
     0
176
     1
290
     0
176
     1
290
     0
176
     1
290
     0
176
     1
 90
       50
176
     1
 40
0.0
176
     1
 40
1.0
176
     1
 90
        0
176
     1
 62
   178
420
        0
176
     1
 90
       50
176
     1
 90
        3
176
     1
 62
     5
420
      255
176
     1
290
     0
176
     1
 90
       50
176
     1
 90
       50
176
     1
 90
       50
176
     1
290
     0
176
     1
 90
       50
176
     1
 62
   256
176
     0
 40
1.0
176
     0
 90
        2
176
     1
  1
strokes_ogs.tif
176
     1
290
     0
176
     1
 40
1.0
176
     1
 40
1.0
176
     1
  0
VISUALSTYLE
  5
20E
102
{ACAD_REACTORS
330
1FA
102
}
330
1FA
100
AcDbVisualStyle
  2
Shades of Gray
 70
    23
177
     3
291
     0
 70
    58
 90
        2
176
     1
 90
        2
176
     1
 90
        3
176
     1
 90
        0
176
     1
 40
0.6
176
     1
 40
30.0
176
     1
 62
     7
420
 16777215
176
     1
 90
        2
176
     1
 90
        2
176
     1
 62
     7
176
     1
 62
     7
176
     1
 90
        1
176
     1
 90
        1
176
     1
 40
40.0
176
     1
 90
        8
176
     1
 62
     7
176
     1
 40
1.0
176
     1
 90
        1
176
     1
 90
        6
176
     1
 90
        2
176
     1
 62
     7
176
     1
 90
        3
176
     1
 90
        0
176
     1
 90
        0
176
     1
290
     0
176
     1
 90
        1
176
     1
 40
0.0
176
     1
 90
        0
176
     1
290
     0
176
     1
290
     1
176
     1
290
     1
176
     1
290
     0
176
     1
290
     0
176
     1
290
     0
176
     1
290
     0
176
     1
290
     0
176
     1
290
     0
176
     1
 90
       50
176
     1
 40
0.0
176
     1
 40
1.0
176
     1
 90
        0
176
     1
 62
   178
420
        0
176
     1
 90
       50
176
     1
 90
        3
176
     1
 62
     5
420
      255
176
     1
290
     0
176
     1
 90
       50
176
     1
 90
       50
176
     1
 90
       50
176
     1
290
     0
176
     1
 90
       50
176
     1
 62
   256
176
     0
 40
1.0
176
     0
 90
        2
176
     1
  1
strokes_ogs.tif
176
     1
290
     0
176
     1
 40
1.0
176
     1
 40
1.0
176
     1
  0
VISUALSTYLE
  5
20F
102
{ACAD_REACTORS
330
1FA
102
}
330
1FA
100
AcDbVisualStyle
  2
Sketchy
 70
    24
177
     3
291
     0
 70
    58
 90
        1
176
     1
 90
        2
176
     1
 90
        2
176
     1
 90
        0
176
     1
 40
0.6
176
     1
 40
30.0
176
     1
 62
     7
420
 16777215
176
     1
 90
        2
176
     1
 90
        2
176
     1
 62
     7
176
     1
 62
     7
176
     1
 90
        1
176
     1
 90
        1
176
     1
 40
40.0
176
     1
 90
       11
176
     1
 62
     7
176
     1
 40
1.0
176
     1
 90
        1
176
     1
 90
        6
176
     1
 90
        2
176
     1
 62
     7
176
     1
 90
        6
176
     1
 90
        0
176
     1
 90
        0
176
     1
290
     0
176
     1
 90
        1
176
     1
 40
0.0
176
     1
 90
        0
176
     1
290
     0
176
     1
290
     1
176
     1
290
     1
176
     1
290
     0
176
     1
290
     0
176
     1
290
     0
176
     1
290
     0
176
     1
290
     0
176
     1
290
     0
176
     1
 90
       50
176
     1
 40
0.0
176
     1
 40
1.0
176
     1
 90
        0
176
     1
 62
   178
420
        0
176
     1
 90
       50
176
     1
 90
        3
176
     1
 62
     5
420
      255
176
     1
290
     0
176
     1
 90
       50
176
     1
 90
       50
176
     1
 90
       50
176
     1
290
     0
176
     1
 90
       50
176
     1
 62
   256
176
     0
 40
1.0
176
     0
 90
        2
176
     1
  1
strokes_ogs.tif
176
     1
290
     0
176
     1
 40
1.0
176
     1
 40
1.0
176
     1
  0
VISUALSTYLE
  5
207
102
{ACAD_REACTORS
330
1FA
102
}
330
1FA
100
AcDbVisualStyle
  2
Thicken
 70
    13
177
     3
291
     1
 70
    58
 90
        2
176
     1
 90
        2
176
     1
 90
        0
176
     1
 90
        0
176
     1
 40
0.6
176
     1
 40
30.0
176
     1
 62
     7
420
 16777215
176
     1
 90
        1
176
     1
 90
        4
176
     1
 62
     7
176
     1
 62
   257
176
     1
 90
        1
176
     1
 90
        1
176
     1
 40
1.0
176
     1
 90
       12
176
     1
 62
     7
176
     1
 40
1.0
176
     1
 90
        1
176
     1
 90
        6
176
     1
 90
        2
176
     1
 62
     7
176
     1
 90
        5
176
     1
 90
        0
176
     1
 90
        0
176
     1
290
     0
176
     1
 90
        1
176
     1
 40
0.0
176
     1
 90
        0
176
     1
290
     0
176
     1
290
     1
176
     1
290
     1
176
     1
290
     0
176
     1
290
     0
176
     1
290
     0
176
     1
290
     0
176
     1
290
     0
176
     1
290
     0
176
     1
 90
       50
176
     1
 40
0.0
176
     1
 40
1.0
176
     1
 90
        0
176
     1
 62
   178
420
        0
176
     1
 90
       50
176
     1
 90
        3
176
     1
 62
     5
420
      255
176
     1
290
     0
176
     1
 90
       50
176
     1
 90
       50
176
     1
 90
       50
176
     1
290
     0
176
     1
 90
       50
176
     1
 62
   256
176
     0
 40
1.0
176
     0
 90
        2
176
     1
  1
strokes_ogs.tif
176
     1
290
     0
176
     1
 40
1.0
176
     1
 40
1.0
176
     1
  0
VISUALSTYLE
  5
200
102
{ACAD_REACTORS
330
1FA
102
}
330
1FA
100
AcDbVisualStyle
  2
Wireframe
 70
     5
177
     3
291
     0
 70
    58
 90
        0
176
     1
 90
        2
176
     1
 90
        0
176
     1
 90
        0
176
     1
 40
0.6
176
     1
 40
30.0
176
     1
 62
     7
420
 16777215
176
     1
 90
        1
176
     1
 90
        4
176
     1
 62
     7
176
     1
 62
   257
176
     1
 90
        1
176
     1
 90
        1
176
     1
 40
1.0
176
     1
 90
        0
176
     1
 62
   257
176
     1
 40
1.0
176
     1
 90
        1
176
     1
 90
        6
176
     1
 90
        2
176
     1
 62
     7
176
     1
 90
        3
176
     1
 90
        0
176
     1
 90
        0
176
     1
290
     0
176
     1
 90
        1
176
     1
 40
0.0
176
     1
 90
        0
176
     1
290
     0
176
     1
290
     1
176
     1
290
     1
176
     1
290
     0
176
     1
290
     0
176
     1
290
     0
176
     1
290
     0
176
     1
290
     0
176
     1
290
     0
176
     1
 90
       50
176
     1
 40
0.0
176
     1
 40
1.0
176
     1
 90
        0
176
     1
 62
   178
420
        0
176
     1
 90
       50
176
     1
 90
        3
176
     1
 62
     5
420
      255
176
     1
290
     0
176
     1
 90
       50
176
     1
 90
       50
176
     1
 90
       50
176
     1
290
     0
176
     1
 90
       50
176
     1
 62
   256
176
     0
 40
1.0
176
     0
 90
        2
176
     1
  1
strokes_ogs.tif
176
     1
290
     0
176
     1
 40
1.0
176
     1
 40
1.0
176
     1
  0
VISUALSTYLE
  5
210
102
{ACAD_REACTORS
330
1FA
102
}
330
1FA
100
AcDbVisualStyle
  2
X-Ray
 70
    25
177
     3
291
     0
 70
    58
 90
        2
176
     1
 90
        2
176
     1
 90
        1
176
     1
 90
        1
176
     1
 40
0.5
176
     1
 40
30.0
176
     1
 62
     7
420
 16777215
176
     1
 90
        1
176
     1
 90
        0
176
     1
 62
     7
176
     1
 62
   257
176
     1
 90
        1
176
     1
 90
        1
176
     1
 40
1.0
176
     1
 90
        8
176
     1
 62
     7
176
     1
 40
1.0
176
     1
 90
        1
176
     1
 90
        6
176
     1
 90
        2
176
     1
 62
     7
176
     1
 90
        3
176
     1
 90
        0
176
     1
 90
        0
176
     1
290
     0
176
     1
 90
       13
176
     1
 40
0.0
176
     1
 90
        0
176
     1
290
     0
176
     1
290
     1
176
     1
290
     1
176
     1
290
     0
176
     1
290
     0
176
     1
290
     0
176
     1
290
     0
176
     1
290
     0
176
     1
290
     0
176
     1
 90
       50
176
     1
 40
0.0
176
     1
 40
1.0
176
     1
 90
        0
176
     1
 62
   178
420
        0
176
     1
 90
       50
176
     1
 90
        3
176
     1
 62
     5
420
      255
176
     1
290
     0
176
     1
 90
       50
176
     1
 90
       50
176
     1
 90
       50
176
     1
290
     0
176
     1
 90
       50
176
     1
 62
   256
176
     0
 40
1.0
176
     0
 90
        2
176
     1
  1
strokes_ogs.tif
176
     1
290
     0
176
     1
 40
1.0
176
     1
 40
1.0
176
     1
  0
DICTIONARYVAR
  5
36E
102
{ACAD_REACTORS
330
36D
102
}
330
36D
100
DictionaryVariables
280
     0
  1
1:1
  0
DICTIONARYVAR
  5
373
102
{ACAD_REACTORS
330
36D
102
}
330
36D
100
DictionaryVariables
280
     0
  1
Standard
  0
DICTIONARYVAR
  5
372
102
{ACAD_REACTORS
330
36D
102
}
330
36D
100
DictionaryVariables
280
     0
  1
Standard
  0
XRECORD
  5
241
102
{ACAD_REACTORS
330
23F
102
}
330
23F
100
AcDbXrecord
280
     1
1000
#ffffff
  0
XRECORD
  5
242
102
{ACAD_REACTORS
330
23F
102
}
330
23F
100
AcDbXrecord
280
     1
1000
FullColor
  0
XRECORD
  5
243
102
{ACAD_REACTORS
330
23F
102
}
330
23F
100
AcDbXrecord
280
     1
 90
        0
  0
XRECORD
  5
244
102
{ACAD_REACTORS
330
23F
102
}
330
23F
100
AcDbXrecord
280
     1
 90
        0
  0
XRECORD
  5
245
102
{ACAD_REACTORS
330
23F
102
}
330
23F
100
AcDbXrecord
280
     1
1000
Standard
  0
XRECORD
  5
246
102
{ACAD_REACTORS
330
23F
102
}
330
23F
100
AcDbXrecord
280
     1
290
     0
  0
XRECORD
  5
247
102
{ACAD_REACTORS
330
23F
102
}
330
23F
100
AcDbXrecord
280
     1
 90
        2
  0
XRECORD
  5
248
102
{ACAD_REACTORS
330
23F
102
}
330
23F
100
AcDbXrecord
280
     1
 90
        2
  0
XRECORD
  5
249
102
{ACAD_REACTORS
330
23F
102
}
330
23F
100
AcDbXrecord
280
     1
290
     1
  0
XRECORD
  5
24A
102
{ACAD_REACTORS
330
23F
102
}
330
23F
100
AcDbXrecord
280
     1
290
     1
  0
XRECORD
  5
24B
102
{ACAD_REACTORS
330
23F
102
}
330
23F
100
AcDbXrecord
280
     1
290
     1
  0
XRECORD
  5
24C
102
{ACAD_REACTORS
330
23F
102
}
330
23F
100
AcDbXrecord
280
     1
290
     1
  0
XRECORD
  5
24D
102
{ACAD_REACTORS
330
23F
102
}
330
23F
100
AcDbXrecord
280
     1
1000
auto
  0
XRECORD
  5
24E
102
{ACAD_REACTORS
330
23F
102
}
330
23F
100
AcDbXrecord
280
     1
1000
auto
  0
XRECORD
  5
24F
102
{ACAD_REACTORS
330
23F
102
}
330
23F
100
AcDbXrecord
280
     1
1000
auto
  0
XRECORD
  5
250
102
{ACAD_REACTORS
330
23F
102
}
330
23F
100
AcDbXrecord
280
     1
1000
auto
  0
XRECORD
  5
251
102
{ACAD_REACTORS
330
23F
102
}
330
23F
100
AcDbXrecord
280
     1
1000
auto
  0
XRECORD
  5
252
102
{ACAD_REACTORS
330
23F
102
}
330
23F
100
AcDbXrecord
280
     1
1000
auto
  0
XRECORD
  5
253
102
{ACAD_REACTORS
330
23F
102
}
330
23F
100
AcDbXrecord
280
     1
1000
auto
  0
XRECORD
  5
254
102
{ACAD_REACTORS
330
23F
102
}
330
23F
100
AcDbXrecord
280
     1
1000
auto
  0
XRECORD
  5
255
102
{ACAD_REACTORS
330
23F
102
}
330
23F
100
AcDbXrecord
280
     1
290
     0
  0
XRECORD
  5
256
102
{ACAD_REACTORS
330
23F
102
}
330
23F
100
AcDbXrecord
280
     1
290
     0
  0
XRECORD
  5
257
102
{ACAD_REACTORS
330
23F
102
}
330
23F
100
AcDbXrecord
280
     1
290
     0
  0
XRECORD
  5
258
102
{ACAD_REACTORS
330
23F
102
}
330
23F
100
AcDbXrecord
280
     1
290
     0
  0
XRECORD
  5
259
102
{ACAD_REACTORS
330
23F
102
}
330
23F
100
AcDbXrecord
280
     1
 90
        0
  0
XRECORD
  5
25A
102
{ACAD_REACTORS
330
23F
102
}
330
23F
100
AcDbXrecord
280
     1
 90
        0
  0
XRECORD
  5
25B
102
{ACAD_REACTORS
330
23F
102
}
330
23F
100
AcDbXrecord
280
     1
 90
        0
  0
XRECORD
  5
25C
102
{ACAD_REACTORS
330
23F
102
}
330
23F
100
AcDbXrecord
280
     1
 90
        0
  0
XRECORD
  5
25D
102
{ACAD_REACTORS
330
23F
102
}
330
23F
100
AcDbXrecord
280
     1
1000
auto
  0
XRECORD
  5
25E
102
{ACAD_REACTORS
330
23F
102
}
330
23F
100
AcDbXrecord
280
     1
1000
auto
  0
XRECORD
  5
25F
102
{ACAD_REACTORS
330
23F
102
}
330
23F
100
AcDbXrecord
280
     1
1000
auto
  0
XRECORD
  5
260
102
{ACAD_REACTORS
330
23F
102
}
330
23F
100
AcDbXrecord
280
     1
1000
auto
  0
XRECORD
  5
261
102
{ACAD_REACTORS
330
23F
102
}
330
23F
100
AcDbXrecord
280
     1
1000
auto
  0
XRECORD
  5
262
102
{ACAD_REACTORS
330
23F
102
}
330
23F
100
AcDbXrecord
280
     1
1000
auto
  0
XRECORD
  5
263
102
{ACAD_REACTORS
330
23F
102
}
330
23F
100
AcDbXrecord
280
     1
1000
auto
  0
XRECORD
  5
264
102
{ACAD_REACTORS
330
23F
102
}
330
23F
100
AcDbXrecord
280
     1
1000
auto
  0
XRECORD
  5
265
102
{ACAD_REACTORS
330
23F
102
}
330
23F
100
AcDbXrecord
280
     1
 90
        1
  0
XRECORD
  5
266
102
{ACAD_REACTORS
330
23F
102
}
330
23F
100
AcDbXrecord
280
     1
 40
0.5
  0
XRECORD
  5
267
102
{ACAD_REACTORS
330
23F
102
}
330
23F
100
AcDbXrecord
280
     1
 40
0.5
  0
XRECORD
  5
268
102
{ACAD_REACTORS
330
23F
102
}
330
23F
100
AcDbXrecord
280
     1
 40
0.5
  0
XRECORD
  5
269
102
{ACAD_REACTORS
330
23F
102
}
330
23F
100
AcDbXrecord
280
     1
 40
0.5
  0
XRECORD
  5
26A
102
{ACAD_REACTORS
330
23F
102
}
330
23F
100
AcDbXrecord
280
     1
290
     0
  0
XRECORD
  5
26B
102
{ACAD_REACTORS
330
23F
102
}
330
23F
100
AcDbXrecord
280
     1
 90
        1
  0
XRECORD
  5
26C
102
{ACAD_REACTORS
330
23F
102
}
330
23F
100
AcDbXrecord
280
     1
 40
0.0
  0
XRECORD
  5
26D
102
{ACAD_REACTORS
330
23F
102
}
330
23F
100
AcDbXrecord
280
     1
 40
0.0
  0
XRECORD
  5
26E
102
{ACAD_REACTORS
330
23F
102
}
330
23F
100
AcDbXrecord
280
     1
1000
Portrait
  0
XRECORD
  5
26F
102
{ACAD_REACTORS
330
23F
102
}
330
23F
100
AcDbXrecord
280
     1
 40
11.6929133858268
  0
XRECORD
  5
270
102
{ACAD_REACTORS
330
23F
102
}
330
23F
100
AcDbXrecord
280
     1
 40
8.26771653543307
  0
XRECORD
  5
271
102
{ACAD_REACTORS
330
23F
102
}
330
23F
100
AcDbXrecord
280
     1
1000
1:1
  0
XRECORD
  5
272
102
{ACAD_REACTORS
330
23F
102
}
330
23F
100
AcDbXrecord
280
     1
290
     1
  0
XRECORD
  5
273
102
{ACAD_REACTORS
330
23F
102
}
330
23F
100
AcDbXrecord
280
     1
1000
3.9.5
  0
XRECORD
  5
274
102
{ACAD_REACTORS
330
23F
102
}
330
23F
100
AcDbXrecord
280
     1
 90
        1
  0
DICTIONARY
  5
36F
330
23A
100
AcDbDictionary
280
     1
281
     1
  3
ACAD_ROUNDTRIP_2008_TABLESTYLE_CELLSTYLEMAP
360
370
  0
CELLSTYLEMAP
  5
370
102
{ACAD_REACTORS
330
36F
102
}
330
36F
100
AcDbCellStyleMap
 90
        3
300
CELLSTYLE
  1
TABLEFORMAT_BEGIN
 90
        5
170
     1
 91
        0
 92
    32768
 62
   257
 93
        1
300
CONTENTFORMAT
  1
CONTENTFORMAT_BEGIN
 90
        0
 91
        0
 92
        4
 93
        0
300

 40
0.0
140
1.0
 94
        5
 62
     0
340
1E2
144
0.25
309
CONTENTFORMAT_END
171
     1
301
MARGIN
  1
CELLMARGIN_BEGIN
 40
0.06
 40
0.06
 40
0.06
 40
0.06
 40
0.06
 40
0.06
309
CELLMARGIN_END
 94
        6
 95
        1
302
GRIDFORMAT
  1
GRIDFORMAT_BEGIN
 90
        0
 91
        1
 62
     0
 92
       -2
340
1E4
 93
        0
 40
0.045
309
GRIDFORMAT_END
 95
        2
302
GRIDFORMAT
  1
GRIDFORMAT_BEGIN
 90
        0
 91
        1
 62
     0
 92
       -2
340
1E4
 93
        0
 40
0.045
309
GRIDFORMAT_END
 95
        4
302
GRIDFORMAT
  1
GRIDFORMAT_BEGIN
 90
        0
 91
        1
 62
     0
 92
       -2
340
1E4
 93
        0
 40
0.045
309
GRIDFORMAT_END
 95
        8
302
GRIDFORMAT
  1
GRIDFORMAT_BEGIN
 90
        0
 91
        1
 62
     0
 92
       -2
340
1E4
 93
        0
 40
0.045
309
GRIDFORMAT_END
 95
       16
302
GRIDFORMAT
  1
GRIDFORMAT_BEGIN
 90
        0
 91
        1
 62
     0
 92
       -2
340
1E4
 93
        0
 40
0.045
309
GRIDFORMAT_END
 95
       32
302
GRIDFORMAT
  1
GRIDFORMAT_BEGIN
 90
        0
 91
        1
 62
     0
 92
       -2
340
1E4
 93
        0
 40
0.045
309
GRIDFORMAT_END
309
TABLEFORMAT_END
  1
CELLSTYLE_BEGIN
 90
        1
 91
        1
300
_TITLE
309
CELLSTYLE_END
300
CELLSTYLE
  1
TABLEFORMAT_BEGIN
 90
        5
170
     1
 91
        0
 92
        0
 62
   257
 93
        1
300
CONTENTFORMAT
  1
CONTENTFORMAT_BEGIN
 90
        0
 91
        0
 92
        4
 93
        0
300

 40
0.0
140
1.0
 94
        5
 62
     0
340
1E2
144
0.18
309
CONTENTFORMAT_END
171
     1
301
MARGIN
  1
CELLMARGIN_BEGIN
 40
0.06
 40
0.06
 40
0.06
 40
0.06
 40
0.06
 40
0.06
309
CELLMARGIN_END
 94
        6
 95
        1
302
GRIDFORMAT
  1
GRIDFORMAT_BEGIN
 90
        0
 91
        1
 62
     0
 92
       -2
340
1E4
 93
        0
 40
0.045
309
GRIDFORMAT_END
 95
        2
302
GRIDFORMAT
  1
GRIDFORMAT_BEGIN
 90
        0
 91
        1
 62
     0
 92
       -2
340
1E4
 93
        0
 40
0.045
309
GRIDFORMAT_END
 95
        4
302
GRIDFORMAT
  1
GRIDFORMAT_BEGIN
 90
        0
 91
        1
 62
     0
 92
       -2
340
1E4
 93
        0
 40
0.045
309
GRIDFORMAT_END
 95
        8
302
GRIDFORMAT
  1
GRIDFORMAT_BEGIN
 90
        0
 91
        1
 62
     0
 92
       -2
340
1E4
 93
        0
 40
0.045
309
GRIDFORMAT_END
 95
       16
302
GRIDFORMAT
  1
GRIDFORMAT_BEGIN
 90
        0
 91
        1
 62
     0
 92
       -2
340
1E4
 93
        0
 40
0.045
309
GRIDFORMAT_END
 95
       32
302
GRIDFORMAT
  1
GRIDFORMAT_BEGIN
 90
        0
 91
        1
 62
     0
 92
       -2
340
1E4
 93
        0
 40
0.045
309
GRIDFORMAT_END
309
TABLEFORMAT_END
  1
CELLSTYLE_BEGIN
 90
        2
 91
        1
300
_HEADER
309
CELLSTYLE_END
300
CELLSTYLE
  1
TABLEFORMAT_BEGIN
 90
        5
170
     1
 91
        0
 92
        0
 62
   257
 93
        1
300
CONTENTFORMAT
  1
CONTENTFORMAT_BEGIN
 90
        0
 91
        0
 92
        4
 93
        0
300

 40
0.0
140
1.0
 94
        2
 62
     0
340
1E2
144
0.18
309
CONTENTFORMAT_END
171
     1
301
MARGIN
  1
CELLMARGIN_BEGIN
 40
0.06
 40
0.06
 40
0.06
 40
0.06
 40
0.06
 40
0.06
309
CELLMARGIN_END
 94
        6
 95
        1
302
GRIDFORMAT
  1
GRIDFORMAT_BEGIN
 90
        0
 91
        1
 62
     0
 92
       -2
340
1E4
 93
        0
 40
0.045
309
GRIDFORMAT_END
 95
        2
302
GRIDFORMAT
  1
GRIDFORMAT_BEGIN
 90
        0
 91
        1
 62
     0
 92
       -2
340
1E4
 93
        0
 40
0.045
309
GRIDFORMAT_END
 95
        4
302
GRIDFORMAT
  1
GRIDFORMAT_BEGIN
 90
        0
 91
        1
 62
     0
 92
       -2
340
1E4
 93
        0
 40
0.045
309
GRIDFORMAT_END
 95
        8
302
GRIDFORMAT
  1
GRIDFORMAT_BEGIN
 90
        0
 91
        1
 62
     0
 92
       -2
340
1E4
 93
        0
 40
0.045
309
GRIDFORMAT_END
 95
       16
302
GRIDFORMAT
  1
GRIDFORMAT_BEGIN
 90
        0
 91
        1
 62
     0
 92
       -2
340
1E4
 93
        0
 40
0.045
309
GRIDFORMAT_END
 95
       32
302
GRIDFORMAT
  1
GRIDFORMAT_BEGIN
 90
        0
 91
        1
 62
     0
 92
       -2
340
1E4
 93
        0
 40
0.045
309
GRIDFORMAT_END
309
TABLEFORMAT_END
  1
CELLSTYLE_BEGIN
 90
        3
 91
        2
300
_DATA
309
CELLSTYLE_END
  0
ENDSEC
  0
EOF
